<?xml version="1.0" standalone="no"?>
<!DOCTYPE svg PUBLIC "-//W3C//DTD SVG 1.1//EN" "http://www.w3.org/Graphics/SVG/1.1/DTD/svg11.dtd">
<svg xmlns="http://www.w3.org/2000/svg">
<metadata>Copyright (C) 2016 by original authors @ fontello.com</metadata>
<defs>
<font id="fontello" horiz-adv-x="1000" >
<font-face font-family="fontello" font-weight="400" font-stretch="normal" units-per-em="1000" ascent="850" descent="-150" />
<missing-glyph horiz-adv-x="1000" />
<glyph glyph-name="nocontact" unicode="&#xe800;" d="m393 843c-97-20-179-65-250-136-59-59-98-123-122-200-18-57-22-88-20-166 1-64 2-72 12-108 38-148 134-266 269-333 76-37 132-50 225-50 69 0 105 5 156 22 36 12 101 45 132 67 14 11 28 21 31 23 7 4 58 55 62 62 2 3 12 17 23 31 24 33 55 97 68 138 18 58 22 88 20 166-1 64-2 72-12 108-51 196-206 342-403 378-43 8-149 7-191-2z m179-79c87-17 160-56 223-119 83-82 125-183 125-300 0-73-13-129-45-192-15-29-45-74-47-72-1 0-48 47-104 104-76 75-104 105-104 111 0 4 2 7 5 7 2 0 6 2 7 5 2 2 12 12 23 23 15 14 26 21 43 27 13 5 26 9 29 9 4 0 6 1 6 3 0 2 2 3 5 3 2 0 6 0 9 1 2 1 11 4 20 7 58 20 67 25 64 32-1 3-8 23-16 45-17 50-43 102-61 123-17 19-54 47-75 55-8 4-24 9-36 12-12 3-25 8-29 10-4 2-8 2-10 1-1-1-4 0-7 2-6 5-138 5-164 0-10-2-35-7-56-11-21-4-49-10-61-15l-23-7-26 26c-14 15-26 28-26 29-2 4 36 29 68 45 31 16 76 31 110 37 40 7 114 6 153-1z m-368-162l24-25-15-21c-18-25-38-68-45-97-8-36-5-119 6-146 2-4 4-9 4-10 1-1 2-4 3-6 1-3 7-20 12-37 6-17 12-33 14-35 2-2 3-10 3-18 0-15 1-16 18-28 9-7 20-12 23-12 7 0 37-9 51-14 3-1 15-4 27-6 19-4 20-4 39 6 26 14 35 12 87-12 6-3 21-14 34-26 34-30 45-38 62-44 9-3 16-6 16-8 0-1 3-3 8-4 6-2 8-5 8-10 0-17 11-21 27-10 6 4 13 8 15 8 2 0 7 3 10 6 6 7 6 8-3 25-10 21-10 22-2 37 7 11 7 12 1 20-4 6-4 10-2 12 3 3 15-8 45-39 23-24 51-54 64-67l24-25-10-8c-30-24-95-54-144-67-46-12-126-15-174-6-88 16-165 56-229 120-83 82-125 183-125 300 0 73 13 129 45 192 15 29 49 80 53 80 1 0 13-12 26-25z m304-318c4-5 25-28 48-52 34-35 41-44 39-50-5-15-8-34-8-48 0-11-2-14-6-14-4 0-8-2-11-4-3-3-4-3-6 0-1 2-3 4-6 4-2 0-11 6-21 13-9 8-18 14-20 14-2 0-8 4-13 10-6 6-11 9-11 7 0-3-7 2-17 9-9 8-22 16-27 19-19 8-22 13-19 23 6 21 30 65 40 72 13 11 29 9 38-3z" horiz-adv-x="1000" />
<glyph glyph-name="offskates" unicode="&#xe801;" d="m466 848c-58-3-120-18-176-43-134-60-234-177-273-318-14-50-16-68-16-131 0-54 0-59 5-87 6-31 19-75 31-105 38-90 105-172 188-227 57-39 117-63 186-77 32-6 57-8 100-8 78 0 142 15 216 51 28 14 66 38 92 59 24 19 71 67 82 84 6 8 15 20 20 27 5 6 9 13 9 14 0 2 3 8 6 13 26 45 47 102 58 162 4 22 5 31 5 82 0 54 0 59-5 87-6 31-19 75-31 105-38 90-105 172-188 227-74 50-163 80-245 84-13 1-25 1-28 2-3 0-19 0-36-1z m101-81c121-21 223-89 290-191 82-127 91-287 23-422-13-26-10-25-39-4-36 26-34 24-36 39-2 25-20 52-44 63-10 5-11 6-9 10 1 2 4 2 11 1 8-1 9-1 14 5 13 18 19 32 22 57 2 13 3 26 3 29 0 3 1 14 4 25 8 41 4 75-13 109-8 14-13 27-15 37-4 18-8 27-15 36-3 4-5 11-6 18-2 21 4 19-75 19-38 0-76 1-84 1l-15 2-1 12c-2 16-9 32-22 46-12 12-13 12-28-9-11-16-35-48-58-77-11-14-15-19-19-19-7 0-16-4-19-9-2-2-3-8-4-14-1-9-2-10-10-15-5-3-11-8-14-14-5-8-16-16-22-16-3 0-199 150-200 153 0 1 7 9 15 17 69 64 147 102 238 114 9 1 19 2 22 3 17 2 79-1 106-6z m-337-259c81-61 87-67 83-69-2-1-8-5-12-8-4-3-13-6-19-7-5-1-13-3-16-5-8-5-24-6-70-9-37-1-43-3-52-13-8-8-11-16-11-29 0-7-1-17-2-22l-1-10 14-3c7-2 17-3 22-3 4 0 8-1 9-2 1-1 2-7 3-14 1-6 3-14 5-17 2-4 3-9 2-15-1-8-1-8 5-10 10-4 6-12-6-12-4 0-13 2-20 4-7 2-14 4-15 4-4 0-9-14-9-24 0-9 1-10 9-18 17-15 56-31 72-30 8 1 8 1 14 15 3 7 5 17 6 22 0 9 2 7-24 17-4 2-5 3-3 6 1 4 3 5 10 4 7 0 8 0 9 5 2 6 2 6 13 2 6-3 12-3 24-2 8 0 16 0 18-1 4-2-1-11-9-16-4-2-11-9-17-16-17-18-25-43-20-67 12-64 88-91 136-48 19 18 30 45 27 73l-1 13 8-1 8 0 0 8c0 5-1 11-3 13-4 5-3 11 4 27l5 10 9-1c35-4 51-5 88-5l41 0 40-30 40-31-1-8c-2-11 2-30 7-42 5-11 20-28 30-34 20-13 49-16 70-9l11 4 6-5c21-14 47-35 47-38 0-6-48-48-77-66-53-34-103-53-170-64-35-6-95-5-133 2-122 22-224 89-291 191-86 133-92 304-13 440 4 6 8 12 9 12 2-1 42-31 91-68z" horiz-adv-x="1000" />
<glyph glyph-name="helmet" unicode="&#xe802;" d="m411 810c-92-15-158-32-195-50-119-60-199-196-199-338 0-68 10-111 43-201 15-40 27-82 27-93 0-18 3-23 28-39 15-11 31-19 35-19 4 0 25-5 45-11 92-26 100-27 134-10 30 16 30 16 66 6 43-11 72-27 115-66 49-43 69-56 93-64 12-3 21-9 21-11 0-3 6-6 12-8 6-2 11-8 11-14 0-17 16-29 28-20 6 3 21 11 35 18 13 6 24 13 24 16 0 2-6 18-13 35-12 29-12 30-1 49 8 16 8 22 3 32-5 10-4 18 3 36 11 28 9 61-9 145l-13 62 40 38c40 39 56 47 158 81 68 22 118 42 119 48 3 8-47 141-71 188-11 23-30 53-41 67-41 51-116 95-201 117-67 18-201 21-297 6z m196-567c25-14 46-32 46-39 0-4 9-19 21-34 17-22 20-29 14-36-16-23-29-59-32-94-4-36-6-39-20-41-17-4-46 8-64 28-7 7-17 14-21 14-5 0-15 7-24 15-8 9-17 16-18 16-2-1-13 6-25 14-12 7-30 18-39 24-34 16-35 24-6 79 37 69 44 74 102 69 27-3 54-9 66-15z" horiz-adv-x="1058" />
<glyph glyph-name="onskates" unicode="&#xe803;" d="m439 834c-22-21-38-56-38-82-1-17-2-21-8-22-3-1-71-2-149-2l-143 0-3-8c-1-5-4-16-5-26-2-11-6-24-11-30-12-17-18-31-24-61-3-15-11-37-17-48-25-48-28-56-35-89-8-40-7-87 4-132 4-15 7-35 7-45 1-32 8-80 16-94 10-21 30-51 35-53 3-1 10 0 16 2 12 3 21-1 21-9 0-2-10-9-23-15-26-14-49-38-63-66-10-19-10-24-10-59 0-36 0-40 11-62 12-26 38-54 61-66 89-45 194 7 210 106 3 20 2 45-3 57-1 3 2 5 10 6 7 1 13 4 18 11 6 8 6 10 2 25-5 19 0 50 9 58 5 4 18 4 66 0 66-5 193-3 244 3 22 3 33 3 35 1 3-2 9-14 13-27 8-23 8-24 2-35-3-6-5-16-4-23 1-11 1-12 14-12 13 0 14 0 12-11-1-7-1-26 1-44 6-55 33-95 83-118 68-33 156-1 188 68 12 26 17 62 12 87-8 40-27 67-69 100-7 5-12 13-12 18l-1 9 30-2c23-1 33 1 48 6 17 7 18 7 18 1 0-10 8-14 22-12 11 2 12 1 14-7 2-6 3-10 2-11-1 0-12-4-25-9-13-4-25-10-26-13-3-7 16-62 23-69 7-8 22-6 58 5 32 11 66 30 86 49 12 12 14 30 5 53-7 15-7 15-22 10-5-2-19-6-32-8-20-5-24-5-30 0-12 7-11 15 2 19 10 4 10 5 8 17-1 8 1 18 6 31 4 10 7 23 7 30 0 18 6 21 37 26 15 2 32 5 38 7 9 4 10 5 7 16-1 6-3 24-5 41-2 27-3 32-13 44-20 24-26 26-100 30-75 3-96 6-127 16-11 4-24 8-29 9-5 1-17 7-28 14-10 7-24 13-31 14-7 1-22 9-33 17-10 9-24 17-31 20-7 2-19 11-28 19-8 9-23 20-32 25-12 6-20 14-29 27-9 14-16 21-26 25-14 5-14 6-14 23 0 23-13 38-32 40-8 0-16 3-19 5-6 6-97 124-113 148-17 26-35 48-39 48-2 0-11-7-19-16z" horiz-adv-x="1189" />
<glyph glyph-name="passportbig" unicode="&#xe804;" d="m233 828c-51-11-85-50-91-102-1-10-1-240-1-688 0-42 0-56 2-64 9-50 45-87 93-96 14-2 455-2 469 1 31 5 58 22 75 46 9 15 16 30 19 47 1 6 1 82 1 382 0 299 0 375-1 381-9 48-44 83-91 93-11 2-16 2-238 2-215 0-228 0-237-2z m284-129c40-7 76-22 107-46 12-9 31-28 41-40 38-47 57-110 51-170-7-64-38-122-88-162-70-57-169-68-251-28-64 31-110 88-127 157-8 33-8 79 0 111 15 59 50 109 99 141 34 23 66 34 111 39 9 1 47 0 57-2z m-68-488c2-1 5-6 5-8-1-1 0-2 0-2 1 0 3-4 5-8 2-7 5-13 11-27 1-1 4-7 6-12 2-5 4-10 4-10 0-1 10-23 11-24 0 0 1-2 2-4 1-4 6-8 8-6 0 0 0 7 0 15 0 17 1 19 8 19 5 0 9-4 10-8 2-11 8-19 16-23 3-1 6-3 7-3 2-1 4-1 5 0 13 6 9 13-14 24-12 6-23 15-29 24-3 4-3 5-3 18 1 11 1 15 3 16 1 2 2 3 2 4 0 1 10 10 14 12 2 1 6 3 8 3 5 2 21 2 24 0 1 0 4-1 7-2 4-1 4-1 7 1 3 3 9 3 12 1 2-2 2-4 2-24 0-23 0-24-7-24-2 1-4 0-4 0 0 0 3-4 7-7 3-4 7-8 9-11 2-5 4-6 6-3 1 1 3 2 5 2 5 0 9-5 11-10 1-5 5-14 6-14 1 0 1 0 1-1 0-1 4-4 10-7 1-1 3-2 5-2 2-1 6 0 10 3 5 5 0 11-15 19-6 3-12 6-14 8-7 3-19 16-20 20 0 2-1 4-1 4-2 1-2 21 0 22 0 1 1 2 1 3 0 2 10 16 13 17 1 1 3 2 5 3 2 1 4 2 5 2 3 2 25 2 26 1 1-1 3-2 6-3 4-1 5-1 7 1 4 3 10 3 13 0 2-2 3-5 3-23 1-24 1-24-7-24-3 1-5 0-5 0 0-1 3-4 7-8 8-8 11-12 11-17 0-2 0-4 1-4 1-1 1-3 1-5-3-18-5-23-17-32-9-7-13-7-32-7-10 1-14 1-17 3-3 2-3 2-6 0-3-3-11-4-14-1-2 2-3 4-3 13l0 11-2-5c-4-7-14-16-20-19-5-2-8-2-22-2-11 1-16 1-18 2-1 1-2 2-2 1 0 0-1 0-2 1-1 0-2 0-3-2-1-1-3-2-7-2-3 0-6 0-7 1 0 0-14 0-30 0-33 0-33 0-33 9 0 5 2 9 6 9 4 0 5 2 2 5-1 1-1 3-1 4 0 2-2 2-14 2l-14 0-1-4c-1-4-1-4 0-6 2-1 3-1 4-1 0 1 2 0 4-1 1-1 2-3 2-7 0-9-1-10-25-10-23 0-23 0-23 10 0 5 1 6 9 11 3 2 7 9 12 20 2 5 5 13 13 30 3 5 5 9 5 10 0 1 1 3 2 6 1 3 2 6 3 7 0 0 1 2 1 3 1 1 2 4 4 7 5 11 5 12 8 15 2 3 7 3 11 1z m-86-3c0-1 2-1 4-1 1 0 4-2 6-3 2-2 4-3 4-3 2 0 8-7 10-12 1-2 2-5 2-6 2-3 2-16 0-16 0-1-1-3-1-5-1-6-10-15-18-19-5-2-9-3-18-4l-10 0 0-14c0-14 0-17 5-16 3 0 10-6 10-9 0-1-2-4-4-6l-3-3-29 0c-33 0-33 0-33 10 0 6 1 8 7 8 2 0 5 0 6 1 1 2 1 79 0 81-1 1-4 2-6 2-2 0-5 0-6 1-2 2-1 13 0 15 2 2 72 1 74-1z m89-142c0-1 2-1 5-2 7-1 15-6 24-15 8-8 10-10 16-24 1-2 1-10 1-19 0-18-1-24-6-31-1-2-2-4-2-5 0-1-5-5-10-10-14-14-18-15-45-15l-21 0-8 4c-16 9-29 26-31 42-2 15-2 18-3 18-1 0-3-2-5-5-7-7-13-10-26-10-6-1-11-2-11-2-1-1-1-7-1-13 0-13 2-16 7-16 5 1 8-3 8-9 0-8 0-8-34-8-33 0-32-1-32 8 0 6 2 9 5 9 2 0 4 1 5 1 2 1 2 3 2 41 0 29 0 40-1 41-1 0-3 1-5 1-2 0-4 1-5 2-2 2-2 12 0 14 2 2 68 2 71 0 2-1 5-2 7-3 6-2 20-15 20-19 0-1 0-2 1-3 0 0 0-1 0-3 0-1 0-2 1-2 0-1 1-1 1 0 0 2 4 8 10 15 5 5 15 13 18 13 1 0 3 1 4 2 1 1 3 2 5 2 1 0 3 0 3 1 1 1 31 1 32 0z m123-3c1-1 3-2 4-2 4 0 8-3 14-8 7-7 8-11 8-15 0-2 1-4 2-4 2-2 1-11-4-21-2-5-10-14-12-14-2 0-2 0 3-8 3-4 6-8 6-9 5-7 13-17 15-17 4-2 7-5 7-10 0-9-1-9-24-9l-20 0-2 3c-1 1-5 6-8 10-3 5-7 10-9 13-2 2-4 5-4 5 0 1-1 3-2 4l-2 3 0-9c0-9 0-9 2-11 2-1 4-1 5-1 3 2 7-3 7-8 0-10 0-9-34-9-35 0-35 0-35 8 0 6 2 9 7 9 2 0 4 1 5 2 3 2 3 2 3 40 0 42 0 42-7 42-2 0-5 1-6 2-3 2-3 10 0 14 2 2 4 2 41 1 29 0 39 0 40-1z m139 0c1-2 2-4 2-19l0-17-4-4c-1-1-4-3-5-3-3 0-11 9-11 11 0 4-3 8-7 10-7 5-7 7-7-36 0-29 0-40 1-41 1 0 4-1 6-1 5 0 7-2 7-8 0-10 0-9-34-9-34 0-34-1-34 9 0 6 2 8 6 8 2 0 4 1 6 2 2 2 2 2 2 40 0 36 0 39-2 38-1-1-3-1-5-1-2 0-4-3-8-12-2-5-7-10-10-10-1 0-4 2-6 3-2 4-3 4-3 20 0 11 1 18 2 19 1 2 3 3 51 3 45 0 51-1 53-2z m-256 608c-23-2-54-11-76-22-22-11-35-21-54-40-27-28-44-58-53-94-2-8-2-13-2-51 0-45 0-49 6-67 2-6 3-7 6-15 22-49 63-91 110-110 31-13 40-14 82-14 28 0 35 0 44 2 51 11 98 42 128 87 7 10 19 32 19 34 0 0 1 3 2 6 3 6 6 14 8 25 2 8 3 14 3 52 0 38-1 43-3 51-2 12-3 14-8 25-11 28-23 46-45 69-32 33-64 50-114 60-7 2-43 3-53 2z m24-10c0-1-1-5-3-9-2-6-2-8-1-13 1-3 2-6 3-7 1-4 6-9 8-9 1 0 3 2 6 5 8 11 12 14 17 15 3 1 4 2 8 7 3 6 4 7 7 6 13-3 46-17 54-23 2-2 2-2-1-2-1 0-4 0-5-1-3-1-3-1-2-9 0-8 2-12 7-12 2 0 3-1 4-2 5-5 6-6 9-6 4 0 4-1 4-6 0-3 0-6 1-7 1-2 0-3-2-6-4-5-7-7-15-9-4-1-9-2-10-3l-3-2 3-6c4-8 11-14 15-14 1 0 5 1 8 1l5 2 1 7c0 4 1 8 1 8 0 0 3-2 7-3 3-2 7-3 8-2 2 0 2-1 3-8 1-3 7-4 8-1 1 3 2 2 4-3 2-5 3-5 6-2 2 2 2 2 4-1 1-4 3-4 8-6 7-1 9-3 11-10l2-5-10 1c-9 0-9 1-18 7-7 5-11 7-14 7-3 1-7 1-10 2-14 2-21 2-29-1-7-2-9-3-13-7-2-3-6-6-7-7-10-3-15-10-15-20 1-3 0-9-2-14-1-5-2-13-3-19l-1-10 11-10c5-5 13-11 16-13 6-2 8-3 21-3 12 0 15 0 17-2 2-2 3-2 5-1 3 1 3 1 4-1 2-4 2-9-1-18-4-10-4-11-1-20 1-4 2-9 2-11 0-4-5-13-9-17-4-3-7-11-7-16 0-2 0-7 1-12 0-7 0-7-6-20-5-11-6-14-5-17 1-4 0-4-9-10-31-18-60-27-96-28-44-1-86 11-122 37-12 9-37 33-45 45-19 27-31 57-36 87-1 10-2 18-1 36 1 24 3 37 10 58 5 14 16 38 18 39 2 0 2-2 1-9l-1-8 5-5c2-3 6-6 9-7 4-2 4-2 4-6-1-4 0-5 3-7 2-2 3-4 4-9 2-6 2-7 7-10 3-2 5-5 6-7 1-4-2-11-8-19-8-11-9-15-8-26 1-12 4-17 14-28 7-7 9-9 9-12 0-6 0-9 2-11 2-2 2-3 1-13-2-10-2-17-2-24 0-1 0-8-1-14 0-8 0-12 1-14 1-1 2-6 2-11 2-10 6-17 13-24 5-4 10-7 11-6 1 0 0 5-1 12l-2 11 3 8c4 8 8 12 19 19 5 3 8 7 12 12 7 12 13 19 17 20 1 0 5 1 8 3 6 2 14 12 18 24 2 4 5 9 7 12 4 4 7 11 7 16 0 6-11 14-23 17-5 2-7 3-16 21-5 9-11 15-20 19-4 3-9 6-11 8-2 2-6 4-8 5-3 1-8 3-12 5-10 5-12 5-16 0-4-5-10-5-17 0-5 3-7 8-5 16 0 4 0 5-2 7-3 3-3 4 2 8 3 2 4 3 3 6 0 3 0 3-6 3-5 0-7 0-9 3-4 5 0 16 9 23 7 5 15 7 22 6 7-2 10-5 11-11 0-3 1-6 2-7 3-4 5-2 7 9l1 11 5 2c3 1 9 4 12 6 3 2 7 4 9 4 2 0 6 1 8 2 6 3 14 5 21 5 6 0 7 0 10 3 3 4 5 5 9 2 6-5 12-1 13 9 0 4 0 4-2 4-3 0-3 1 0 6l3 5-5 5c-5 5-7 5-12 1-3-2-4-3-7-2-3 0-4 0-5-2-3-4-9-8-12-8-4 0-6 4-5 9 1 3 2 5 7 8 10 7 11 8 13 6 2-2 3-2 7-1 7 2 8 2 12-1 2-2 4-3 5-3 0 0 3 2 6 5l6 5-2 4c-1 2-2 4-2 5 0 1 8 0 9-1z m82-50c-1 0-1-2 0-4 0-2 0-3-2-4-2-2-3-3-2-5 1-2 2-3 5-1 2 1 3 1 3-2 2-9 6-11 12-8 3 2 4 3 3 5-1 5-6 12-10 14-2 1-3 2-3 3 0 2-4 3-6 2z m-30-422c-1-1-1-3-1-5 1-3 4-7 4-5 0 1 1 1 1 0 2-2 26-14 26-13-1 1-1 4-2 6 0 3-1 4-1 4-1 0-2 1-2 2 0 3-6 9-10 11-6 2-13 2-15 0z m89 1c-1-1-2-2-3-3-1-2 0-3 3-6 2-2 5-4 6-4 1-1 3-2 5-3 1-1 4-2 5-2 0 0 3-2 5-3 2-2 4-3 5-3 2 0 2 5 0 6 0 1-1 2-1 3 0 3-7 11-12 14-3 1-10 2-13 1z m-192-29c-1-2-3-7-5-10-1-4-3-7-3-8 0-1-1-2-2-3-1-1-1-2-1-3 0-1 2-1 13-1 7 0 13 0 13 0 0 1-4 13-7 19-1 4-3 8-4 9 0 3-2 2-4-3z m-96 34c0-1 0-11 0-22l0-19 5-1c5 0 6 1 11 5 5 5 8 20 5 22-1 1-2 2-2 3 0 7-17 17-19 12z m-12-166l0-22 5 0c10 0 16 8 16 22 0 11-3 16-10 19-3 1-7 3-8 3l-3 0 0-22z m106 14c-3-2-8-9-8-11 0-1-1-3-1-3-4-3-4-41 0-48 0-1 1-4 2-6 2-6 8-10 15-10 5 0 6 1 9 4 6 6 7 9 8 20 2 12 2 22 0 33-1 11-4 17-9 20-4 3-12 3-16 1z m111 7c0-1 0-10 0-22l0-21 8 0c7 0 9 1 13 3 6 5 8 11 7 21 0 9-2 13-9 17-5 2-17 4-19 2z m244 758c22-18 34-38 41-68 2-5 2-73 2-386 0-366 0-380-2-389-5-19-13-36-24-49-6-8-16-18-21-21l-3-2 6 1c28 3 48 14 63 34 9 13 17 34 20 53 2 12 2 733 0 745-6 40-27 70-59 82-7 3-23 6-28 6-1 0 2-3 5-6z" horiz-adv-x="1000" />
<glyph glyph-name="rclogo" unicode="&#xe805;" d="m180 833c0-2-2-3-4-3-2 0-9-5-16-12-10-11-14-13-21-13-5 0-9-1-9-2 0-2-4-3-10-3-5 0-10-1-10-2 0-2-7-3-17-3-10 0-18-1-18-2 0-2-3-3-6-3-7 0-29-20-29-26 0-2-1-4-2-4-2 0-3-7-3-15 0-8 1-15 3-15 1 0 2-5 2-12 0-7 1-13 3-13 1 0 2-5 2-12 0-7 1-13 3-13 1 0 2-4 2-10 0-5 1-10 3-10 1 0 2-7 2-15 0-8 1-15 3-15 1 0 2-5 2-12 0-7 1-13 3-13 1 0 2-7 2-15 0-8 1-15 3-15 1 0 2-7 2-15 0-8 1-15 3-15 1 0 2-5 2-12 0-7 1-13 3-13 1 0 2-4 2-10 0-5 1-10 3-10 1 0 2-7 2-17 0-10 1-18 3-18 1 0 2-8 2-20 0-12 1-20 3-20 1 0 2-7 2-17 0-10 1-18 3-18 1 0 2-4 2-10 0-5 1-10 3-10 1 0 2-8 2-20 0-12 1-20 3-20 1 0 2-8 2-20 0-12 1-20 3-20 1 0 2-3 2-7 0-4 1-8 3-8 1 0 2-2 2-4 0-5 16-21 21-21 2 0 4-1 4-2 0-2 4-3 8-3 4 0 7-1 7-2 0-2 7-3 15-3 8 0 15 1 15 3 0 1 6 2 13 2 7 0 12 1 12 3 0 1 4 2 8 2 4 0 7 1 7 3 0 1 2 2 5 2 3 0 5 1 5 3 0 1 13 2 33 2 20 0 32-1 32-2 0-2 7-3 15-3l15 0 0-35c0-22-1-35-2-35-2 0-3-4-3-10 0-5-1-10-2-10-2 0-3-3-3-7 0-4 1-8 3-8 1 0 2-7 2-17 0-10-1-18-2-18-2 0-3-3-3-7 0-4 1-8 3-8 1 0 2-7 2-15 0-8 1-15 3-15 1 0 2-2 2-4 0-2 4-7 8-11 4-4 7-9 7-11 0-2 1-4 3-4 1 0 2-5 2-12 0-7 1-13 3-13 1 0 2-8 2-20 0-16 1-20 5-23 4-2 5-6 5-13 0-5 1-9 3-9 1 0 2-3 2-8 0-4 1-7 3-7 1 0 2-5 2-10 0-6 1-10 3-10 1 0 2-2 2-5 0-3 1-5 3-5 1 0 2-2 2-4 0-2 9-12 19-22 13-14 20-19 25-19 3 0 6-1 6-3 0-1 4-2 8-2 4 0 7-1 7-3 0-1 14-2 38-2 23 0 37 1 37 2 0 2 2 3 4 3 5 0 46 41 46 46 0 1 2 4 5 6 3 2 5 6 5 8 0 2 2 5 5 7 4 3 5 7 5 13 0 6 1 10 3 10 1 0 2 6 2 12 0 7 1 13 3 13 1 0 2 6 2 12 0 7 1 13 3 13 1 0 2 3 2 8 0 7 0 7 13 7 7 0 12-1 12-2 0-2 9-3 23-3 13 0 22 1 22 3 0 1 3 2 7 2 4 0 9 3 13 8 7 7 15 10 15 5 0-2 2-3 5-3 3 0 5-1 5-2 0-2 4-3 8-3 4 0 7-1 7-2 0-2 2-3 5-3 3 0 5-1 5-2 0-2 5-3 10-3 6 0 10 1 10 3 0 1 2 2 5 2 2 0 6 2 8 5 3 5 12 7 12 3 0-2 2-3 5-3 3 0 5-1 5-2 0-2 2-3 5-3 3 0 5-1 5-2 0-2 11-3 28-3 16 0 27 1 27 3 0 1 2 2 4 2 6 0 16 12 16 19 0 3 1 6 3 6 1 0 2 13 2 35 0 22-1 35-2 35-2 0-3 27-3 75 0 48-1 75-2 75-2 0-3 20-3 55l0 55 10 0c6 0 10-1 10-2 0-2 5-3 10-3 6 0 10 1 10 3 0 1 3 2 6 2 4 0 10 3 13 6 3 4 6 9 6 13 0 3 1 6 3 6 1 0 2 4 2 8 0 4 1 7 3 7 1 0 2 14 2 38 0 23-1 37-2 37-2 0-3 7-3 15 0 8-1 15-2 15-2 0-3 2-3 5 0 3-1 5-2 5-2 0-3 8-3 20 0 12-1 20-2 20-5 0-3 14 2 18 3 2 5 5 5 8 0 2 1 4 3 4 1 0 2 8 2 20 0 12 1 20 3 20 1 0 2 13 2 33 0 20-1 32-2 32-2 0-3 5-3 10 0 6-1 10-2 10-2 0-3 2-3 5 0 3-1 5-2 5-2 0-3 2-3 4 0 4-21 26-25 26-2 0-6 4-10 8-7 7-8 7-28 7-18 0-21-1-24-5-3-4-7-5-16-5-6 0-12-1-12-2 0-2-1-3-2-3-2 0-3 4-3 8 0 4-1 7-2 7-2 0-3 2-3 4 0 5-16 21-21 21-2 0-4 1-4 3 0 1-8 2-20 2-12 0-20-1-20-2 0-2-12-3-30-3-18 0-30 1-30 3 0 1-3 2-7 2-4 0-8-1-8-2 0-2-2-3-4-3-2 0-7-3-11-8-7-6-8-7-11-4-2 3-4 6-4 7 0 2-3 6-6 9-6 6-7 6-45 6-24 0-39-1-39-2 0-5-8-3-15 5-4 4-9 7-11 7-2 0-4 1-4 3 0 1-14 2-39 2l-39 0-8-9c-8-7-9-10-9-20 0-6-1-11-2-11-2 0-3-8-3-20 0-11 0-20-1-20-1 0-8 7-16 15-11 11-17 15-21 15-4 0-7 1-7 3 0 1-9 2-22 2-14 0-23-1-23-2 0-2-2-3-5-3-3 0-5-1-5-2 0-2-2-3-5-3-3 0-5-1-5-2 0-2-3-3-7-3-4 0-8-1-8-2 0-2-1-3-2-3-2 0-3 2-3 5 0 3-1 5-2 5-2 0-3 2-3 5 0 2-2 6-5 8-3 2-5 5-5 6 0 7-27 31-34 31-3 0-6 1-6 3 0 1-3 2-7 2-4 0-8 2-10 5-3 4-7 5-13 5-6 0-10 1-10 3 0 1-7 2-15 2-8 0-15-1-15-2z m16-35c1-2 5-3 8-3 3 0 6-1 6-2 0-2 2-3 5-3 3 0 5-1 5-2 0-2 2-3 5-3 3 0 5-1 5-2 0-2 3-3 6-3 8 0 29-20 29-26 0-2 1-4 3-4 1 0 2-2 2-5 0-3 1-5 3-5 1 0 2-4 2-10 0-5 1-10 3-10 1 0 2-7 2-15 0-8 1-15 3-15 1 0 2-16 2-42 0-27-1-43-2-43-2 0-3-2-3-4 0-2-2-6-5-9-3-3-5-7-5-9 0-1-1-3-2-3-2 0-3-2-3-5 0-2-1-5-3-6-2-1-2-2 0-3 2-1 3-4 3-7 0-3 1-7 3-8 1 0 2-3 2-6 0-3 1-5 3-5 1 0 2-3 2-7 0-4 1-8 3-8 1 0 2-3 2-7 0-4 1-8 3-8 1 0 2-4 2-10 0-5 1-10 3-10 1 0 2-3 2-7 0-4 1-8 3-8 1 0 2-4 2-8 0-5 1-10 3-11 1 0 2-3 2-6 0-3 1-5 3-5 1 0 2-3 2-7 0-4 1-8 3-8 1 0 2-2 2-5 0-3 1-5 3-5 1 0 2-1 2-3 0-2 4-7 8-11 7-8 7-10 7-27 0-11 1-19 3-19 1 0 2-7 2-15 0-13 0-15-5-15-4 0-5-2-5-17l0-18-9 0c-6 0-11 1-13 3-2 2-4 2-6 0-3-3-17-4-17 0 0 1-2 2-4 2-8 0-11 6-11 19 0 7-1 14-2 15-2 1-3 7-3 14 0 7-1 12-2 12-2 0-3 7-3 15 0 8-1 15-2 15-2 0-3 5-3 10 0 6-1 10-2 10-2 0-3 5-3 10 0 6-1 10-2 10-2 0-3 5-3 10 0 6-1 10-2 10-2 0-3 4-3 8 0 4-1 7-2 7-2 0-3 4-3 9 0 4-1 9-2 10-2 1-3 5-3 9 0 4-1 7-2 7-2 0-3 7-3 15 0 8-1 15-2 15-2 0-3 5-3 11 0 13-5 17-11 11-5-5-5-27-1-32 3-2 3-3 0-4-4-2-4-36 0-36 1 0 2-2 2-5 0-3 1-5 3-5 1 0 2-7 2-15 0-8 1-15 3-15 1 0 2-7 2-15 0-8 1-15 3-15 1 0 2-5 2-12 0-7 1-13 3-13 1 0 2-7 2-17 0-10 1-18 3-18 1 0 2-12 2-30l0-30-10 0c-5 0-10-1-10-2 0-2-3-3-7-3-4 0-8-1-8-2 0-4-30-3-38 0-6 3-7 5-7 16 0 7-1 14-2 15-2 1-3 7-3 15 0 7-1 14-2 15-2 1-3 9-3 17 0 9-1 17-2 18-2 1-3 8-3 16 0 9-1 15-2 15-2 0-3 7-3 15 0 8-1 15-2 15-2 0-3 8-3 18 0 10-1 17-2 17-2 0-3 8-3 18 0 10-1 17-2 17-2 0-3 8-3 18 0 10-1 17-2 17-2 0-3 6-3 13 0 7-1 12-2 12-2 0-3 4-3 9 0 4-1 9-2 10-2 1-3 6-3 11 0 6-1 10-2 10-2 0-3 6-3 14 0 7-1 14-2 15-2 1-3 8-3 16 0 9-1 15-2 15-2 0-3 6-3 13 0 7-1 12-2 12-2 0-3 5-3 11 0 6-1 12-2 13-2 1-3 4-3 7 0 4-1 7-2 8-7 4-1 21 8 21 2 0 4 1 4 3 0 1 8 2 18 2 10 0 17 1 17 3 0 1 5 2 10 2 6 0 10 1 10 3 0 1 6 2 13 2 7 0 12 1 12 3 0 1 2 2 4 2 4 0 16 11 16 15 0 3 5 10 8 10 1 0 3-1 3-2z m326-16c4-5 5-52 1-52-2 0-3-8-3-20 0-18 0-20-5-20-3 0-5-1-5-2 0-2-3-3-6-3-6 0-14-5-14-8 0-1 3-2 7-2 13 0 13-3 13-61 0-33-1-54-2-55-2-1-3-8-3-16 0-8 1-16 3-17 1 0 2-4 2-9 0-4-1-7-2-7-2 0-3-2-3-5 0-3-2-5-5-5-3 0-5-2-5-5 0-2-1-5-3-6-2 0-2-2-1-3 1-1 3-1 3 1 1 2 4 3 6 3 3 0 5 1 5 3 0 1 10 2 25 2 17 0 25 1 26 3 0 2 2 2 5-1 3-3 4-9 4-27l0-24-8-3c-6-3-9-3-12-1-6 4-41 4-44 1-3-7-16 0-16 8 0 2-1 4-2 4-2 0-3 2-3 5 0 3-1 5-2 5-2 0-3 2-3 5 0 3-1 5-2 5-2 0-3 10-3 25 0 14 1 26 3 26 5 4 2 17-5 24l-8 7 0 51 0 50 8 7c7 7 7 8 7 27 0 11-1 21-2 22-2 1-3 13-3 29 0 16 1 27 3 27 1 0 2 4 2 8l0 7 22 0c15 0 22-1 25-3z m103-59l0-48-9 0c-7 0-9-1-10-5-1-2-3-5-6-6-5-1-7-9-2-9 1 0 2 1 2 3 0 1 4 2 8 2l7 0 0-15c0-8 1-15 3-15 1 0 2-18 2-50 0-32 1-50 3-50 1 0 2-8 2-19 0-18 0-19-7-26-4-4-8-9-8-11 0-5 3-5 8 1 2 3 5 5 8 5 2 0 4 1 4 3 0 3 9 3 11-1 1-2 2-2 3 0 1 2 6 3 11 3 6 0 10 1 10 3 0 1 4 2 8 2 5 0 7-1 7-5 0-3 1-5 3-5 1 0 2-9 2-22l0-23-25 0c-15 0-25-1-25-2 0-2-3-3-7-3-4 0-8-1-8-2 0-2-2-3-5-3-3 0-5 2-5 4 0 1-3 6-7 11-4 4-8 9-8 11 0 2-1 4-2 4-2 0-3 14-3 37 0 37-1 43-11 43-3 0-4 4-4 20 0 12-1 20-2 20-2 0-3 11-3 28 0 16-1 27-2 27-8 0 3 17 13 21 5 2 5 5 2 8-2 1-3 9-3 17 0 9-1 17-2 18-2 1-3 17-3 39l0 37 25 0 25 0 0-47z m167 39c4-5 5-31 1-33-2-1-3-4-3-7 0-3-1-7-3-9-4-4-16-4-18 0-1 1-8 2-15 2-12 0-14 0-14-5 0-3-1-5-2-5-2 0-3-7-3-17 0-10 1-18 3-18 1 0 2-5 2-12 0-7 1-13 3-13 4 0 3-22-2-26-3-4-4-3-13 6-6 6-11 10-13 10-5 0-15 12-15 19 0 3-1 6-2 6-2 0-3 7-3 16 0 9-1 17-2 18-4 2-4 59 0 63 2 2 14 3 36 3 20 0 34 1 35 3 2 3 23 3 28-1z m-412-29c0-2 4-3 8-3 4 0 7-1 7-3 0-2 4-7 8-11 4-5 7-10 7-12 0-2 1-4 3-4 1 0 2-3 2-6 0-3 1-7 3-8 1 0 2-4 2-9 0-4 1-7 3-7 1 0 2-7 2-16 0-9 1-17 3-18 1-1 2-15 2-35 0-19 1-34 3-35 1-1 2-19 2-46 0-27-1-45-2-46-2-1-3-6-3-10 0-7-1-9-5-9-3 0-5 2-5 5 0 4-2 5-9 5-6 0-11 2-15 6-5 6-6 8-6 26 0 11-1 21-2 22-2 1-3 18-3 42 0 25-1 42-2 43-2 1-3 13-3 29 0 16-1 27-2 27-2 0-3 6-3 13 0 7-1 12-2 12-2 0-3 3-3 6 0 13-15 9-15-4 0-3-2-7-5-10-5-6-7-18-2-21 1-1 2-15 2-35 0-19 1-34 3-35 1-1 2-17 2-41 0-35 0-40-4-40-4 0-11-6-11-10 0-5-12-15-19-15-6 0-6 1-6 14 0 7-1 14-2 15-2 1-3 9-3 17 0 9-1 17-2 18-2 1-3 11-3 24 0 13-1 22-2 22-2 0-3 12-3 30 0 18 1 30 3 30 1 0 2 6 2 12 0 7 1 14 3 14 1 1 2 6 2 11 0 4 1 8 3 8 1 0 2 2 2 5 0 3 1 5 3 5 1 0 2 2 2 4 0 5 11 16 16 16 2 0 4 1 4 3 0 1 2 2 5 2 3 0 5 1 5 3 0 1 7 2 15 2 8 0 15-1 15-2z m513-3c3-3 7-5 9-5 2 0 3-1 3-2 0-2 2-3 5-3 3 0 5-2 5-5 0-3 1-5 3-5 1 0 2-2 2-5 0-3 1-5 3-5 1 0 2-17 2-47 0-30-1-48-2-48-2 0-3-2-3-4 0-3-2-6-5-8-3-2-5-6-5-8 0-3-1-5-3-6-2 0-2-2 0-6 2-3 3-10 3-15 0-6 1-11 3-12 1 0 2-10 2-21 0-12 1-20 3-20 1 0 2-4 2-10 0-5 1-10 3-10 1 0 2-3 2-7 0-4 1-8 3-8 1 0 2-10 2-24 0-22 0-25-5-28-3-3-5-7-5-13 0-6-1-10-2-10-2 0-3 1-3 3 0 1-3 2-7 2-4 0-8 1-8 3 0 1-2 2-5 2-5 0-5 2-5 24 0 13-1 24-2 25-2 1-3 14-3 31 0 19-1 30-2 30-2 0-3 9-3 23 0 13-1 22-2 22-2 0-3 2-3 5 0 3 1 5 3 5 1 0 2 1 2 3 0 1-2 2-5 2-4 0-5-2-5-12 0-7-1-13-2-13-2 0-3-5-3-12 0-7 1-13 3-13 1 0 2-22 2-60l0-60-22 0-23 0 0 13c0 7-1 12-2 12-2 0-3 34-3 96 0 62-1 97-2 98-2 1-3 20-3 49l0 47 28 0c16 0 27 1 27 3 0 1 2 2 5 2 3 0 5 2 5 5 0 3 2 5 4 5 2 0 6-2 9-5z m-343-25c0-8 1-15 3-15 1 0 2-7 2-15 0-13 0-15-5-15-3 0-5-2-5-5 0-3-1-5-2-5-2 0-3-7-3-17 0-10 1-18 3-18 1 0 2-8 2-20 0-12 1-20 3-20 1 0 2-11 2-27 0-17-1-28-2-28-2 0-3 1-3 3 0 1-2 2-5 2-5 0-5 2-5 73 0 46 1 72 3 72 1 0 2 2 2 5 0 3 1 5 3 5 1 0 2 8 2 20 0 12 1 20 3 20 1 0 2-7 2-15z m240-50c0-16 0-30-1-30-3 0-19 18-19 21 0 2-1 4-2 4-2 0-3 6-3 13 0 7-1 12-2 12-2 0-3 2-3 5 0 5 2 5 15 5l15 0 0-30z m-21-46c3-3 6-9 6-13 0-3 1-6 3-6 1 0 2-2 2-5 0-4-2-5-13-5-7 0-15-1-17-3-2-2-3-2-4 0-1 2-2 3-4 3-1 0-2-21-2-50l0-50 27 0c18 0 28-1 30-3 2-2 3-11 3-25l0-22-20 0c-12 0-20-1-20-2 0-2-2-3-5-3-3 0-5 1-5 3 0 1-3 2-7 2-4 0-8-1-8-2 0-4-19-3-21 0-1 3-2 3-3 0-1-1-5-3-9-3-7 0-7 0-7 13 0 7-1 12-2 12-2 0-3 2-3 5 0 3 1 6 3 6 1 1 2 23 2 57 0 33-1 55-2 56-4 2-3 13 1 18 5 5 14 4 21-4 9-10 15-10 15-1 0 8 19 28 27 28 3 0 9-3 12-6z m26-76l0-28-15 0-15 0 0 22c0 24 2 28 16 28 5 0 9 1 9 3 0 1 1 2 3 2 1 0 2-11 2-27z m-435-43c0-3 1-5 3-5 1 0 2-6 2-13 0-8 1-15 3-16 1 0 2-3 2-6 0-4 2-5 8-5 6 0 7 1 7 8 0 4 1 7 3 7 5 0 17-6 17-8 0-1 2-2 5-2 6 0 10-5 10-13 0-4 1-7 3-7 1 0 2-1 2-2 0-2-5-3-11-3-12 0-19-4-19-11 0-3-3-4-20-4-13 0-20 1-21 3-1 3-2 3-3 0-2-5-6-3-6 4 0 4 2 9 5 11 3 2 5 6 5 10 0 7 0 7-17 7-16 0-18 1-18 5 0 3-1 5-2 5-2 0-3 2-3 5 0 3 2 5 5 5 3 0 5 1 5 3 0 1 2 2 5 2 2 0 6 3 8 7 5 9 9 13 13 13 2 0 4 1 4 3 0 1 1 2 3 2 1 0 2-2 2-5z m180-72c0-2 5-3 10-3 6 0 10 1 10 3 0 1 5 2 12 2 11 0 18-4 18-11 0-2 2-4 5-4 3 0 5-1 5-2 0-2 7-3 17-3 14 0 18 1 21 5 3 4 6 5 23 5 11 0 19-1 19-2 0-2 2-3 5-3 3 0 5-1 5-2 0-2 17-3 45-3 28 0 45 1 45 3 0 3 12 3 17-1 2-2 3-6 3-8 0-2 1-4 3-4 1 0 2-1 2-2 0-5-9-3-12 2-4 5-7 5-33 5-18 0-30-1-30-2 0-2-2-3-4-3-6 0-11-6-11-13 0-4-1-7-2-7-2 0-3-2-3-5 0-3-1-5-2-5-2 0-3 3-3 6 0 8-10 19-16 19-2 0-4 1-4 3 0 1-3 2-7 2-4 0-8 1-8 3 0 1-9 2-22 2-14 0-23-1-23-2 0-2-2-3-4-3-3 0-6-2-8-5-2-3-6-5-8-5-3 0-5-1-5-2 0-2-2-3-5-3-3 0-5-2-5-4 0-3-2-6-5-8-3-2-5-5-5-7 0-2-2-5-4-7-3-4-4-4-7 0-2 2-4 6-4 9 0 3-3 8-7 12-4 4-8 8-8 10 0 4-16 20-20 20-2 0-5 2-7 5-2 3-6 5-8 5-6 0-6 3-2 7 4 4 27 4 27 1z m-55-25c0-2 4-3 9-3 7 0 11-2 22-14 8-7 14-15 14-17 0-1 2-4 5-6 3-2 5-6 5-8 0-3 1-5 3-5 1 0 2-2 2-5 0-3 1-5 3-5 1 0 2-4 2-10 0-5 1-10 3-10 1 0 2-4 2-10 0-5 1-10 3-10 1 0 2-11 2-29 0-30-2-36-11-36-2 0-4-2-4-5 0-3-1-5-2-5-2 0-3-3-3-6 0-9-5-14-17-14-6 0-11-1-12-2 0-2-4-3-9-3-5 0-7 1-7 5 0 3-1 5-2 5-2 0-3 19-3 51 0 32-1 52-2 53-2 1-3 5-3 9 0 5-1 7-5 7-3 0-5-1-5-2 0-2-2-3-5-3-4 0-5 2-5 19-1 17-2 20-5 21-4 0-5-1-5-12 0-7-1-13-2-13-2 0-3-36-3-102 0-92 1-103 4-103 10 0 11-5 11-61 0-34 1-54 3-54 1 0 2-5 2-11 0-6 1-12 3-13 1-1 2-3 2-5 0-6 8-13 10-9 3 10 25-4 25-16 0-3 1-6 3-6 1 0 2-7 2-15 0-16 1-17 7-12 2 3 3 10 3 25 0 13 1 22 3 22 1 0 2 4 2 10 0 5-1 10-2 10-2 0-3 4-3 10 0 6-1 10-2 10-2 0-3 4-3 8 0 4-1 7-2 7-4 0-4 34 0 36 3 1 3 2 0 6-1 3-3 10-3 14 0 9 1 9 9 9 4 0 9 1 10 3 2 3 26 3 26 0 0-2 5-3 10-3l10 0 0-40c0-25-1-40-2-40-2 0-3-8-3-20 0-12-1-20-2-20-2 0-3-3-3-6 0-7-4-16-10-22-3-2-5-5-5-7 0-8-19-35-25-35-2 0-6-3-10-8-4-4-9-7-11-7-2 0-4-1-4-3 0-3-19-3-21 0-1 2-6 3-10 3-5 0-9 1-9 2 0 2-3 3-7 3-4 0-10 4-22 16-9 9-16 18-16 20 0 2-1 4-2 4-2 0-3 4-3 8 0 5-1 10-2 11-2 0-3 3-3 6 0 3-1 5-2 5-2 0-3 4-3 8 0 5-1 10-2 11-2 0-3 5-3 10 0 4-1 9-2 10-2 0-3 9-3 19 0 10-1 17-2 17-2 0-3 7-3 15 0 8-1 15-2 15-2 0-3 4-3 8 0 6-1 7-7 7-4 0-8 1-10 3-4 4-4 41 0 43 3 1 3 2 0 3-4 2-4 46 0 46 1 0 2 15 2 40 0 25 1 40 3 40 1 0 2 2 2 5 0 3 1 5 3 5 1 0 2 9 2 23 0 13 1 22 3 22 1 0 2 2 2 5 0 3 1 5 3 5 1 0 2 4 2 8 0 4 1 7 3 7 1 0 2 2 2 5 0 3 1 5 3 5 1 0 2 2 2 4 0 2 4 7 8 12 4 4 7 8 7 10 0 3 12 14 16 14 2 0 5 2 7 5 3 4 6 5 25 5 13 0 22-1 22-2z m161-26c1-2 2-2 3 0 2 4 16 4 16 1 0-2 2-3 4-3 5 0 16-11 16-16 0-2 1-4 2-4 2 0 8-12 8-17 0-1 1-3 3-3 1 0 2-3 2-7 0-4 1-8 3-8 1 0 2-4 2-10 0-5 1-10 3-10 1 0 2-9 2-21 0-12 1-22 3-23 1-1 2-15 2-34 0-19 1-32 3-32 1 0 2-7 2-17 0-10-1-18-2-19-2-1-3-13-3-27 0-19-1-26-4-28-3-4-4-4-7 0-2 2-4 5-4 7 0 3-2 4-9 4-6 0-11 2-15 6-7 7-7 10-3 17 3 4 3 6 0 10-2 3-3 14-3 31 0 16-1 26-2 26-2 0-3 15-3 40 0 25-1 40-2 40-2 0-3 7-3 16 0 9-1 17-2 18-2 1-3 5-3 10 0 6-2 11-6 15-3 3-7 6-8 6 0 0-1-4-1-9 0-7-1-11-5-13-4-4-5-7-5-33 0-18 1-30 3-30 1 0 2-12 2-31 0-18 1-32 3-33 1 0 2-11 2-24 0-20 0-22-4-22-3 0-7-3-9-7-4-9-13-18-18-18-2 0-4-1-4-2 0-2-1-3-2-3-2 0-3 4-3 8 0 4-1 7-2 7-2 0-3 8-3 18 0 10-1 17-2 17-2 0-3 8-3 19 0 10-1 19-2 20-2 1-3 20-3 49 0 30 1 47 3 47 1 0 2 6 2 13 0 7 1 12 3 12 1 0 2 2 2 5 0 3 1 5 3 5 1 0 2 2 2 4 0 8 15 26 21 26 2 0 4 1 4 3 0 1 2 2 5 2 3 0 5 1 5 3 0 3 9 3 11-1z m136-4c2-3 3-8 3-10 0-1 1-3 3-3 1 0 2-2 2-5 0-3 1-5 3-5 1 0 2-5 2-11 0-6 1-12 3-13 1 0 2-4 2-9 0-4 1-7 3-7 1 0 2-3 2-6 0-3 1-7 3-8 1 0 2-6 2-11 0-7-1-10-4-10-4 0-11 6-11 9 0 4-12 16-15 16-1 0-4-2-6-4-4-3-3-4 5-12 4-5 10-9 11-9 6 0 25-23 25-31 0-2 1-4 3-4 3 0 3 66-1 70-2 2-2 3 0 6 4 3 4 19 1 19-4 0-3 32 1 37 2 2 9 3 20 3l16 0 0-63c0-40 1-65 3-66 1-1 2-26 2-69 0-43 1-67 3-67 4 0 3-52-1-56-5-5-8-5-15-1-4 3-5 3-6 0-2-5-8-3-15 4-5 4-6 7-4 8 2 0 3 4 3 8 0 4 1 7 3 7 1 0 2 13 2 33 0 20-1 32-2 32-2 0-3 2-3 5 0 3-2 5-4 5-5 0-11 6-11 12 0 5-11 18-16 18-1 0-4 2-6 5-2 3-5 5-6 5-3 0-2-37 1-39 3-2 3-32-1-39-6-10-9-12-20-12l-12 0 0 14c0 7-1 14-2 15-2 1-3 15-3 35 0 19-1 34-2 35-2 1-3 21-3 52 0 32-1 52-2 53-2 1-3 15-3 33 0 37 0 37 28 38 15 0 16 0 19-7z m-220-181c2-2 3-8 3-13 0-5 1-9 3-9 1 0 2-8 2-20l0-20-27 0c-17 0-28-1-28-2 0-2-2-3-5-3-3 0-5-1-5-2 0-2-2-3-5-3-2 0-5-1-6-3 0-2-2-2-3-1-1 1-1 3 1 3 4 2 4 16 1 16-2 0-3 2-3 4 0 2-3 7-7 11-7 6-8 9-8 21 0 15 2 17 8 9 3-4 6-5 28-5 14 0 24 1 24 3 0 1 3 2 7 2 7 0 13 5 13 11 0 5 2 5 7 1z m83-67c0-5 1-10 3-10 1 0 2-4 2-9 0-6 2-11 6-15 8-7 9-7 9 1 0 9 6 14 14 10 3-2 6-4 6-5 0-1 4-2 8-2 6 0 7-1 7-7 0-4 1-8 3-8 1 0 2-2 2-5 0-4-2-5-9-5-9 0-16-4-16-10 0-5-13-11-14-7-1 1-10 2-21 2-23 0-25 3-12 15 8 8 9 15 2 15-3 0-5 1-5 3 0 1-3 2-7 2-4 0-8-1-8-2 0-4-7-3-11 1-2 2-4 7-4 12 0 8 1 9 7 9 5 0 8 2 11 7 6 11 13 18 20 18 7 0 7-1 7-10z m137-33c4-5 4-12 1-12-2 0-3-4-3-10 0-8-1-10-5-10-3 0-5-1-5-2 0-2-3-3-7-3-4 0-8 1-8 3 0 1-2 2-4 2-6 0-11 7-11 16 0 7 1 9 5 9 3 0 5 1 5 3 0 1 2 2 5 2 3 0 5 1 5 3 0 3 18 3 22-1z m-572 651c0-34-1-38-12-38-6 0-13 9-13 17 0 2-1 3-2 3-2 0-3 4-3 8 0 6-2 11-5 13-5 5-5 5-5 0 0-3-1-6-2-6-2 0-3-2-3-5 0-2-1-5-2-6-2-1-3-7-3-13 0-9 1-11 5-11 5 0 5-2 5-16 0-9 1-17 3-18 1 0 2-6 2-12 0-6 1-12 3-13 1 0 2-6 2-11 0-5 1-10 3-10 1 0 2-6 2-13 0-16 4-22 15-22 8 0 20 9 20 16 0 2 1 4 3 4 1 0 2 18 2 50 0 32 1 50 3 50 1 0 2 7 2 15 0 8-1 15-2 15-2 0-3 6-3 13 0 7-1 12-2 12-2 0-3 2-3 5 0 3-2 5-5 5-5 0-5-2-5-32z m683-27c-1-2-3-9-3-16 0-7-1-15-3-18-2-3-3-6-4-7-1-2-8 8-8 12 0 3-1 6-2 7-2 1-3 4-3 6 0 3-1 5-2 5-2 0-3-2-3-5 0-3-1-5-2-5-2 0-3-3-3-7 0-4 1-8 3-8 1 0 2-14 2-37l0-38 7 0c4 0 9 3 12 7 6 6 6 9 6 30 0 14 1 23 3 23 1 0 2 4 2 8 0 4 1 7 3 7 1 0 2 8 2 20 0 20-1 23-7 16z" horiz-adv-x="1000" />
<glyph glyph-name="rcskate" unicode="&#xe806;" d="m504 725c-9-5-18-12-19-14-2-3-7-10-12-15-12-13-12-17-4-25 3-3 8-10 11-16 10-19 17-14 20 15 2 15 3 19 10 24 4 3 9 9 12 13 2 5 7 10 11 12 12 6 8 17-7 17-3 0-13-5-22-11z m-144-34c-2-1-9-6-15-11-6-6-12-10-14-10-1 0-8-5-14-11-10-11-12-12-26-12-12 0-15-1-22-9-9-10-10-10-38 0-24 9-54 7-66-5-6-5-7-11-9-55-3-63-3-67 0-117 1-34 3-44 7-49l5-6 15 10c8 5 16 13 19 18 2 4 7 9 11 11 3 1 8 7 11 12 7 12 31 36 37 36 3 0 9-4 14-8 8-8 9-10 6-14-2-3-6-9-8-14-6-12-10-15-24-17-8-2-14-5-18-10-3-4-6-8-8-9-23-21-42-43-46-50-5-14 1-33 13-43 5-4 12-11 15-17 4-5 8-10 10-10 2 0 8-1 14-2 9-3 11-5 14-14 5-18-4-26-19-16-7 5-8 4-19-1-7-4-20-7-28-8-26-3-30-13-9-24 6-3 12-9 14-13 2-4 6-7 8-7 7 0 33-26 39-39 3-6 8-16 12-21 5-9 6-15 6-40 0-17 1-32 2-34 5-7 16-4 22 5 4 5 11 11 17 13 12 5 19 13 27 29 3 8 9 15 15 19 12 7 12 11 2 23-11 12-15 20-15 29 0 11 9 14 34 12 42-4 63 15 28 24-6 2-18 6-25 9-8 3-16 5-19 5-14 0-40 35-32 44 5 7 46 4 61-3 7-4 22-8 36-9 20-3 25-5 30-10 3-4 9-9 13-11 5-3 10-10 12-15 4-8 6-10 23-14 27-7 33-7 35 3 3 15 17 38 26 43 4 3 15 5 25 5 22 0 25-4 25-33 0-32 2-36 26-43 17-5 36-18 36-25 0-7-11-12-30-15-16-2-20-3-26-10-4-5-12-11-16-14-10-6-9-16 1-20 3-2 10-8 14-12 5-6 12-9 20-11 13-2 23-8 23-15 0-2 3-5 6-7 4-2 14-11 23-19 16-16 17-18 20-36 1-11 4-22 5-25 2-3 2-7 0-12-1-5-1-10 0-12 2-4 3-4 8 1 3 3 10 7 15 8 6 1 11 5 15 10 2 5 9 11 14 14 4 3 8 8 8 10 0 2 4 8 8 14 5 8 7 14 6 22 0 12 6 23 14 23 2 0 10 5 16 12 7 7 15 14 18 16 2 2 4 8 4 16 0 17 4 23 15 25 10 2 10 3 12 18 2 19 3 21 11 21 8 0 11-6 11-22 0-8-2-10-10-15-11-7-13-15-7-30 2-6 1-10-2-16-5-10-4-21 3-24 6-2 15 5 17 13 1 3 6 7 12 9 16 4 29 18 35 40 7 23 7 35 0 50-6 15-12 18-21 10-16-15-27-10-27 12 0 17 5 25 18 25 11 0 19 4 30 13 5 5 12 11 15 14 8 6 7 28 0 36-4 3-8 5-9 5-6 0-12 21-12 40 0 22-3 26-24 26-13 0-16-1-19-6-4-9-7-11-21-14-6-2-15-7-20-13-10-11-18-14-25-9-8 6-3 16 11 22 7 3 13 7 13 10 0 3 6 7 16 12 8 4 15 9 15 11 0 8-14 14-35 15-16 1-23 3-26 7-8 8-15 6-28-12-8-10-17-18-22-20-6-2-10-6-12-12-2-7-10-14-15-14-4 0-10 10-10 15 0 4 5 12 11 19 14 15 17 26 10 36-6 9-9 9-25 0-11-7-15-11-19-23-6-16-12-21-19-17-18 11 5 59 30 63 13 3 17 6 17 13 0 6-11 12-30 16-13 2-21-3-21-13 0-5-9-15-14-15-1 0-6-4-11-10-4-5-9-10-11-10-2 0-9-4-14-10-11-10-12-11-18-7-4 2-4 4 1 14 4 10 4 12 0 20-10 20-5 26 21 26 12 0 14 1 27 15 20 22 19 24-16 28-23 3-27 2-29-7-1-3-5-11-10-18l-9-12-11 9c-16 13-16 23 0 30 18 8 19 10 5 28-7 9-14 16-16 15-3 0-6-7-8-16-3-12-6-18-14-24-5-5-10-13-11-17-2-6-4-8-9-8-9 0-12-3-14-15-2-13-6-19-14-19-6 0-10 12-6 22 1 4 6 10 11 12 7 3 7 5 7 15-1 7-2 14-3 17-1 2 3 6 11 10 8 3 13 8 15 13 4 9 11 14 20 14 14 0 9 15-7 24-6 3-13 9-15 12-6 13-8 13-22 7-7-3-13-7-13-8 0-1 5-6 10-12 15-12 12-18-12-21-23-2-26-4-31-17-3-8-6-11-9-10-5 0-7 5-12 27-2 7-6 12-8 13-3 1-14-1-24-4-23-6-31-3-19 6 7 5 8 8 7 17-1 9-2 10-11 13-6 1-12 4-13 6-2 6 6 14 15 16 3 1 9 6 12 10 5 6 10 9 18 11 17 3 23 9 23 26 0 8-2 15-4 17-3 4-56 5-65 2z m231-94c0-8 9-18 16-18 2 0 5-5 6-11 2-9 4-11 12-14 6-2 12-6 14-11 3-5 6-7 10-7 10 1 8 12-1 16-5 3-8 6-8 10 0 7-12 19-19 19-4 0-7 3-8 8-3 11-7 15-15 15-5 0-7-1-7-7z m-168-375c-6-2-7-4-8-19-1-20 2-26 13-20 4 2 12 5 16 7 11 5 13 17 6 27-5 8-13 9-27 5z m-311-11c-5-3-11-9-15-17-5-11-6-15-4-49 2-33 3-38 8-41 2-1 7-7 10-13 2-6 8-13 12-15 5-2 11-7 14-12 6-8 7-8 30-8l24 0 18 17 17 16-2 24c-2 20-3 24-9 29-4 4-9 13-11 22-4 12-7 17-16 22-6 4-12 9-14 13-7 13-45 20-62 12z m423-115c-3-2-8-7-10-11-2-4-7-10-11-14-9-8-14-19-14-34 0-10 2-15 10-23 5-6 11-16 13-23 3-10 13-24 30-42 9-10 60-18 78-14 7 2 16 6 19 9 8 8 2 13-21 17-10 2-20 5-22 7-12 10 6 21 30 18 13-2 17-1 23 3l7 6-7 19c-5 17-9 23-26 39-13 13-23 20-30 22-6 2-14 6-18 10-12 12-37 16-51 11z" horiz-adv-x="1000" />
<glyph glyph-name="shoes" unicode="&#xe807;" d="m1178 819c-92-58-153-102-202-147-27-25-35-31-61-43-26-13-32-15-45-14-15 1-17 0-27-10-7-6-11-12-11-16 0-5-5-9-18-17-10-7-19-11-20-9-1 1-6 3-12 3-8 0-12-2-20-11-6-6-11-12-11-15-1-3-6-8-14-11-12-4-14-5-20-1-3 2-10 4-16 4-9 0-13-2-20-9-6-5-10-12-10-15 0-4-5-7-22-14l-22-9-5 5c-3 4-9 7-16 8-10 2-13 1-23-7-13-10-15-16-11-21 4-5 4-5-15-14l-16-7-8 7c-10 11-26 10-39-1-11-9-13-16-7-22 4-4 5-3-22-14-20-8-24-8-32-6-15 6-22 4-33-7-5-5-9-11-9-13 1-2-7-7-22-12-20-8-24-9-39-7-16 1-18 1-28-6-6-4-12-7-13-7-2 0-28-8-58-18-31-10-67-21-82-25-36-10-58-21-80-43-31-30-60-84-57-104 7-43 62-102 122-129 25-12 185-66 249-84 100-29 176-42 247-42 91 0 191 20 278 55 94 40 169 66 267 96 59 18 89 24 152 32 64 7 97 14 154 30 79 23 123 48 137 79 8 19 25 83 29 109 3 24 1 51-7 110-4 24-8 56-10 72-2 15-4 28-5 28 0 0-9-5-20-11-24-15-49-40-90-89-19-22-35-41-37-43-4-2-9 1-28 16-13 11-25 21-27 23-2 2 3 6 24 18 60 34 92 85 110 174 10 50 0 112-20 132-9 9-10 10-23 8-22-2-30-9-44-33-14-27-23-39-34-45-15-10-46-20-71-23-20-3-23-3-25 0-2 3-12 16-23 31-51 66-67 90-90 137-5 9-10 17-11 18-2 1-19-8-38-21z m-144-441c9-10 34-38 56-62 21-25 62-68 90-96 29-29 52-52 52-53 0-3-43-25-64-34l-19-8-20 20c-40 38-83 83-138 144l-57 62 6 7c10 10 59 37 66 35 3 0 6 0 7 2 2 4 4 2 21-17z m-133-89c17-19 63-67 101-108 39-41 70-76 69-77 0-2-21-10-45-18l-45-14-23 24c-13 13-44 46-70 75-51 56-71 77-76 82-2 1-10 9-17 18-12 14-13 16-8 17 2 1 21 10 42 18 20 9 38 16 39 16 1 0 16-15 33-33z m-168-48c9-9 16-17 16-18 0-1 2-3 5-4 2-1 6-5 8-8 3-4 17-20 33-37 15-16 44-48 64-70 21-22 40-44 45-48l8-9-27-10c-15-6-34-15-42-20l-16-9-33 33c-47 48-88 93-91 99-1 3-4 6-7 7-2 1-7 5-11 10-3 5-16 20-29 34-22 24-24 27-19 31 4 4 71 33 78 34 2 0 10-7 18-15z" horiz-adv-x="1657" />
<glyph glyph-name="smartderby" unicode="&#xe808;" d="m403 832c-53-9-82-19-126-42-27-14-32-17-34-19-1-1-10-7-20-14-41-30-96-85-122-125-16-25-31-49-35-59-36-79-48-135-48-225 0-80 7-120 33-188 35-93 119-191 206-242 20-11 71-35 76-35 2 0 12-3 22-6 65-24 186-23 266 1 58 18 125 58 176 105 28 26 70 79 89 111 11 20 35 71 35 75 0 3 3 12 7 21 24 62 29 194 11 273-21 94-60 165-129 238-28 28-63 57-94 76-13 8-74 37-77 37-2 0-12 3-22 6-59 20-146 25-214 12z m59-86c-6-7-19-41-48-128l-39-119-16 0c-16 0-16 0-36 24-26 31-34 33-56 12-8-8-17-20-19-28l-5-13-57-2c-32-1-59-3-61-4-15-9 26 71 57 112 62 83 147 135 246 150 44 7 44 7 34-4z m91 1c64-12 114-36 169-81 34-28 59-56 84-94 23-35 49-92 36-80-3 3-18 4-52 4-26 1-61 2-79 3l-31 2-21 24c-14 17-22 23-28 23-9 0-29-16-38-30l-5-9-4 12c-1 7-13 41-25 75-12 34-27 80-35 101-7 22-15 43-17 47-5 8-5 8 7 8 7 0 24-3 39-5z m-54-107c40-116 59-169 64-174 5-6 5-7 1-10-6-3-13-2-39 6-26 7-98 5-116-4-10-5-13-5-16-2-3 3-2 4 3 4 3 0 8 2 10 4 2 2 19 52 38 111 35 104 38 113 40 110 0 0 7-21 15-45z m314-179c1-1-2-5-8-10-5-4-16-13-23-19-7-6-19-16-27-22-8-6-16-14-18-18-1-4-4-8-7-8-3 0-4 6-4 21 0 23-11 48-19 48-7 0-7 10 1 11 7 2 103-1 105-3z m-469-40l27-37 0-42c0-46 2-57 13-63 10-5 66-5 100 0 23 4 29 6 37 15 6 6 13 18 16 26l6 16 4-18c6-25 13-31 43-35 14-2 26-5 27-6 1-1 5-14 9-27 4-13 10-35 13-47 4-13 9-31 12-40 2-9 9-32 15-52 5-19 9-36 9-36-1-1-28 18-60 41-114 82-119 85-131 85-11 0-13-1-138-94-27-20-50-36-50-36-2 2 34 129 49 177 3 11 7 29 8 40l2 20-92 72-91 72 28 2c15 1 48 2 73 2l44 1 27-36z m523-68c0-68-1-74-9-105-20-76-52-133-108-193-18-19-22-22-22-15 0 3-5 25-12 47-6 22-13 45-14 50-2 6-12 41-23 79-11 38-20 69-20 71 0 1 4 2 10 2 12 0 29 14 32 28 2 8 17 21 75 68 39 32 74 61 77 65 4 7 4 7 9-8 3-12 5-36 5-89z m-638 1c45-36 83-66 83-67 0-1-8-30-18-64-39-136-46-162-48-178l-2-15-25 25c-60 61-95 127-113 208-9 46-11 114-2 158l5 29 19-16c10-9 55-45 101-80z m453 70c7-4 7-5 6-29-3-27-11-62-16-69-4-4-53-5-76-2-11 2-12 3-14 16-3 23-2 67 2 72 3 5 25 12 46 16 13 3 44 0 52-4z m-180-4c11-4 15-6 16-13 1-10-5-37-14-61-7-18-8-19-24-23-9-2-29-5-45-6l-28-2 0 33c0 18 1 40 3 49 3 15 5 17 16 22 14 5 54 6 76 1z m84-336c63-44 100-69 107-70l10-2-16-10c-24-15-66-35-90-44-28-8-80-16-114-16-30 0-89 10-117 19-22 8-65 29-83 41-12 8-12 9-4 9 5 0 17 6 30 16 11 9 50 37 86 64 36 27 70 52 76 56 5 4 12 7 14 7 3 0 48-31 101-70z" horiz-adv-x="1000" />
<glyph glyph-name="sneakers" unicode="&#xe809;" d="m688 632c-9-11-15-15-21-15-6 0-13-5-20-12-8-8-15-12-20-12-15 0-30-21-30-40 0-9-4-15-19-31-10-10-18-21-18-24 0-8-10-21-16-21-11 0-27-21-27-34 0-13-14-30-25-30-9 0-25-16-25-24 0-6-4-8-30-16-8-3-16-8-18-11-2-4-4-8-5-8 0-1-7-2-15-1-19 1-38-7-42-17-4-10-12-13-35-13-12 0-17-1-24-8-10-10-25-15-48-15-10 0-21-2-25-5-13-9-36-12-98-13l-63 0-19-13c-34-24-46-53-44-107l1-30 16-9c35-19 151-46 244-56 36-4 215-9 490-12 187-3 209-2 236 12l13 7-2 57c-1 48-2 57-7 61-4 3-5 10-5 45 0 31-2 49-7 68-19 72-30 170-30 259 0 45-1 57-5 58-2 1-15 0-29-2-37-6-163-9-163-4 0 2-5 10-12 17-10 12-14 14-26 14-13 0-16-2-27-15z m161-144c65-32 62-125-5-154-16-7-55-7-71 1-68 30-69 125-2 155 22 10 56 9 78-2z m-746-280c24-6 69-15 99-20 31-4 56-9 57-9 0-1-2-15-6-31-3-16-6-34-6-39 0-10 0-10-16-7-81 11-195 42-203 55-2 4 5 41 11 56 4 9 6 11 12 9 4-1 27-7 52-14z m245-38c107-11 349-15 533-9l69 3 0-20 0-20-12-3c-15-2-364 2-476 6-44 1-102 5-128 7l-48 4 2 15c4 23 5 24 18 22 7-1 26-3 42-5z m525-84c61 0 61 0 30-3-27-3-316 1-361 5-8 1 50 1 128 0 77-1 169-2 203-2z" horiz-adv-x="1000" />
<glyph glyph-name="sdlogo" unicode="&#xe80a;" d="m429 834c-159-16-310-134-374-294-26-66-33-105-33-192 0-56 1-73 7-104 36-181 176-331 348-371 62-15 154-15 215 0 149 36 280 158 331 309 37 113 34 250-10 357-47 118-148 222-259 266-67 27-143 37-225 29z m108-77c76-11 135-38 197-92 31-25 53-51 77-88 25-38 39-69 52-114 11-38 11-38 11-111 0-70-1-76-9-107-20-72-45-121-92-175-36-43-74-73-122-96-53-27-105-39-166-39-35 0-93 9-122 20-110 38-203 131-247 245-32 84-32 205-2 293 12 34 35 75 60 110 65 86 150 138 251 153 39 7 69 7 112 1z m-70-16c-4-4-23-57-46-127-43-130-40-125-67-125-12 0-14 2-34 27-13 16-24 26-28 26-14 0-39-30-39-46 0-9-4-9-69-11-45-1-54-2-60-7-6-6-8-16-4-26 1-3 29-26 62-52 32-25 77-60 98-77 22-18 40-32 40-32 1 0-4-17-10-38-6-20-18-62-26-93-9-31-19-68-24-83-9-33-9-47-2-54 13-12 24-7 69 26 101 76 157 116 160 114 4-1 41-27 186-132 9-6 19-10 25-10 11 0 23 9 23 18 0 3-5 23-11 45-7 22-14 47-17 56-2 9-13 47-24 84-10 37-18 68-17 70 0 1 6 2 12 2 14 0 27 10 31 26 3 10 13 19 68 62 80 64 86 70 86 81 0 23-7 24-94 24l-75 0-22 27c-12 14-24 26-27 26-9 0-31-23-35-37-4-13-7-16-11-6-4 11-55 157-68 197-7 22-16 43-19 46-8 9-23 8-31-1z m31-44c19-56 72-209 74-215 2-4 9-5 48-6 43-1 45-2 52-10 3-4 6-8 7-9 0-1-15-2-32-2-31-1-71-9-75-15-3-5-33-3-44 3-9 4-20 5-54 5-41 0-44 0-61-8-9-6-19-10-20-9-3 0-12 9-21 20l-18 21 19 2c10 1 19 3 20 5 2 1 21 57 43 124 22 66 40 123 41 125 4 10 10 0 21-31z m-140-265l29-39 0-44c0-24 2-46 3-50 5-9 28-11 66-7 45 6 51 8 60 27 9 17 20 51 24 70 2 15 10 25 14 18 2-3 3-15 3-27 0-30 6-63 13-71 4-5 12-8 33-11l28-4 35-123c20-67 35-125 36-128 0-3-2-6-4-6-2 0-20 11-39 25-19 14-66 48-104 76l-70 50-88-65c-48-35-95-70-104-77-26-20-27-16-11 42 7 27 18 65 24 85 5 20 15 55 22 79l12 42-7 8c-6 6-77 62-160 127-21 16-38 31-39 34 0 2 7 3 21 4 11 0 43 1 71 3 28 1 63 2 77 2l26-1 29-39z m458 39c9-1 17-3 17-5 0-2-114-96-124-103-7-3-1 35 5 41 4 3 7 11 8 18 2 10 1 13-12 29-8 10-15 19-15 20 0 3 99 2 121 0z m-128-43c8-5 8-6 6-31-3-39-12-71-21-77-11-7-84-5-92 3-4 5-5 14-5 49-1 48 0 49 26 55 37 11 71 11 86 1z m-175-5l13-6-2-20c-3-19-17-66-23-74-4-5-35-10-63-11-42-1-38-4-38 33 0 37 4 64 12 73 3 3 10 7 17 9 17 4 69 2 84-4z" horiz-adv-x="1000" />
<glyph glyph-name="calendar-inv" unicode="&#xe80b;" d="m744 685l167 0 0-782-893 0 0 782 168 0 0-56q0-46 33-79t79-33 78 33 33 79l0 56 112 0 0-56q0-46 33-79t79-33 78 33 33 79l0 56z m-446-669l0 111-112 0 0-111 112 0z m0 223l0 112-112 0 0-112 112 0z m223-223l0 111-112 0 0-111 112 0z m0 223l0 112-112 0 0-112 112 0z m111-223l112 111-112 0 0-111z m112 223l0 112-112 0 0-112 112 0z m-503 391l0 112q0 23 17 39t40 16 40-16 15-39l0-112q0-24-16-40t-39-16q-24 0-40 16t-17 40z m335 0l0 112q0 23 16 39t40 16q23 0 40-16t16-39l0-112q0-24-16-40t-39-16-40 16-17 40z" horiz-adv-x="928" />
<glyph glyph-name="star-circled" unicode="&#xe80c;" d="m0 350q0 207 147 354t353 146 354-146 146-354-146-354-354-146-353 146-147 354z m160 82l205-156-80-246 211 148 209-152-74 246 209 152-258 4-78 246-86-242-258 0z" horiz-adv-x="1000" />
<glyph glyph-name="globe-outline" unicode="&#xe829;" d="m469 819q194 0 331-137t138-332-138-331-331-138-331 138-138 331 138 332 331 137z m0-312q0-44-6-76t-13-47-15-23-12-9l-7-2 0 157q0 42 21 73t58 30q34 0 54 26t24 63q-49 15-104 15-105 0-191-53t-133-143q20-19 58-58t57-58q0 6 1 15t15 23 37 14l0-104 103-105 0-103q49 0 70-1t46-6 32-16 9-30q32 16 44 23t28 20 19 22 9 33 5 45l0 66 51 52-51 52 0-104-53 0q0-21-16-37t-36-16-37 16-15 37 15 37 37 15l0 157q0 21-15 36t-37 15-37-15-15-36z m156-105q0 20 15 36t38 16q21 0 36-15l52-52q15-15 15-37t-15-37l-37-36q-1-113-22-151t-111-83q-10-5-22-5-21 0-36 14t-17 33q-13 4-105 4-21 0-36 16t-15 37l0 82-241 241q-20-57-20-115 0-151 107-258t258-107 258 107 107 258q0 109-58 198t-153 132q-10-55-44-87 46-31 46-86l0-105z" horiz-adv-x="938" />
<glyph glyph-name="globe-1" unicode="&#xe82a;" d="m469 819q194 0 331-137t138-332-138-331-331-138-331 138-138 331 138 332 331 137z m104-105l0 39q-53 14-104 14-94 0-176-39t-140-108l-28-35-19-30 154-153q0 6 1 15t15 23 37 14l0-104 103-105 0-103q49 0 70-1t46-6 32-16 9-30q32 16 44 23t28 20 19 22 9 33 5 45l0 66 51 52-51 52 0-104-53 0q0-21-16-37t-36-16-37 16-15 37 15 37 37 15l0 157q0 21-15 36t-37 15-37-15-15-36q0-44-6-76t-13-47-15-23-12-9l-7-2 0 157q0 42 21 73t58 30 58 31 20 73z" horiz-adv-x="938" />
<glyph glyph-name="globe-alt-outline" unicode="&#xe82b;" d="m346 663q-86 0-147-61t-60-148 60-147 147-60 148 60 61 147-61 148-148 61z m0 104q129 0 221-92t92-221-92-220-221-92-220 92-92 220 92 221 220 92z m313-833q21 0 37-15t15-37-15-37-37-16l-520 0q-21 0-37 16t-16 37 16 37 37 15l207 0 0 51q-193 0-331 138-15 15-15 37t15 37 37 15 37-15q106-106 257-106 153 0 259 106t106 257q0 153-106 259l-37 36 107 107q15 15 37 15t37-15 14-37-15-37l-35-35q102-128 102-293 0-193-137-331-97-96-227-125l0-64 208 0z" horiz-adv-x="815" />
<glyph glyph-name="globe-alt" unicode="&#xe82c;" d="m346-66l0 51q-193 0-331 138-15 15-15 37t15 37 37 15 37-15q106-106 257-106 153 0 259 106t106 257q0 153-106 259l-37 36 107 107q15 15 37 15t37-15 14-37-15-36l-35-36q102-128 102-293 0-193-137-331-97-96-227-125l0-64 208 0q21 0 37-15t15-37-15-37-37-16l-520 0q-21 0-37 16t-16 37 16 37 37 15l207 0z m-312 520q0 129 92 221t220 92 221-92 92-221-92-220-221-92-220 92-92 220z" horiz-adv-x="815" />
<glyph glyph-name="plane-outline" unicode="&#xe833;" d="m963 363q51-29 71-86t-3-111q-24-54-77-80t-111-9l-140 40 0-44 46-36q47-38 57-97t-23-110q-32-51-90-67t-111 11q-26 10-60 10-15 0-31-2t-23-5l-7-3q-54-27-112-11t-90 67q-32 50-22 110t56 97l46 36 0 44-140-40q-57-16-110 9t-76 80-4 111 70 86l260 148 0 250q0 75 54 128t129 54 128-54 53-128l0-250z m-29-156q8 17 2 36t-24 29l-313 179 0 310q0 32-23 55t-54 23-55-23-24-55l0-310-312-179q-17-9-23-28t1-37 25-26 37-4l272 77 0-231-85-68q-16-12-19-33t8-37 30-21 37 4q44 20 108 20 29 0 55-5t39-10l12-5q18-10 38-4t30 21 7 37-19 33l-85 68 0 231 273-77q19-5 37 4t25 26z m-438 566q0 26 26 26 25 0 25-26 0-25-25-25-26 0-26 25z" horiz-adv-x="1043" />
<glyph glyph-name="plane" unicode="&#xe834;" d="m808 272q35-20 24-59t-50-39q-4 0-14 3l-273 77 0-231 85-68q29-25 16-59t-48-35q-10 0-20 4l-111 45-110-45q-18-7-37-1t-28 24q-10 16-7 35t19 32l85 68 0 231-272-77q-19-5-37 3t-26 27-1 36 24 29l312 178 0 310q0 33 23 56t55 23 55-23 23-56l0-310z m-391 476q11 0 18 7t8 19q0 25-26 25-25 0-25-25 0-26 25-26z" horiz-adv-x="834" />
<glyph glyph-name="heart-2" unicode="&#xe838;" d="m464 633q78 108 200 108 102 0 175-73t72-176l0-20-447-513-446 513 0 20q0 102 73 175t175 74q120 0 198-108z" horiz-adv-x="928" />
<glyph glyph-name="heart-empty-1" unicode="&#xe839;" d="m664 629q-26 0-53-15t-41-30l-14-16-92-96-91 96q-6 7-15 17t-38 27-54 17q-50 0-89-34t-46-83l333-383 334 383q-7 50-45 83t-89 34z m0 112q102 0 175-73t72-176l0-20-447-513-446 513 0 20q0 102 73 175t175 74q120 0 198-108 78 108 200 108z" horiz-adv-x="928" />
<glyph glyph-name="star-2" unicode="&#xe83a;" d="m636 250l108-347-280 216-278-216 108 348-276 211 335 0 111 335 112-335 335 0z" horiz-adv-x="928" />
<glyph glyph-name="ok-2" unicode="&#xe83b;" d="m352-10l-334 333 158 160 176-174 400 401 159-160z" horiz-adv-x="928" />
<glyph glyph-name="ok-circle" unicode="&#xe83c;" d="m465 797q184 0 315-131t131-316-131-315-315-132-316 132-131 315 131 316 316 131z m-70-653l348 348-79 79-269-268-126 126-79-78z" horiz-adv-x="928" />
<glyph glyph-name="cancel-2" unicode="&#xe83d;" d="m799 116l-156-157-234 235-235-235-156 157 234 234-234 234 156 157 235-235 234 235 156-157-234-234z" horiz-adv-x="817" />
<glyph glyph-name="cancel-circle" unicode="&#xe83e;" d="m465 797q184 0 315-131t131-316-131-315-315-132-316 132-131 315 131 316 316 131z m220-588l-141 142 141 141-79 79-142-141-141 141-79-79 141-141-141-142 79-79 141 141 142-141z" horiz-adv-x="928" />
<glyph glyph-name="plus-circle" unicode="&#xe83f;" d="m465 797q184 0 315-131t131-316-131-315-315-132-316 132-131 315 131 316 316 131z m223-502l0 112-167 0 0 167-112 0 0-167-168 0 0-112 168 0 0-168 112 0 0 168 167 0z" horiz-adv-x="928" />
<glyph glyph-name="minus-1" unicode="&#xe840;" d="m18 239l0 223 893 0 0-223-893 0z" horiz-adv-x="928" />
<glyph glyph-name="minus-circle" unicode="&#xe841;" d="m465 797q184 0 315-131t131-316-131-315-315-132-316 132-131 315 131 316 316 131z m223-502l0 112-447 0 0-112 447 0z" horiz-adv-x="928" />
<glyph glyph-name="calendar-1" unicode="&#xe845;" d="m911-97l-893 0 0 782 112 0 0-669 669 0 0 669 112 0 0-782z m-725 448l0 111 112 0 0-111-112 0z m223 0l0 111 112 0 0-111-112 0z m223 0l0 111 112 0 0-111-112 0z m-446-224l0 112 112 0 0-112-112 0z m223 0l0 112 112 0 0-112-112 0z m223 0l0 112 112 0z m-391 503l0 112q0 23 17 39t40 16 40-16 15-39l0-112q0-24-16-40t-39-16q-24 0-40 16t-17 40z m335 0l0 112q0 23 16 39t40 16q23 0 40-16t16-39l0-112q0-24-16-40t-39-16-40 16-17 40z" horiz-adv-x="928" />
<glyph glyph-name="block-1" unicode="&#xe846;" d="m465 797q184 0 315-131t131-316-131-315-315-132-316 132-131 315 131 316 316 131z m-1-112q-138 0-236-98t-98-236q0-107 62-194l466 466q-87 62-194 62z m0-669q138 0 237 97t98 238q0 106-62 193l-466-466q87-62 193-62z" horiz-adv-x="928" />
<glyph glyph-name="nohelmet" unicode="&#xe850;" d="m55 801c-17-21-31-40-32-42 0-2 26-26 58-54 32-28 78-68 102-90l43-39-20-20c-38-36-68-88-84-148-8-31-10-45-8-93 2-53 4-61 25-121 12-35 23-68 25-73 1-8-6-20-28-45-24-28-95-116-113-139-3-4 52-55 74-69 4-2 26 20 64 65 32 38 65 76 73 85l14 17 38-8c20-5 41-9 47-10 6-2 21 3 35 10 24 12 24 12 53 5 36-9 59-23 95-54 39-35 55-46 75-53 10-2 18-7 18-9 0-2 4-5 9-6 5-2 9-7 9-12 0-14 13-23 23-16 5 3 17 9 28 15 11 5 20 10 20 13 0 2-5 14-10 28-10 24-10 25-2 41 7 12 7 18 3 26-4 7-4 14 3 29 4 11 7 28 5 44-1 24-1 26 6 18 19-20 115-130 153-175 23-28 44-52 45-54 4-4 85 60 85 66 0 7-156 194-224 268-39 43-41 46-34 54 8 9 43 23 107 45 56 18 96 34 98 39 2 7-40 116-60 158-14 26-30 48-48 67l-29 29 12 9c6 6 43 38 82 71 38 34 76 67 83 74l14 12-29 35c-17 19-33 38-36 41-5 6-14 0-55-33-26-22-76-65-109-94-34-30-65-56-69-59-6-5-15-5-45 1-69 12-191 5-285-16l-21-5-57 51c-71 63-187 161-191 160-1 0-17-17-35-39z m539-617c21-10 38-25 38-31 0-3 8-15 17-27 14-19 16-25 12-30-14-19-24-48-27-77-3-29-4-32-16-34-14-3-37 7-52 24-6 6-14 11-17 11-4 0-13 6-20 13-7 7-13 12-15 12-1 0-10 5-20 12-10 6-24 15-32 19-28 14-28 20-4 65 29 56 35 60 82 56 22-2 44-7 54-13z" horiz-adv-x="991" />
<glyph glyph-name="noskates" unicode="&#xe851;" d="m55 801c-17-21-31-40-32-42 0-2 26-26 58-54 97-83 141-124 141-132 0-4-4-12-9-18-5-6-12-23-15-37-3-13-13-38-22-55-20-41-26-79-20-115 3-16 7-42 9-59 7-49 12-71 25-88 9-14 13-16 26-14l15 2-9-12c-5-6-16-16-24-22-9-5-21-19-26-30-6-12-23-35-39-52-22-25-91-111-110-136-3-4 52-56 74-69 4-2 24 17 57 57 42 50 53 61 61 59 43-13 74-10 92 8 5 5 11 9 13 9 5 0 19 17 28 33 4 6 6 24 6 42 0 30 1 33 11 34 9 2 10 5 10 28 0 32 8 44 27 40 23-4 135-9 143-5 5 2 25 3 46 4 35 2 37 2 46-10 8-10 10-16 7-35-2-21-2-23 7-23 8 0 9-2 9-31 0-28 2-34 17-56 26-38 69-56 105-43l19 6 47-54c25-30 48-58 51-62 5-6 12-2 46 28 23 19 41 35 41 36 0 3-68 88-102 127-13 16-27 39-33 52-8 22-14 30-42 53-18 15-13 22 15 22 12 1 28 3 34 5 8 2 12 1 15-3 2-3 9-6 15-6 18 0 14-18-6-24-9-3-17-9-18-13-2-9 16-46 22-46 2 0 16 4 31 9 33 12 60 28 57 34-2 2 0 4 3 3 8-2 10 11 5 26-4 10-7 12-16 10-17-5-56-6-58-2-3 4 10 19 16 19 3 0 10 31 12 54 1 11 9 17 21 17 30 0 34 3 34 34 0 40-10 53-46 57-15 2-34 1-43-1-9-3-15-3-16 0-1 3-13 7-27 9-41 6-60 12-75 23-8 5-17 10-21 10-4 0-17 7-29 15-13 8-27 14-32 15-4 0-7 2-6 3 3 5-25 28-32 28-4 1 2 7 11 16 9 8 45 41 80 74 35 32 96 87 134 120 39 34 77 67 84 74l14 12-29 35c-17 19-33 38-36 41-5 6-13 2-46-26-69-57-136-115-217-189l-78-72-19 27c-35 50-61 81-65 78-2-2-2-1 0 2 1 2-3 11-9 19-11 13-11 13-20 4-15-13-31-48-28-62 3-15-2-18-39-16-34 1-26-4-117 77-67 60-190 164-194 163-1 0-17-17-35-39z" horiz-adv-x="991" />
<glyph glyph-name="coffee-1" unicode="&#xe8e8;" d="m678-15l-625 0q-22 0-37 16t-16 37 16 36 37 16l625 0q21 0 36-16t15-36-15-37-36-16z m25 730q75 0 128-54t54-128-54-129-128-54l-25 0 0-104q0-43-32-74t-73-31l-417 0q-42 0-73 31t-30 74l0 469 650 0z m-130-469l0 364-417 0 0-364 417 0z m130 208q32 0 55 23t23 56q0 31-23 54t-55 23l-78 0 0-156 78 0z" horiz-adv-x="885" />
<glyph glyph-name="beer-1" unicode="&#xe8e9;" d="m260 115q0-10-7-17t-18-8-18 8-8 17l0 313q0 10 8 18t18 8 18-8 7-18l0-313z m105 0q0-10-8-17t-18-8-18 8-8 17l0 313q0 10 8 18t18 8 18-8 8-18l0-313z m104 0q0-10-8-17t-18-8-19 8-8 17l0 313q0 10 8 18t19 8 18-8 8-18l0-313z m234 548q75 0 128-54t54-129l0-260q0-75-54-128t-128-54l-25 0q0-65-46-111t-111-46l-365 0q-65 0-110 46t-46 111l0 677q0 43 30 73t74 31l469 0q43 0 74-31t31-73l0-52 25 0z m-599 52l0-78q0-32 23-55t56-23q45 0 67 40l9 16 19-3q17-3 34 6t23 27l6 18 232 0 0 52-469 0z m469-677l0 572-197 0q-31-51-90-51-40-52-103-52-45 0-79 26l0-495q0-21 15-37t37-16l365 0q22 0 37 16t15 37z m208 182l0 260q0 33-23 56t-55 23l-78 0 0-417 78 0q32 0 55 23t23 55z" horiz-adv-x="885" />
<glyph glyph-name="wine" unicode="&#xe8ea;" d="m580 484q0-106-68-187t-171-98q0-1 1-2t1-3l0-209 51 0q21 0 37-15t15-36-15-37-37-16l-208 0q-21 0-37 16t-15 37 15 36 37 15l52 0 0 209q0 1 0 3t1 2q-103 18-171 98t-68 187q0 59 13 133t22 115 14 50q5 16 19 26t31 11l382 0q18 0 32-11t18-26q4-9 14-50t23-115 12-133z m-290-186q69 0 121 44t62 112l-365 0q10-67 61-112t121-44z m-185 209l370 0q-5 98-34 208l-302 0q-29-110-34-208z" horiz-adv-x="580" />
<glyph glyph-name="giraffe" unicode="&#xe8eb;" d="m600 825c-100-150-189-250-300-350-106-95-300-63-300-200l0-50c0-50 50-98 50-150l0-50c0-75-25-75-50-150l50 0 100 150 0-150 50 0 0 250s0 50 50 50 50-50 50-50l0-250 50 0 0 225 50-75 50-150 50 0-77 314c30 18 27 51 27 86 0 47 0 100 0 150l200 275 72-22c15-5 28-3 28 10 0 25-16 30-25 37z" horiz-adv-x="750" />
<glyph glyph-name="garden" unicode="&#xe8ec;" d="m165 750c-13 0-15-28-15-50l0-100c0-102 100-153 200-150l0-400c-50 100-200 250-350 200 0 0 125-300 375-300s375 300 375 300c-150 50-300-100-350-200l0 400c100-3 200 48 200 150l0 100c0 22-2 50-15 50-10 0-21-11-35-25l-75-75-75 84c-8 9-12 16-25 16-13 0-17-7-25-16l-75-84-75 75c-14 14-25 25-35 25z" horiz-adv-x="750" />
<glyph glyph-name="fuel" unicode="&#xe8ed;" d="m50 800c-28 0-50-22-50-50l0-800c0-25 25-50 50-50l450 0c25 0 50 25 50 50l0 250 25 0c25 0 25-25 25-25l0-100c0-50 25-75 75-75s75 25 75 75c0 58 0 225 0 275 0 50-100 100-100 150l0 150-50 0-50 50 0 50c0 28-22 50-50 50z m50-100l350 0 0-200-350 0z m450-150l50 0s0-42 0-75c0-50 100-100 100-150l0-250c0-25-25-25-25-25s-25 0-25 25c0 0 0 100 0 125 0 25-25 50-50 50-17 0-50 0-50 0z" horiz-adv-x="750" />
<glyph glyph-name="fire-station" unicode="&#xe8ee;" d="m425 775l-175-250-100 150c-33-58-150-200-150-350 0-221 204-400 425-400 221 0 425 179 425 400 0 150-117 292-150 350l-100-150z m0-400s175-134 175-250c0-50-75-100-175-100s-175 50-175 100c0 112 175 250 175 250z" horiz-adv-x="850" />
<glyph glyph-name="art-gallery" unicode="&#xe8ef;" d="m400 725c-250 0-400-200-400-300s50-175 150-175 150-25 150-100c0-100 75-175 175-175 325 0 475 175 475 350 0 300-250 400-550 400z m-62-100c34 0 62-28 62-62 0-35-28-63-62-63-35 0-63 28-63 63 0 34 28 62 63 62z m200 0c34 0 62-28 62-62 0-35-28-63-62-63-35 0-63 28-63 63 0 34 28 62 63 62z m200-100c34 0 62-28 62-62 0-35-28-63-62-63-35 0-63 28-63 63 0 34 28 62 63 62z m-575-50c34 0 62-28 62-62 0-35-28-63-62-63-35 0-63 28-63 63 0 34 28 62 63 62z m312-250c41 0 75-34 75-75s-34-75-75-75-75 34-75 75 34 75 75 75z" horiz-adv-x="950" />
<glyph glyph-name="bicycle-1" unicode="&#xe8f0;" d="m625 700l-25-50 100-37 0-113-350 0 0 50 50 0 0 25c0 12-13 25-25 25l-125 0c-25 0-25-25-25-25l0-25 75 0 0-50-53-106c-15 3-31 6-47 6-110 0-200-89-200-200s90-200 200-200 200 90 200 200c0 0 50 0 75 0s25 25 25 25c5 74 43 131 92 169 34 26 71 42 108 50l0-52c-86-22-150-99-150-192 0-110 90-200 200-200s200 90 200 200c0 91-62 167-145 191l-55 109 0 125c0 15-12 31-25 36z m-275-250l225 0c-50-25-125-150-125-200l-58 0c-12 49-41 90-83 117z m-150-125c69 0 125-56 125-125s-56-125-125-125-125 56-125 125 56 125 125 125z m550 0c69 0 125-56 125-125s-56-125-125-125-125 56-125 125 56 125 125 125z" horiz-adv-x="950" />
<glyph glyph-name="cafe" unicode="&#xe8f1;" d="m150 700c-28 0-50-22-50-50l0-450c0-28 22-50 50-50l550 0c28 0 50 22 50 50l0 50 25 0c25 0 25 25 25 25l0 25 50 0c50 0 100 50 100 100l0 150c0 25-25 50-50 50l-150 0 0 50c0 28-22 50-50 50z m600-150l125 0c25 0 25-25 25-25l0-125c0-25-25-50-50-50l-100 0z m-750-450l75-75c12-12 25-25 50-25 208 0 600 0 600 0 25 0 38 13 50 25l75 75z" horiz-adv-x="950" />
<glyph glyph-name="toilet" unicode="&#xe8f2;" d="m475 850c-14 0-25-11-25-25l0-950c0-14 11-25 25-25 14 0 25 11 25 25l0 950c0 14-11 25-25 25z m-275-50c-55 0-100-45-100-100s45-100 100-100c55 0 100 45 100 100s-45 100-100 100z m525 0c-55 0-100-45-100-100s45-100 100-100c55 0 100 45 100 100s-45 100-100 100z m-600-250l-124-375c-5-13 11-25 25-25l74 0 0-225c0-14 11-25 25-25 14 0 25 11 25 25l0 225 100 0 0-225c0-14 11-25 25-25 14 0 25 11 25 25l0 225 75 0c14 0 30 12 25 25l-125 375z m525 0c-28 0-50-22-50-50l0-575c0-14 11-25 25-25 14 0 25 11 25 25l0 275 150 0 0-275c0-14 11-25 25-25 14 0 25 11 25 25l0 575c0 28-22 50-50 50z" horiz-adv-x="850" />
<glyph glyph-name="theatre" unicode="&#xe8f3;" d="m50 800c-24 0-50-25-50-50l0-350c0-111 50-250 250-250 18 0 34 1 50 3l0 147-200 0s25 100 150 100c25 0 35-4 50-9l0 109c0 46 18 84 50 100 50 25 70 15 100 0 50-25 50-25 50-25l0 175c0 25-26 50-50 50-50 0-100-50-200-50-100 0-150 50-200 50z m88-175c34 0 62-28 62-62 0-35-28-63-62-63-35 0-63 28-63 63 0 34 28 62 63 62z m262-75c-24 0-50-25-50-50l0-350c0-111 50-250 250-250 200 0 250 139 250 250l0 350c0 25-26 50-50 50-50 0-100-50-200-50-100 0-150 50-200 50z m88-175c34 0 62-28 62-62 0-35-28-63-62-63-35 0-63 28-63 63 0 34 28 62 63 62z m225 0c34 0 62-28 62-62 0-35-28-63-62-63-35 0-63 28-63 63 0 34 28 62 63 62z m-263-275l300 0s-25-100-150-100-150 100-150 100z" horiz-adv-x="850" />
<glyph glyph-name="school" unicode="&#xe8f4;" d="m638 800c-49 0-88-39-88-87s39-88 88-88 87 39 87 88-39 87-87 87z m-400-100c-49 0-88-39-88-87s39-88 88-88 87 39 87 88-39 87-87 87z m462-100c-19 0-49-7-75-25l-162-116c-45-31-4-86 37-59l106 70s70-150 44-220c-1-2-2-4-2-6l-109-291c-12-33 12-53 36-53 16 0 31 10 39 28l136 322s25-150 125-150c60 0 104 0 138 0 37 0 37 38 37 38s0 37-37 37c-25 0-88 0-113 0-53 0-50 80-50 125 0 75-50 200-50 200l150-100c45-30 85 23 41 56l-166 119c-30 22-40 25-75 25 0 0-25 0-50 0z m-525-100c-25 0-37-12-50-25l-106-106c-14-14-19-26-19-44 0-25 38-37 59-16l91 91c50 0 69-125 50-175l-75-200c-21-55 57-72 75-25l75 200s25-50 75-50l150 0c50 0 50 75 0 75l-125 0c-25 0-25 50-25 75 0 100-50 200-100 200z" horiz-adv-x="1050" />
<glyph glyph-name="restaurant" unicode="&#xe8f5;" d="m50 800c-25 0-50-25-50-50l0-250c0-50 50-50 50-100l0-450c0-25 25-50 50-50l50 0c25 0 50 25 50 50l0 450c0 50 50 50 50 100l0 250c0 25-25 50-50 50-12 0-12-15-12-25l0-200c0-10 0-25-13-25s-12 15-12 25l0 200c0 10 0 25-13 25l-50 0c-12 0-12-15-12-25l0-200c0-10 0-25-13-25s-12 15-12 25l0 200c0 10 0 25-13 25z m500 0c-50 0-143-12-175-75-25-50-25-175-25-225l0-200c0-25 25-50 50-50l0-300c0-25 25-50 50-50l50 0c25 0 50 25 50 50z" horiz-adv-x="550" />
<glyph glyph-name="ok-3" unicode="&#xe8fa;" d="m875 588l-535-600-340 338 123 124 196-195 420 457z" horiz-adv-x="875" />
<glyph glyph-name="cancel-3" unicode="&#xe8fb;" d="m123 654l181-181 181 181 123-124-182-178 183-184-124-121-181 182-181-182-123 122 183 183-182 178z" horiz-adv-x="609" />
<glyph glyph-name="cancel-circle-1" unicode="&#xe8fc;" d="m406 755c227 0 405-180 405-404 0-226-178-406-405-406-225 0-406 180-406 406 0 224 181 404 406 404z m84-404l125 125-85 84-124-125-126 126-84-85 127-125-127-125 84-85 126 127 124-125 85 83z" horiz-adv-x="811" />
<glyph glyph-name="plus-1" unicode="&#xe8fd;" d="m408 443l228 0 0-173-228 0 0-231-179 0 0 231-229 0 0 173 229 0 0 219 179 0 0-219z" horiz-adv-x="636" />
<glyph glyph-name="tag-1" unicode="&#xe904;" d="m665 541l-10-233-242-420c-11-20-36-27-55-16l-336 195c-20 11-28 36-17 56l243 420 197 124 95-54c7 18 5 19 9 36 9 39 18 108 95 167 26 22 66 22 103 3 20-8 37-23 50-40 12-18 18-38 20-57-2-24-13-56-65-81-42-19-77-24-109-28-29-4-51-6-70-19z m-10 258c-70-53-80-115-86-152 0-6-1-10-2-15-2-6 0-10-3-18 23 15 46 17 76 19 30 4 65 9 103 26 35 15 52 38 54 63 0 29-22 59-53 76-1 1-4 3-6 4-30 15-60 15-83-3z m-218-400c42-23 97-10 121 33 20 34 14 75-10 102l-43 27c-37 12-80-4-101-40-24-43-10-97 33-122z" horiz-adv-x="816" />
<glyph glyph-name="basket-1" unicode="&#xe905;" d="m139 76c45 0 79-35 79-79 0-43-34-78-79-78-43 0-78 35-78 78 0 44 35 79 78 79z m530 0c44 0 77-35 77-79 0-43-33-78-77-78s-79 35-79 78c0 44 35 79 79 79z m-478 588l565 0c38 0 55-22 55-50l0-233c0-27-20-48-46-50l-505-57c-41-5-46-58 3-58l478 0c55 0 55-82 0-82l-488 0c-110 0-152 122-65 185l43 33-155 339-76 0c-59 0-59 90 0 90l89 0c45 0 57-22 71-54z m345-70l-130 0 27-85 123 0z m-312 0l39-85 126 0-28 85-137 0z m109-241l100 10-33 101-119 0z m143 15l113 11-25 85-119 0z m267 29l0 67-133 0 20-78z m0 112l0 85-162 0 19-85 143 0z" horiz-adv-x="811" />
<glyph glyph-name="basket-alt" unicode="&#xe906;" d="m359 59c0-46-38-84-84-84s-84 38-84 84 38 84 84 84 84-38 84-84z m405 0c0-46-38-84-84-84-45 0-82 38-82 84s37 84 82 84c46 0 83-38 84-84z m-6 525c27-1 48-23 48-50l0-281c0-29-22-52-51-52l-477 0c-24 0-45 19-49 43l-89 317s-15 58-41 65c-41 12-99-11-99 55 0 43 39 43 39 43 1 0 9 1 19 1 60 0 131-22 158-102z m-42-168l0 82-113 8 0-90 113 0z m-278 0l125 0 0 93-125 9 0-102z m125-28l-125 0 0-97 125 0 0 97z m-165 132l-160 10 37-114 123 0 0 104z m-113-132l30-97 83 0 0 97-113 0z m318-97l113 0 0 97-113 0 0-97z" horiz-adv-x="806" />
<glyph glyph-name="bullhorn" unicode="&#xe909;" d="m251 420c9 0 16 9 16 18s-7 16-16 16l-100 0c-9 0-18-7-18-16s9-18 18-18l100 0z m0-72c9 0 16 9 16 17s-7 17-16 17l-100 0c-9 0-18-8-18-17s9-17 18-17l100 0z m210-14c119 0 211-42 290-121l0 376c-78-82-171-126-290-126l0-129z m497 220l-33 34 137 136 34-32z m25-175l0 48 230 0 0-48-230 0z m-58-171l33 34 138-138-34-32z m-128 516c20 0 36-15 36-34l0-577c0-19-16-34-36-34s-35 15-35 34c-59 72-162 165-317 165l-64 0 140-236-85-62c-21-11-44 3-56 18l-174 280-94 0s-87 47-87 122 87 118 87 118l333 0c155 0 258 96 317 172 0 19 15 34 35 34z" horiz-adv-x="1213" />
<glyph glyph-name="dollar" unicode="&#xe90a;" d="m0 343c374 0 558 432 931 434 64-139 130-279 195-419-373 0-531-403-931-434-65 140-130 279-195 419z m120-66c43-92 85-182 128-273 106 20 196 73 282 136-49 19-85 59-106 104-24 53-28 110-20 168-86-63-176-117-284-135z m886 147c-43 91-85 183-127 273-106-20-198-73-284-138 50-17 85-59 106-102 24-53 29-110 20-168 87 64 178 116 285 135z m-657-305c-6 13-11 24-18 36-2-1-6-2-10-2 2-14 4-26 7-40 7 1 15 2 21 6z m27 23c4 6 8 13 12 21-14 4-27 7-39 12-1-3-4-7-5-10 10-7 21-16 32-23z m-83-23c5 13 8 24 13 35-3 1-7 4-8 5-9-10-18-19-27-29 7-5 14-10 22-11z m96 80c-1 8-3 15-5 23l-1 0c-12-8-23-14-35-20l0-2c2-2 2-6 2-10 15 3 26 5 39 9z m-139-41c14 5 25 9 38 15-2 4-3 5-3 9-14-2-29-2-42-2 1-7 3-15 7-22z m88 55c7 11 16 22 23 34-6 5-12 8-18 10-5-13-10-25-14-39 2-1 6-4 9-5z m-52-16c3 2 4 6 5 10-10 7-20 16-31 25-6-7-9-12-11-20 12-5 26-10 37-15z m28 22c-1 14-4 26-5 40-8-1-15-4-23-6 4-8 5-11 9-19-4 8-5 11-9 19 7-13 12-25 18-38 4 3 6 3 10 4z m480 236c-14 33-29 63-44 94-7-4-12-6-19-11 15-31 28-63 43-94 7 5 11 8 20 11z m87 43c-13 30-30 61-43 92-8-2-12-5-20-8 15-30 30-62 43-92 9 3 13 4 20 8z m-43-20c-15 32-30 62-45 94-8-4-12-7-19-10 15-30 30-62 44-93 7 3 11 5 20 9z" horiz-adv-x="1126" />
<glyph glyph-name="money" unicode="&#xe90b;" d="m238 378c13 16 35 21 65 24l0-85c-50 5-75 9-75 39 0 7 2 15 10 22z m107-241l0 91c59-5 78-9 78-35 0-30-24-49-78-56z m70 244c30-17 36-24 36-38l8-4 45 90-6 5c-7-5-10-7-14-7s-8 0-13 4c-61 23-90 35-126 35l0 17c0 9 5 15 20 19l0 9-79 0 0-9c14-4 17-11 17-19l0-15c-97-4-153-50-153-122 0-74 40-100 153-110l0-97c-78 8-117 38-117 64l-7 4-41-94 6-4c6 4 9 5 12 5 2 0 7 0 9-2 48-24 94-38 138-40l0-19c0-10-3-16-17-20l0-9 79 0 0 9c-15 4-20 9-20 20l0 19c96 5 159 54 159 126 0 70-53 106-149 115l-10 0 0 88c23-2 46-8 70-20z m41 181c117-50 198-165 198-300 0-181-146-328-326-328-182 0-328 147-328 328 0 135 81 250 198 300l-82 179c0 17 12 25 28 25l366 0c16 0 28-7 28-25z" horiz-adv-x="654" />
<glyph glyph-name="star-4" unicode="&#xe91d;" d="m2 460q11 37 101 37h225l69 207v1q19 56 44 75t49 0 43-75l1-1 68-207h226q58 0 85-17t14-47-59-63l-5-4-176-126 67-207 2-2q27-85-4-109t-105 29l-3 2-2 1-177 127-179-128-2-2q-73-52-105-29t-4 109l1 1v2l68 206-177 126-2 2-2 2q-73 52-61 90z" horiz-adv-x="931.2" />
<glyph glyph-name="star-empty-1" unicode="&#xe91e;" d="m3 436q-12 31 16 50t91 18h242l74 222v1q14 45 33 68t40 23q20 0 39-23t33-68l1-1 73-222h242q63 0 91-18t16-50-64-68l-5-4-190-135 74-221 1-3q19-60 11-91t-40-32q-37 0-88 38l-2 2-3 1-189 136-192-137-3-2q-52-39-88-39-31 0-40 32t11 92l1 3 74 221-190 135-2 3-3 1q-51 37-64 68z m165-26l203-145-21-65-57-173 206 147 205-147-57 173-21 65 203 145h-251l-21 65-58 175-80-240h-251z" horiz-adv-x="997.6" />
<glyph glyph-name="star-half-1" unicode="&#xe91f;" d="m3 450q-12 30 16 47t87 18h233l70 213 0 2q15 43 33 66t39 21v-727l-186-135-3-2q-49-35-82-36t-40 29 10 89l1 1 0 1 70 214-182 129-2 3-3 1q-49 35-61 65z" horiz-adv-x="481" />
<glyph glyph-name="star-half_empty" unicode="&#xe920;" d="m3 436q-12 31 16 50t91 18h242l73 222 1 1q14 45 33 68t40 23v-168l-80-240h-251l203-145-21-65-57-173 206 147v-115l-192-137-3-2q-52-39-88-39-32 0-40 32t11 92l1 3 73 221-189 135-3 3-3 1q-51 37-63 68z" horiz-adv-x="498.5" />
<glyph glyph-name="bar" unicode="&#xe930;" d="m50 775c-25 0-50 0-50-12 0-13 17-28 25-38l325-391 0-309-150-50c-25-8-50-25-50-50l550 0c0 25-25 42-50 50l-150 50 0 309 325 391c8 10 25 25 25 38 0 12-25 12-50 12z" horiz-adv-x="850" />
<glyph glyph-name="airport" unicode="&#xe931;" d="m850 275l0-50-350 50 0-200 100-100c0-25-25-50-50-50-100 0-250 0-250 0-25 0-50 25-50 50l100 100 0 200-350-50 0 50 350 200s0 17 0 100c0 50 25 200 75 200s75-150 75-200c0-83 0-100 0-100z" horiz-adv-x="850" />
<glyph glyph-name="beer-2" unicode="&#xe932;" d="m0 775l100-800c3-25 25-50 50-50l450 0c25 0 47 25 50 50l100 800z m113-100l525 0-24-200-478 0z" horiz-adv-x="750" />
<glyph glyph-name="belowground-rail" unicode="&#xe933;" d="m50 775l275-150 275 150z m100-200l-150-100 0-500c0-25 25-50 50-50l550 0c25 0 50 25 50 50l0 500-150 100z m50-100l250 0 100-50 0-100-450 0 0 100z m-50-350c28 0 50-22 50-50 0-28-22-50-50-50-28 0-50 22-50 50s22 50 50 50z m350 0c28 0 50-22 50-50 0-28-22-50-50-50-28 0-50 22-50 50s22 50 50 50z" horiz-adv-x="650" />
<glyph glyph-name="bus-1" unicode="&#xe934;" d="m150 775l0-50-100 0c-25 0-50-25-50-50l0-650 50 0 0-100 100 0 0 100 350 0 0-100 100 0 0 100 50 0 0 650c0 25-25 50-50 50l-100 0 0 50z m-50-150l450 0 0-250-450 0 0 100z m50-400c28 0 50-22 50-50 0-28-22-50-50-50-28 0-50 22-50 50 0 28 22 50 50 50z m350 0c28 0 50-22 50-50 0-28-22-50-50-50-28 0-50 22-50 50 0 28 22 50 50 50z" horiz-adv-x="650" />
<glyph glyph-name="college" unicode="&#xe935;" d="m475 700l-475-250 475-250 275 139s0-126 0-189c0-100 100-100 100-100l0 50s-50 3-50 50c0 75 0 217 0 217l150 83z m-225-450l0-100c0-25 16-58 50-75l175-75 150 75c34 17 77 50 75 75l0 100-225-109z" horiz-adv-x="950" />
<glyph glyph-name="embassy" unicode="&#xe936;" d="m50 825c-28 0-50-22-50-50l0-850c0-25 25-50 50-50 25 0 50 25 50 50l0 513c17 7 34 12 50 12 100 0 248-125 350-125 44 0 106 17 150 50l0 350c-50-37-100-75-150-75-100 0-250 125-350 125-17 0-33-3-50-6l0 6c0 28-22 50-50 50z" horiz-adv-x="650" />
<glyph glyph-name="minefield" unicode="&#xe937;" d="m425 725l-125-350-300 200 100-325c23-74 50-75 100-75l100 0 0 50 250 0 0-50 100 0c50 0 75 22 100 75l100 325-300-200-125 350z m-75-550l0-50c-111 0-200-33-200-75s89-75 200-75l150 0c111 0 200 34 200 75s-89 75-200 75l0 50-150 0z" horiz-adv-x="850" />
<glyph glyph-name="lodging" unicode="&#xe938;" d="m100 675c-55 0-100-45-100-100 0-55 45-100 100-100s100 45 100 100c0 55-45 100-100 100z m150-100c0-83-67-150-150-150l-75 0c-13 0-25 0-25-25 0-7 0-31 0-50 0-25 19-25 25-25l825 0 0 100c0 50 0 150-250 150l-350 0z m-200-300c-25 0-50-25-50-50 0-49 0-107 0-150 0-25 25-50 50-50s50 25 50 50l0 100 650 0 0-100c0-25 25-50 50-50s50 25 50 50l0 150c0 25-25 50-50 50l-750 0z" horiz-adv-x="850" />
<glyph glyph-name="library" unicode="&#xe939;" d="m0 700l0-500c150-150 350-100 350-200l50 0 0 450c0 150-250 150-400 250z m850 0c-150-100-400-100-400-250l0-450 50 0c0 100 200 50 350 200z" horiz-adv-x="850" />
<glyph glyph-name="industrial-building" unicode="&#xe93a;" d="m600 675c0-67 0-200 0-200l-150 0 0 150-200-150 0 150-200-150c-22-17-50-25-50-75l0-375c0-28 22-50 50-50l750 0c28 0 50 22 50 50l0 400c0 28-22 50-50 50l-100 0s0 133 0 200c0 25-26 50-50 50-24 0-50-25-50-50z" horiz-adv-x="850" />
<glyph glyph-name="grocery-store" unicode="&#xe93b;" d="m800 750c-29 0-55-8-73-27-19-18-27-44-27-73l-700 0 100-450 600 0 0-50-550 0c-50 0-50-50 0-50l550 0c25 0 50 25 50 50l0 500s4 33 11 39c7 7 18 11 39 11 6 0 15 0 20 0 25 0 30 12 30 25 0 12-5 25-30 25-6 0-13 0-20 0z m-175-650c-41 0-75-34-75-75s34-75 75-75 75 34 75 75-34 75-75 75z m-400 0c-41 0-75-34-75-75s34-75 75-75 75 34 75 75-34 75-75 75z" horiz-adv-x="850" />
<glyph glyph-name="ferry" unicode="&#xe93c;" d="m300 850c-28 0-50-22-50-50l-100 0c-28 0-50-22-50-50l0-303-100-47 100-200 0-100 159-47c6-2 11-3 16-3 5 0 11 2 16 3l134 47 134-47c6-2 11-3 16-3 5 0 11 2 16 3l159 47 0 100 100 200-100 47 0 303c0 28-22 50-50 50l-100 0c0 28-22 50-50 50l-250 0z m-100-150l450 0 0-206-175 81-50 25-50-25-175-81 0 206z m-100-700c-5 0-12-2-16-3l-84-28 0-102 100 33 159-47c6-2 11-3 16-3 5 0 11 2 16 3l134 47 134-47c6-2 11-3 16-3 5 0 11 1 16 3l159 47 100-33 0 102-84 28c-5 1-11 3-16 3s-10-2-16-3l-159-47-134 47c-6 2-11 3-16 3s-11-2-16-3l-134-47-159 47c-7 2-11 3-16 3z" horiz-adv-x="850" />
<glyph glyph-name="fast-food" unicode="&#xe93d;" d="m350 675c-150 0-300-75-300-200l0-100 850 0 0 100c0 125-150 200-300 200z m25-50c14 0 25-11 25-25 0-14-11-25-25-25-14 0-25 11-25 25 0 14 11 25 25 25z m200 0c14 0 25-11 25-25 0-14-11-25-25-25-14 0-25 11-25 25 0 14 11 25 25 25z m-300-100c14 0 25-11 25-25 0-14-11-25-25-25-14 0-25 11-25 25 0 14 11 25 25 25z m200 0c14 0 25-11 25-25 0-14-11-25-25-25-14 0-25 11-25 25 0 14 11 25 25 25z m200 0c14 0 25-11 25-25 0-14-11-25-25-25-14 0-25 11-25 25 0 14 11 25 25 25z m-625-200c-25 0-50-25-50-50 0-25 25-50 50-50l850 0c25 0 50 25 50 50 0 25-25 50-50 50z m0-150l0-50c0-50 50-100 100-100l650 0c50 0 100 50 100 100l0 50z" horiz-adv-x="950" />
<glyph glyph-name="pitch" unicode="&#xe93e;" d="m300 825c-55 0-100-45-100-100s45-100 100-100c55 0 100 45 100 100s-45 100-100 100z m-287-200l25-100c12-50 42-50 79-50l83 0c30-50 16-124 25-200l-45 0c-50 0-130-50-80-150l75-150c50-100 125-25 100 25l-75 150c-12 25 13 25 25 25l123 0s60-131 129-221c26-34 55-79 90-79 25 0 68 39 23 93-86 102-140 207-140 257 0 58-10 181-25 250l75 0c24-49 63-125 63-125 27-48 87-44 87 0 0 6 0 19-7 34l-80 166c-6 11-13 25-50 25l-388 0-37 125c-15 50-88 50-88 0 0-25 9-55 13-75z" horiz-adv-x="650" />
<glyph glyph-name="rail" unicode="&#xe93f;" d="m150 675l-150-100 0-500c0-25 25-50 50-50l550 0c25 0 50 25 50 50l0 500-150 100z m50-100l250 0 100-50 0-100-450 0 0 100z m-50-350c28 0 50-22 50-50s-22-50-50-50c-28 0-50 22-50 50 0 28 22 50 50 50z m350 0c28 0 50-22 50-50s-22-50-50-50c-28 0-50 22-50 50 0 28 22 50 50 50z" horiz-adv-x="650" />
<glyph glyph-name="glass-1" unicode="&#xe940;" d="m0 811l1000 0-420-420 0-412 156 0 0-90-470 0 0 90 154 0 0 412z" horiz-adv-x="1000" />
<glyph glyph-name="megaphone" unicode="&#xe94b;" d="m0 344l0 123q2 35 26 60t58 24l270 0q138 8 272 65t229 152q36-2 59-26t23-58l0-199q28-8 45-30t18-50q-2-30-19-51t-44-27l0-201q-1-36-26-59t-56-24q-207 184-449 211-66-33-53-127t77-142q-28-47-96-52t-105 30q-16 45-25 76t-16 71-7 78 10 72l-107 0q-35 2-60 27t-24 57z m438-10q240-44 419-183l0 508q-203-151-419-182l0-143z" horiz-adv-x="1000" />
<glyph glyph-name="clipboard" unicode="&#xe94c;" d="m0-150l0 904 225 0 0-64-161 0 0-774 579 0 0 774-161 0 0 64 225 0 0-904-707 0z m129 129l0 31 31 0 0-31-31 0z m0 121l0 31 31 0 0-31-31 0z m0 121l0 31 31 0 0-31-31 0z m0 121l0 32 31 0 0-32-31 0z m0 121l0 32 31 0 0-32-31 0z m0 96l0 94 129 0 0 97q0 41 27 71t69 29 69-30 28-70q0-56-2-97l129 0 0-94-449 0z m96-582l0 33 353 0 0-33-353 0z m0 121l0 33 353 0 0-33-353 0z m0 121l0 33 353 0 0-33-353 0z m0 121l0 34 353 0 0-34-353 0z m0 121l0 34 353 0 0-34-353 0z m97 260q0-14 9-22t23-9 22 9 9 22-9 24-22 9-23-9-9-24z" horiz-adv-x="707" />
<glyph glyph-name="gift-1" unicode="&#xe94d;" d="m0 290l0 250 357 0-158 126 190 125 70-212 121 271 190-187-194-123 326 0 0-250-62 0 0-440-777 0 0 440-63 0z m63 62l326 0 0 125-326 0 0-125z m62-439l264 0 0 396-264 0 0-396z m154 750l139-112-55 166z m215-122l201 127-99 100z m20-628l263 0 0 396-263 0 0-396z m0 439l326 0 0 125-326 0 0-125z" horiz-adv-x="902" />
<glyph glyph-name="glasses" unicode="&#xe94e;" d="m0 386q-2 13 8 25l360 186q29 11 41-16 11-33-14-45l-227-104 658 0-228 104q-25 16-14 45 14 27 43 16l362-186q11-12 9-25l-27-256q-8-30-33-30l-313 0q-25 2-31 26l-49 223q-39 25-92 1l-50-224q-6-26-32-26l-312 0q-27 2-31 30z m67-30l19-189 260 0 43 189-322 0z m543 0l41-189 259 0 20 189-320 0z" horiz-adv-x="999" />
<glyph glyph-name="asl" unicode="&#xe94f;" d="m1 700q-4 37 15 53t45 5 35-38l53-184q-15-29-14-64 6-30 36-204 7-52 32-82t65-29q47 0 74 37 34-39 83-37t74 41q27-37 71-41t73 27q12 16 20 32t11 37 5 33 1 40l0 38q26-10 61 24 49 45 109 78t98 8q33-24 31-59t-35-55q-61-25-104-82t-67-112-58-117-78-93q-21-18-66-18l-350 0q-84 6-105 118z m181-234q-6 45 21 65t56 8 37-48l21-209q4-41-17-63t-46-15-37 45z m155 70q2 41 32 56t62-1 36-49l8-248q0-59-28-76t-57 4-30 62z m175 4q4 43 37 55t62-7 30-52l-6-254q-5-47-34-66t-54 1-29 67z" horiz-adv-x="979" />
<glyph glyph-name="person" unicode="&#xe950;" d="m0 238l0 275q0 71 47 96 17 8 41 8l207 0q23 0 43-8 59-29 59-96l0-275q-4-31-31-28t-28 28l0 262q-2 9-18 7t-15-7l0-600q-4-27-26-36t-42 4-20 34l0 365q-4 18-22 15t-17-15l0-365q-2-29-25-38t-42 3-21 33l0 600q-4 9-18 7t-15-7l0-262q-4-31-31-28t-26 28z m102 505q0 40 28 68t68 28 69-28 28-68-28-68-69-29-68 29-28 68z" horiz-adv-x="396" />
<glyph glyph-name="adult" unicode="&#xe951;" d="m0-132l0 289q0 103 60 177t157 75l330 0q101-2 158-76t57-176l0-289q0-18-18-18l-105 0q-16 0-16 18l0 252q-6 27-27 24t-22-24l0-252q-2-18-19-18l-352 0q-17 0-17 18l0 252q-4 27-26 24t-23-24l0-252q0-18-18-18l-101 0q-18 0-18 18z m186 783q0 82 59 140t140 59q86-4 142-60t59-139q-2-84-61-143t-140-58q-84 2-142 60t-57 141z" horiz-adv-x="762" />
<glyph glyph-name="child-1" unicode="&#xe952;" d="m0-134l0 345q-2 92 45 143t129 53l314 0q90 0 130-56t42-140l0-345q-2-16-13-16l-90 0q-16 2-16 16l0 308q-4 28-25 25t-24-25l0-308q0-16-13-16l-293 0q-14 0-14 16l0 308q-4 28-25 25t-24-25l0-308q0-16-14-16l-93 0q-14 2-16 16z m129 778q0 85 61 146t144 60 145-60 60-146-60-145-145-59-144 59-61 145z m88-34q0-47 34-81t82-34 82 34 34 81l-232 0z" horiz-adv-x="660" />
<glyph glyph-name="blind" unicode="&#xe953;" d="m5-94q-12 24 5 51l129 166 51 184 0 150-27-37-10-107q-4-26-25-34t-37 5-14 37l13 115q0 9 6 17l104 141q19 31 56 35t65-21l113-143 111-23q22-4 30-30t-22-37l356-488q5-10-4-15t-16 3l-381 502-103 20q-14 4-22 13l-43 55 0-158 112-127q5-6 7-18l55-244q4-27-17-44t-48-10-34 37l-49 232-92 104-41-145q-6-14-8-18l-135-173q-21-20-47-19t-38 24z m179 835q0 40 28 69t69 28 68-28 28-69-28-68-68-28-69 28-28 68z" horiz-adv-x="911" />
<glyph glyph-name="guidedog" unicode="&#xe954;" d="m5 537q-14 29 12 42 13 6 26 2t18-13q20-31 58-51t69-20l315 0q-31-156-27-296-18 0-50 5t-48 6q-27 4-20-23l45-178q-2-49-39-55-15 0-31 11t-20 23l-56 222q-2 12-13 12t-15-12l-52-220q-10-36-43-36-22 0-35 18t-10 37l64 262 4 160q-45 12-89 39t-63 65z m394 164q-11 21 8 33 22 12 33-6l112-176q11-23-6-35-24-10-35 8z m90-690l39 160q2 8-2 16 2 185 26 293 78-102 211-129-4-12-13-34t-13-32q-4-14 4-41 29-114 61-231 4-29-16-41t-43-6-29 24l-45 172q-10 17-27 18t-24-18l-41-170q-10-26-33-28t-41 14-14 33z m96 508l135 139 23 86 53-63q6-2 26-6t31-8 24-12 18-21 12-45 14-41q12-11 25-21t33-33q18-36-48-71-28 2-52 6t-42 6q-24 4-41 8-4-10-7-22t-9-23q-58 12-113 44t-82 77z" horiz-adv-x="983" />
<glyph glyph-name="accessibility" unicode="&#xe955;" d="m0 188q2 109 63 193 64 86 162 125 43 10 56-25 6-18-1-33t-24-20q-78-33-123-95-45-69-47-145 4-107 78-180 82-74 186-74 86 2 152 47 70 49 98 121 5 16 9 31 12 41 51 32 41-12 33-49-5-24-13-41-39-104-127-164-96-61-203-61-145 4-246 100-102 101-104 238z m264 562q2 43 30 72t69 28q43-2 72-30t28-70q-2-43-31-71t-69-28q-43 2-71 30t-28 69z m47-209l2 0q-8 36 21 65 23 21 59 21 27 0 46-15 10-8 17-16t11-19 5-18 4-23 4-22l166 0q32-2 42-31 3-24-10-39t-37-14l-143 0 22-105 181 0q47-2 65-39l162-284q15-33-10-58-22-20-48-15t-38 30l-141 245q-48 1-144 0t-109 0q-59 3-69 54z" horiz-adv-x="934" />
<glyph glyph-name="universal-access" unicode="&#xe956;" d="m0 350q0 207 147 354t353 146 354-146 146-354-146-354-354-146-353 146-147 354z m66 0q0-180 127-307t307-127 307 127 127 307-127 307-307 127-307-127-127-307z m163 2q-20 27 2 47l167 146q12 8 22 11t25 3l110 0q15 0 25-3t22-11q9-7 71-62t97-84q21-22 1-47-21-24-46-4-20 18-63 54t-64 57q0-2-3 0t-7 4-6 2q-6 0-6-13l0-58t4-67q2-22 2-26l49-271q4-41-33-49-18-4-33 7t-16 26q-39 221-39 225-6 23-10 23-4-2-6-5t-2-7-1-7l-1-4q0-2-10-59t-19-111l-10-55q-6-18-18-26t-31-7q-39 10-33 49l49 273q6 37 6 147 0 15-6 15t-16-8l-127-109q-27-20-46 4z m199 300q0 30 21 52t52 21 52-21 21-52-21-52-52-21-52 21-21 52z" horiz-adv-x="1000" />
<glyph glyph-name="crown" unicode="&#xe959;" d="m419 822c-39 0-71-32-71-72 0-40 32-72 71-72 39 0 74 32 74 72 0 40-35 72-74 72z m-48-222c-40-119-101-152-101-152s-52 146-109 232c-23-52-47-86-96-100-1-44 51-208 55-290l601 0c2 79 55 256 55 288-38 16-85 51-96 102-63-86-109-232-109-232s-61 33-101 152c-27-13-77-13-99 0z m-297 222c-40 0-74-32-74-72 0-40 34-72 74-72 39 0 70 32 70 72 0 40-31 72-70 72z m47-603l0-119 600 0c0 43 0 81 0 119z m644 603c-40 0-72-32-72-72 0-40 32-72 72-72 40 0 72 32 72 72 0 40-32 72-72 72z" horiz-adv-x="837" />
</font>
</defs>
</svg>
