<?xml version="1.0" standalone="no"?>
<!DOCTYPE svg PUBLIC "-//W3C//DTD SVG 20010904//EN"
 "http://www.w3.org/TR/2001/REC-SVG-20010904/DTD/svg10.dtd">
<svg version="1.0" xmlns="http://www.w3.org/2000/svg"
 width="183.000000pt" height="173.000000pt" viewBox="0 0 183.000000 173.000000"
 preserveAspectRatio="xMidYMid meet">
<metadata>
Created by potrace 1.13, written by Peter Selinger 2001-2015
</metadata>
<g transform="translate(0.000000,173.000000) scale(0.100000,-0.100000)"
fill="#000000" stroke="none">
<path d="M711 1660 c-160 -25 -273 -54 -337 -86 -206 -104 -344 -339 -344
-584 0 -119 16 -192 74 -349 25 -69 46 -141 46 -160 0 -32 6 -40 48 -68 27
-18 54 -33 61 -33 7 0 43 -9 79 -19 158 -45 173 -46 231 -17 52 27 52 27 114
11 75 -19 124 -47 200 -114 84 -74 118 -97 160 -111 20 -6 37 -15 37 -20 0 -4
9 -10 20 -13 11 -3 20 -14 20 -25 0 -29 27 -49 48 -34 10 6 36 20 60 31 23 11
42 23 42 28 0 4 -10 31 -22 60 -21 51 -21 53 -3 86 14 27 15 38 6 55 -9 16 -8
30 5 61 19 49 16 106 -15 252 l-23 107 69 65 c70 68 97 82 273 140 118 39 204
74 207 84 5 14 -82 243 -123 325 -20 40 -52 92 -71 116 -72 89 -201 164 -348
203 -117 31 -348 35 -514 9z m339 -981 c43 -23 80 -54 80 -67 0 -6 16 -32 36
-58 30 -39 34 -51 25 -63 -29 -39 -51 -102 -57 -163 -6 -61 -9 -67 -33 -71
-31 -6 -80 15 -112 49 -12 13 -29 24 -36 24 -8 0 -26 12 -41 27 -15 15 -29 27
-32 27 -3 -1 -22 10 -42 24 -21 13 -52 32 -69 41 -58 29 -59 42 -9 137 63 119
75 128 175 119 47 -4 94 -15 115 -26z"/>
</g>
</svg>
