<?xml version="1.0" standalone="no"?>
<!DOCTYPE svg PUBLIC "-//W3C//DTD SVG 20010904//EN"
 "http://www.w3.org/TR/2001/REC-SVG-20010904/DTD/svg10.dtd">
<svg version="1.0" xmlns="http://www.w3.org/2000/svg"
 width="300.000000pt" height="300.000000pt" viewBox="0 0 300.000000 300.000000"
 preserveAspectRatio="xMidYMid meet">
<metadata>
Created by potrace 1.13, written by Peter Selinger 2001-2015
</metadata>
<g transform="translate(0.000000,300.000000) scale(0.100000,-0.100000)"
fill="#000000" stroke="none">
<path d="M1180 2979 c-291 -61 -539 -196 -750 -408 -177 -178 -294 -369 -368
-601 -54 -170 -65 -264 -60 -497 5 -191 8 -217 36 -325 115 -442 404 -798 807
-997 229 -113 398 -151 677 -151 205 0 314 15 468 66 108 35 302 135 394 202
43 31 86 62 95 67 21 14 172 165 186 186 5 9 36 52 67 95 72 99 167 290 206
414 54 172 65 264 60 497 -5 191 -8 217 -36 325 -153 586 -620 1024 -1211
1133 -127 23 -447 20 -571 -6z m537 -238 c261 -51 480 -168 669 -356 248 -247
374 -550 374 -901 0 -219 -40 -386 -136 -574 -45 -87 -133 -223 -141 -217 -1
1 -142 141 -312 312 -227 226 -311 315 -311 332 0 13 6 23 15 23 7 0 18 6 22
13 5 6 35 38 68 69 46 44 77 63 130 83 38 14 78 25 87 25 10 0 18 5 18 10 0 6
6 10 13 9 6 -1 19 0 27 4 8 3 35 12 60 21 174 59 203 73 194 94 -4 9 -26 71
-48 137 -51 148 -130 305 -185 367 -51 57 -162 141 -223 167 -25 11 -74 27
-109 36 -35 9 -74 22 -86 28 -13 6 -26 7 -30 4 -3 -4 -13 -1 -21 6 -20 16
-414 16 -492 -1 -30 -6 -107 -21 -170 -32 -63 -12 -146 -31 -183 -44 l-68 -23
-77 79 c-42 44 -78 83 -80 88 -4 12 110 86 206 134 93 47 227 92 328 110 120
22 343 20 461 -3z m-1105 -486 l73 -74 -45 -63 c-55 -76 -115 -204 -135 -290
-25 -108 -15 -359 18 -438 6 -14 11 -27 12 -30 1 -3 4 -12 8 -20 3 -8 20 -58
37 -110 18 -52 36 -99 41 -105 5 -5 9 -29 10 -55 0 -43 3 -47 52 -82 28 -21
60 -38 71 -38 19 0 111 -25 151 -40 11 -5 47 -14 81 -20 59 -12 62 -11 119 19
77 41 104 37 261 -36 17 -8 63 -42 101 -77 101 -90 134 -114 187 -132 25 -9
46 -19 46 -24 0 -4 11 -11 25 -14 17 -4 25 -13 25 -29 0 -50 32 -62 79 -30 18
13 39 23 46 23 6 0 20 9 30 20 18 20 18 22 -8 74 -32 64 -32 66 -6 110 19 33
19 36 3 61 -12 19 -14 29 -6 37 8 8 45 -24 134 -118 68 -71 154 -162 193 -202
l70 -74 -29 -23 c-90 -72 -286 -163 -433 -202 -136 -35 -377 -44 -520 -18
-266 48 -496 168 -689 360 -248 247 -374 550 -374 901 0 219 40 386 136 574
44 87 146 240 159 240 2 0 37 -34 77 -75z m913 -954 c11 -14 75 -84 143 -155
101 -105 122 -133 117 -150 -14 -46 -24 -103 -25 -143 0 -35 -4 -43 -18 -43
-10 0 -24 -6 -31 -12 -11 -10 -14 -10 -18 0 -3 6 -10 12 -18 12 -7 0 -35 18
-63 40 -27 22 -54 40 -60 40 -6 0 -24 14 -41 31 -17 17 -31 26 -31 20 0 -7
-23 7 -52 29 -28 23 -65 47 -82 55 -56 25 -66 39 -57 71 18 62 92 193 121 216
39 31 86 26 115 -11z"/>
</g>
</svg>
