<?xml version="1.0" standalone="no"?>
<!DOCTYPE svg PUBLIC "-//W3C//DTD SVG 20010904//EN"
 "http://www.w3.org/TR/2001/REC-SVG-20010904/DTD/svg10.dtd">
<svg version="1.0" xmlns="http://www.w3.org/2000/svg"
 width="210.000000pt" height="212.000000pt" viewBox="0 0 210.000000 212.000000"
 preserveAspectRatio="xMidYMid meet">
<metadata>
Created by potrace 1.13, written by Peter Selinger 2001-2015
</metadata>
<g transform="translate(0.000000,212.000000) scale(0.100000,-0.100000)"
fill="#000000" stroke="none">
<path d="M117 2017 c-37 -45 -67 -86 -68 -90 0 -5 55 -56 123 -114 68 -59 165
-144 216 -191 l92 -84 -43 -42 c-80 -76 -144 -187 -178 -313 -18 -66 -21 -96
-17 -198 4 -112 8 -129 52 -255 26 -74 50 -145 53 -156 3 -16 -12 -41 -59 -95
-51 -59 -202 -245 -239 -295 -7 -8 110 -117 157 -146 8 -5 55 43 135 138 68
80 138 161 155 180 l30 36 80 -17 c43 -10 88 -20 100 -22 12 -3 45 7 73 22 52
26 52 26 114 10 75 -19 124 -47 200 -114 84 -74 118 -97 160 -111 20 -6 37
-15 37 -20 0 -4 9 -10 20 -13 11 -3 20 -14 20 -25 0 -29 27 -49 48 -34 10 6
36 20 60 31 23 11 42 23 42 28 0 4 -10 31 -22 60 -21 51 -21 53 -3 86 14 27
15 38 6 55 -9 16 -8 30 5 61 10 25 15 61 12 95 -3 51 -2 54 13 38 40 -43 243
-277 324 -372 48 -58 92 -109 96 -114 7 -8 179 128 179 141 0 14 -331 410
-474 566 -84 92 -88 98 -72 116 17 18 91 49 226 94 118 39 204 74 207 84 5 15
-83 245 -127 334 -29 56 -62 102 -102 143 l-60 60 24 20 c14 12 92 80 174 151
81 72 161 142 177 156 l30 25 -63 75 c-35 41 -69 80 -76 88 -10 11 -30 -1
-116 -71 -56 -47 -161 -137 -232 -199 -71 -63 -136 -119 -145 -126 -13 -10
-33 -9 -96 2 -146 26 -404 12 -604 -34 l-44 -9 -121 107 c-151 134 -397 341
-405 340 -3 0 -36 -37 -74 -82z m1143 -1308 c43 -23 80 -54 80 -67 0 -6 16
-32 36 -58 30 -39 34 -51 25 -63 -29 -39 -51 -102 -57 -163 -6 -61 -9 -67 -33
-71 -31 -6 -80 15 -112 49 -12 13 -29 24 -36 24 -8 0 -26 12 -41 27 -15 15
-29 27 -32 27 -3 -1 -22 10 -42 24 -21 13 -52 32 -69 41 -58 29 -59 42 -9 137
63 119 75 128 175 119 47 -4 94 -15 115 -26z"/>
</g>
</svg>
