<?xml version="1.0" standalone="no"?>
<!DOCTYPE svg PUBLIC "-//W3C//DTD SVG 20010904//EN"
 "http://www.w3.org/TR/2001/REC-SVG-20010904/DTD/svg10.dtd">
<svg version="1.0" xmlns="http://www.w3.org/2000/svg"
 width="210.000000pt" height="212.000000pt" viewBox="0 0 210.000000 212.000000"
 preserveAspectRatio="xMidYMid meet">
<metadata>
Created by potrace 1.13, written by Peter Selinger 2001-2015
</metadata>
<g transform="translate(0.000000,212.000000) scale(0.100000,-0.100000)"
fill="#000000" stroke="none">
<path d="M117 2017 c-37 -45 -67 -86 -68 -90 0 -5 55 -56 123 -114 205 -177
298 -264 298 -280 0 -8 -9 -26 -19 -39 -10 -13 -25 -48 -31 -77 -7 -28 -28
-82 -46 -118 -43 -86 -57 -166 -43 -244 5 -33 14 -89 19 -125 14 -104 26 -149
52 -185 20 -30 28 -34 56 -31 l32 5 -19 -25 c-11 -14 -34 -35 -52 -47 -18 -12
-43 -41 -55 -65 -13 -24 -49 -73 -82 -110 -46 -53 -193 -234 -233 -288 -7 -8
110 -118 157 -146 8 -5 50 37 121 122 88 106 112 129 128 124 91 -27 157 -22
196 17 10 10 23 19 27 19 10 0 41 36 60 69 8 13 13 52 13 91 0 63 2 69 22 72
20 3 22 9 22 59 0 68 17 93 57 85 48 -10 286 -19 304 -12 10 4 53 8 96 10 75
4 79 3 99 -23 17 -21 20 -34 15 -74 -6 -43 -5 -47 14 -47 18 0 20 -6 20 -67 0
-60 3 -72 36 -119 55 -80 146 -117 222 -91 l41 14 98 -115 c54 -64 103 -123
109 -131 10 -13 25 -4 98 58 47 40 86 75 86 78 0 5 -145 186 -215 268 -28 33
-59 82 -70 110 -18 47 -30 64 -90 112 -38 32 -28 48 31 48 27 1 60 5 73 9 16
6 26 4 32 -5 4 -7 18 -14 31 -14 39 0 30 -38 -12 -51 -19 -6 -36 -19 -38 -27
-4 -18 34 -97 47 -97 4 0 34 9 65 20 70 24 128 58 120 71 -3 5 0 8 7 7 17 -4
22 23 10 55 -8 21 -15 25 -33 20 -37 -10 -118 -12 -123 -3 -6 9 21 40 34 40 7
0 21 65 26 115 2 22 18 35 43 35 65 0 72 7 72 72 0 86 -21 113 -97 122 -32 3
-72 2 -90 -3 -20 -6 -33 -6 -35 0 -2 6 -28 14 -58 19 -86 13 -126 26 -158 49
-17 11 -36 21 -44 21 -8 0 -36 14 -63 31 -26 17 -56 31 -66 32 -10 1 -16 4
-13 8 5 9 -53 59 -69 59 -7 1 4 15 24 33 20 18 96 88 170 157 74 69 202 184
284 255 82 72 162 142 178 156 l30 25 -63 75 c-35 41 -69 80 -76 88 -11 12
-26 3 -96 -55 -147 -121 -289 -245 -460 -402 l-167 -152 -40 57 c-73 105 -129
172 -137 165 -4 -4 -5 -2 -1 4 3 5 -5 23 -18 40 -23 28 -23 29 -44 10 -30 -28
-64 -103 -58 -132 6 -33 -5 -38 -82 -35 -74 3 -57 -8 -250 164 -141 127 -402
347 -410 346 -3 0 -36 -37 -74 -82z"/>
</g>
</svg>
