<?xml version="1.0" standalone="no"?>
<!DOCTYPE svg PUBLIC "-//W3C//DTD SVG 20010904//EN"
 "http://www.w3.org/TR/2001/REC-SVG-20010904/DTD/svg10.dtd">
<svg version="1.0" xmlns="http://www.w3.org/2000/svg"
 width="500.000000pt" height="500.000000pt" viewBox="0 0 500.000000 500.000000"
 preserveAspectRatio="xMidYMid meet">
<metadata>
Created by potrace 1.13, written by Peter Selinger 2001-2015
</metadata>
<g transform="translate(0.000000,500.000000) scale(0.100000,-0.100000)"
fill="#000000" stroke="none">
<path d="M2330 4989 c-291 -13 -600 -88 -881 -214 -667 -300 -1171 -887 -1363
-1589 -69 -251 -80 -340 -81 -656 0 -268 2 -294 27 -435 28 -154 93 -375 155
-525 186 -452 523 -860 938 -1137 287 -192 583 -313 930 -382 158 -31 285 -42
498 -42 390 1 714 78 1083 257 141 68 331 190 460 294 120 96 354 337 411 421
28 41 71 101 97 133 25 33 46 65 46 72 0 7 14 37 31 65 131 223 234 511 290
809 21 112 23 155 24 410 0 268 -2 294 -27 435 -28 154 -93 375 -155 525 -186
452 -523 860 -938 1137 -369 247 -815 399 -1225 418 -63 3 -126 7 -140 8 -14
2 -95 0 -180 -4z m505 -403 c604 -108 1116 -446 1448 -956 413 -637 458 -1436
117 -2110 -65 -128 -48 -127 -196 -20 -179 129 -170 120 -177 196 -10 124
-103 257 -222 314 -51 25 -57 31 -45 49 6 10 20 12 53 7 43 -7 47 -5 70 26 67
89 95 159 111 283 9 66 16 131 15 145 -1 14 8 71 20 127 42 202 22 371 -66
542 -36 69 -62 135 -73 187 -20 89 -38 132 -74 181 -15 20 -26 54 -31 90 -12
102 22 93 -374 93 -191 0 -382 3 -423 6 l-75 7 -5 61 c-7 79 -45 161 -108 229
-59 63 -63 62 -138 -44 -58 -81 -176 -238 -290 -385 -55 -70 -79 -94 -96 -94
-38 0 -81 -19 -96 -43 -8 -12 -17 -44 -20 -72 -5 -46 -8 -51 -48 -74 -27 -14
-55 -41 -72 -70 -26 -41 -79 -81 -109 -81 -15 0 -996 750 -999 764 -2 7 32 46
75 86 343 322 734 509 1188 569 44 6 94 13 110 15 84 12 395 -4 530 -28z
m-1686 -1295 c404 -307 438 -336 418 -346 -12 -6 -40 -23 -62 -38 -22 -15 -64
-31 -93 -37 -28 -5 -67 -17 -84 -27 -40 -21 -119 -30 -348 -41 -184 -9 -216
-17 -261 -65 -40 -42 -54 -80 -55 -147 0 -36 -4 -86 -8 -111 l-8 -47 70 -16
c39 -9 89 -16 111 -16 22 0 43 -4 46 -10 3 -5 10 -36 16 -69 5 -32 16 -72 24
-87 10 -20 13 -43 9 -72 -6 -40 -5 -43 25 -53 53 -19 33 -59 -30 -59 -21 0
-66 9 -101 20 -34 11 -68 20 -74 20 -18 0 -44 -69 -44 -119 0 -46 3 -52 47
-91 85 -74 280 -155 360 -148 36 3 39 5 66 72 16 37 29 86 30 109 2 45 11 38
-120 88 -18 7 -21 13 -14 31 7 20 14 23 49 20 37 -3 42 -1 48 22 7 31 11 31
65 10 31 -13 59 -15 118 -11 42 3 82 2 89 -2 20 -12 -5 -57 -44 -82 -18 -11
-56 -46 -86 -77 -83 -90 -121 -219 -99 -337 59 -320 441 -455 679 -240 97 88
150 227 139 365 l-5 65 39 -3 39 -4 0 44 c0 24 -7 53 -15 65 -18 25 -14 52 21
131 l23 53 48 -6 c173 -20 251 -25 436 -25 l209 0 198 -152 199 -152 -5 -41
c-8 -54 10 -152 36 -209 27 -56 100 -139 151 -172 100 -63 243 -81 349 -44
l55 19 32 -22 c102 -72 233 -179 233 -191 0 -31 -242 -239 -385 -331 -267
-172 -514 -266 -850 -322 -173 -29 -475 -24 -665 10 -612 110 -1120 445 -1453
957 -433 667 -460 1521 -69 2198 20 34 42 61 49 60 7 -2 210 -153 452 -337z"/>
</g>
</svg>
