<?xml version="1.0" standalone="no"?>
<!DOCTYPE svg PUBLIC "-//W3C//DTD SVG 20010904//EN"
 "http://www.w3.org/TR/2001/REC-SVG-20010904/DTD/svg10.dtd">
<svg version="1.0" xmlns="http://www.w3.org/2000/svg"
 width="340.000000pt" height="286.000000pt" viewBox="0 0 340.000000 286.000000"
 preserveAspectRatio="xMidYMid meet">
<metadata>
Created by potrace 1.13, written by Peter Selinger 2001-2015
</metadata>
<g transform="translate(0.000000,286.000000) scale(0.100000,-0.100000)"
fill="#000000" stroke="none">
<path d="M1254 2815 c-62 -62 -107 -160 -108 -235 -1 -50 -4 -60 -21 -64 -11
-3 -203 -6 -428 -6 l-407 0 -9 -22 c-5 -13 -12 -47 -16 -75 -4 -30 -17 -67
-30 -85 -36 -49 -52 -88 -70 -175 -9 -43 -31 -105 -48 -138 -70 -135 -79 -158
-99 -252 -24 -116 -20 -250 11 -378 10 -44 19 -102 20 -130 1 -90 23 -229 44
-269 30 -60 87 -144 102 -150 8 -3 28 -1 46 4 33 10 59 -1 59 -24 0 -6 -29
-26 -65 -45 -76 -39 -142 -107 -182 -189 -26 -52 -28 -67 -28 -167 0 -103 2
-114 32 -178 35 -74 110 -155 174 -187 256 -131 554 19 600 302 9 57 6 128 -8
164 -3 8 6 14 28 16 21 2 39 12 52 30 18 24 19 31 7 73 -15 53 -1 144 26 166
12 10 50 10 187 -1 191 -14 554 -9 700 10 61 8 92 8 100 1 7 -5 24 -40 37 -77
22 -64 23 -68 6 -99 -10 -18 -16 -47 -14 -66 3 -32 5 -34 41 -34 38 0 39 -1
34 -33 -3 -18 -2 -73 4 -123 16 -160 94 -272 236 -340 196 -94 448 -2 539 196
35 75 49 178 34 248 -23 114 -77 191 -198 287 -19 14 -33 36 -35 50 l-2 25 85
-3 c68 -3 96 1 138 17 50 20 52 20 52 2 0 -28 22 -41 62 -35 32 6 36 4 42 -21
4 -15 6 -28 4 -30 -2 -1 -34 -12 -71 -25 -38 -12 -71 -29 -74 -38 -8 -19 45
-178 65 -198 21 -21 62 -17 165 16 94 30 190 84 247 138 35 34 40 86 14 152
-18 44 -20 45 -61 29 -15 -6 -57 -17 -93 -24 -56 -12 -68 -12 -87 1 -32 20
-29 43 7 55 28 10 29 14 24 47 -4 25 1 54 15 90 12 29 21 67 21 85 0 51 17 62
105 75 44 6 93 15 109 21 26 10 28 14 21 44 -4 17 -10 71 -14 119 -5 77 -9 90
-37 125 -57 70 -74 75 -288 85 -214 9 -274 17 -361 47 -33 11 -71 23 -85 26
-14 2 -49 20 -78 39 -29 19 -70 37 -90 41 -20 3 -62 26 -93 49 -30 24 -71 48
-90 55 -19 6 -55 32 -80 57 -24 25 -66 57 -92 70 -34 18 -57 40 -82 78 -25 39
-45 58 -74 70 -40 16 -41 17 -41 66 0 65 -36 109 -92 114 -21 2 -44 9 -53 16
-19 16 -279 355 -325 424 -48 73 -100 136 -111 136 -5 0 -30 -20 -55 -45z"/>
</g>
</svg>
