<?xml version="1.0" standalone="no"?>
<!DOCTYPE svg PUBLIC "-//W3C//DTD SVG 20010904//EN"
 "http://www.w3.org/TR/2001/REC-SVG-20010904/DTD/svg10.dtd">
<svg version="1.0" xmlns="http://www.w3.org/2000/svg"
 width="858.000000pt" height="858.000000pt" viewBox="0 0 858.000000 858.000000"
 preserveAspectRatio="xMidYMid meet">
<metadata>
Created by potrace 1.13, written by Peter Selinger 2001-2015
</metadata>
<g transform="translate(0.000000,858.000000) scale(0.100000,-0.100000)"
fill="#000000" stroke="none">
<path d="M2000 8390 c-435 -93 -734 -428 -780 -875 -9 -86 -12 -2059 -10
-5903 0 -362 3 -482 15 -548 75 -429 384 -745 803 -820 120 -21 3900 -21 4022
1 263 46 497 193 638 402 83 122 138 256 164 398 10 56 13 703 13 3275 0 2572
-3 3219 -13 3275 -75 409 -371 713 -774 795 -94 20 -143 20 -2045 19 -1844 0
-1953 -1 -2033 -19z m2439 -1105 c341 -58 650 -191 916 -395 98 -75 267 -240
348 -340 325 -403 488 -948 437 -1461 -56 -553 -322 -1046 -750 -1392 -607
-490 -1454 -585 -2155 -242 -551 270 -943 756 -1089 1350 -70 286 -70 673 0
950 127 505 427 933 852 1215 288 192 564 288 952 334 74 9 399 -4 489 -19z
m-588 -4186 c20 -10 44 -55 40 -73 -1 -5 2 -12 6 -15 4 -3 21 -35 37 -71 25
-57 47 -107 101 -225 7 -16 30 -65 49 -108 20 -44 36 -82 36 -85 0 -10 84
-196 91 -202 3 -3 11 -19 18 -37 13 -32 54 -67 65 -56 3 4 6 63 6 131 0 144 8
162 70 162 41 0 74 -28 83 -70 20 -92 68 -160 134 -190 27 -13 56 -26 65 -31
11 -5 28 -4 45 3 111 47 76 106 -121 204 -104 51 -198 128 -250 203 -28 39
-28 43 -25 160 3 96 7 123 22 138 9 11 17 24 17 29 0 15 83 88 120 105 19 9
51 22 71 28 42 13 182 15 207 2 9 -5 34 -14 55 -21 35 -11 41 -10 61 9 27 25
82 28 108 4 16 -14 18 -34 18 -198 0 -204 -3 -212 -66 -206 -19 1 -34 0 -34
-4 0 -3 26 -30 58 -60 32 -30 67 -72 77 -94 19 -43 35 -51 55 -26 7 8 27 15
44 15 38 0 80 -39 90 -85 10 -42 46 -115 57 -115 5 0 8 -5 6 -11 -2 -11 36
-39 83 -60 14 -6 33 -16 44 -21 20 -10 53 1 89 31 45 38 0 94 -131 162 -46 24
-100 53 -120 63 -55 29 -162 141 -169 176 -3 17 -10 33 -14 36 -12 7 -11 181
1 189 6 3 10 14 10 24 0 20 85 133 111 147 8 5 29 15 45 23 16 7 37 17 46 22
22 11 210 12 224 1 5 -4 26 -14 47 -21 35 -12 41 -11 61 8 31 29 86 28 113 -1
18 -21 21 -40 26 -200 7 -199 5 -204 -64 -200 -21 2 -39 -1 -39 -5 0 -5 27
-35 61 -68 69 -67 89 -100 89 -144 0 -16 5 -33 11 -37 6 -4 9 -22 6 -43 -23
-155 -44 -195 -146 -271 -78 -59 -106 -65 -270 -58 -90 4 -123 9 -144 23 -27
17 -28 17 -51 -4 -28 -26 -101 -29 -128 -4 -15 13 -18 32 -18 112 l-1 96 -24
-45 c-29 -58 -112 -135 -171 -162 -41 -17 -63 -19 -184 -16 -97 2 -142 7 -153
17 -10 7 -17 10 -17 7 0 -4 -8 -2 -18 3 -14 7 -21 5 -30 -10 -9 -14 -24 -19
-60 -19 -27 0 -51 3 -55 6 -3 3 -119 5 -258 5 -286 -2 -289 -1 -289 72 0 46
22 77 56 77 31 0 38 16 20 42 -9 12 -16 30 -16 40 0 16 -12 18 -118 18 l-117
0 -12 -37 c-10 -32 -9 -39 5 -50 10 -7 22 -11 28 -8 7 2 21 -3 33 -11 16 -12
21 -26 21 -61 0 -81 -6 -83 -211 -83 -202 0 -199 -1 -199 84 0 46 7 54 75 92
26 15 64 81 100 174 17 44 48 112 119 259 20 40 36 78 36 83 0 6 9 29 19 52
11 23 22 48 25 56 3 8 10 22 14 30 5 8 18 35 29 60 43 94 49 104 68 127 22 25
63 30 96 12z m-739 -26 c6 -7 22 -13 34 -13 12 0 36 -11 52 -25 17 -14 34 -25
40 -25 16 0 67 -63 81 -101 7 -18 17 -42 22 -51 12 -23 12 -135 0 -142 -5 -3
-12 -23 -16 -43 -9 -50 -82 -125 -154 -159 -41 -20 -76 -27 -147 -31 l-94 -6
0 -117 c0 -125 7 -145 49 -138 25 4 81 -49 81 -77 0 -12 -13 -33 -28 -48 l-28
-27 -249 0 c-286 0 -285 0 -285 80 0 55 12 70 60 70 20 0 41 5 48 12 17 17 17
679 0 696 -7 7 -28 12 -48 12 -20 0 -41 5 -48 12 -16 16 -15 110 1 127 17 18
610 12 629 -6z m762 -1222 c3 -4 23 -11 44 -15 62 -9 132 -53 209 -129 67 -65
82 -88 137 -206 6 -14 11 -82 11 -165 0 -149 -12 -205 -55 -267 -11 -15 -20
-32 -20 -39 0 -6 -36 -46 -79 -88 -119 -115 -155 -127 -386 -126 l-180 0 -70
36 c-138 71 -247 220 -266 362 -18 128 -21 146 -28 146 -4 0 -24 -17 -45 -39
-59 -60 -111 -81 -218 -88 -51 -3 -96 -11 -101 -17 -4 -6 -7 -54 -6 -106 2
-111 16 -143 60 -138 41 4 69 -26 69 -75 0 -77 1 -77 -288 -77 -287 0 -281 -1
-281 75 0 47 18 75 48 75 12 0 31 5 42 10 18 10 19 25 19 348 0 250 -3 341
-12 350 -7 7 -25 12 -41 12 -16 0 -35 6 -43 14 -19 20 -19 110 1 126 19 16
580 10 610 -7 11 -6 38 -16 61 -22 47 -13 164 -126 164 -160 0 -11 4 -22 9
-25 5 -3 7 -15 4 -25 -3 -10 0 -22 6 -25 6 -4 11 -1 11 7 0 15 35 66 89 128
37 43 129 109 152 109 8 0 23 7 33 15 11 8 30 15 42 15 13 0 26 5 29 10 8 12
262 14 269 1z m1058 -28 c6 -7 23 -13 35 -13 35 0 73 -23 119 -72 58 -61 74
-88 74 -125 0 -17 5 -35 10 -38 21 -13 9 -94 -28 -175 -18 -41 -90 -120 -109
-120 -18 0 -18 -1 30 -70 23 -34 47 -69 52 -78 37 -59 106 -141 124 -147 41
-13 61 -41 61 -85 0 -77 -8 -80 -203 -80 l-169 0 -20 26 c-11 14 -41 55 -66
92 -25 37 -60 85 -79 106 -18 22 -33 44 -33 49 0 5 -9 20 -20 34 l-20 26 0
-80 c0 -74 2 -81 24 -93 14 -7 32 -10 41 -7 26 11 55 -28 55 -75 0 -79 2 -78
-293 -78 -296 0 -297 0 -297 73 0 48 22 77 59 77 15 0 37 7 49 16 22 15 22 16
22 341 0 361 0 363 -63 363 -17 0 -39 7 -49 17 -24 21 -24 89 -1 116 17 18 33
18 350 15 249 -2 335 -6 345 -15z m1190 0 c16 -14 18 -33 18 -163 l0 -146 -28
-27 c-15 -15 -38 -27 -49 -27 -22 0 -93 73 -93 96 0 28 -25 65 -57 84 -66 39
-63 55 -63 -313 0 -246 3 -336 12 -345 7 -7 28 -12 48 -12 47 0 60 -15 60 -69
0 -82 3 -81 -288 -81 -294 0 -292 -1 -292 80 0 52 13 70 50 70 14 0 36 7 48
16 22 15 22 15 22 346 0 310 -1 330 -17 323 -10 -4 -29 -8 -42 -9 -23 -1 -39
-23 -72 -101 -19 -45 -60 -85 -85 -85 -13 0 -35 12 -49 27 -24 27 -25 32 -25
171 0 96 4 149 12 162 12 19 25 20 442 20 386 0 431 -2 448 -17z"/>
<path d="M3925 7044 c-197 -15 -461 -91 -645 -187 -193 -100 -307 -186 -466
-349 -235 -239 -379 -493 -455 -801 -17 -70 -19 -116 -19 -442 0 -385 3 -414
54 -570 17 -51 21 -59 51 -130 185 -424 540 -780 944 -944 264 -108 339 -121
701 -121 246 0 301 3 381 19 439 92 836 361 1100 748 57 84 159 268 159 288 0
3 9 24 19 48 27 58 50 128 72 220 17 70 19 119 19 442 0 326 -2 372 -19 442
-25 99 -32 121 -69 213 -96 239 -198 395 -386 589 -277 285 -556 432 -985 520
-55 12 -367 22 -456 15z m208 -86 c2 -7 -7 -41 -20 -76 -20 -56 -22 -68 -12
-110 7 -26 16 -56 22 -67 14 -29 59 -75 73 -75 6 0 29 21 49 48 74 92 106 120
145 127 31 5 41 14 70 61 31 52 35 55 64 48 108 -23 391 -145 461 -198 20 -15
19 -15 -5 -16 -14 0 -36 -3 -49 -7 -22 -6 -23 -9 -19 -75 6 -75 25 -108 64
-108 13 0 29 -7 36 -16 37 -45 50 -54 78 -54 29 0 30 -2 30 -46 0 -25 4 -53
10 -63 7 -14 3 -26 -15 -51 -34 -46 -58 -60 -130 -75 -35 -8 -75 -21 -88 -30
l-25 -16 30 -54 c35 -64 89 -115 124 -115 14 0 45 5 69 11 l43 11 7 64 c4 35
8 64 10 64 2 0 27 -11 57 -25 29 -13 61 -22 70 -19 17 5 22 -4 30 -61 4 -26
55 -34 64 -11 10 26 23 18 40 -24 18 -46 24 -48 49 -19 19 20 19 20 35 -13 12
-27 24 -35 64 -45 60 -15 81 -33 100 -90 l15 -44 -82 7 c-80 7 -84 8 -159 65
-58 43 -89 59 -120 63 -24 3 -61 8 -83 11 -125 18 -181 17 -253 -4 -60 -18
-77 -28 -107 -66 -20 -24 -50 -48 -66 -54 -84 -29 -124 -86 -121 -171 2 -33
-6 -83 -18 -125 -12 -38 -24 -111 -27 -160 l-6 -91 88 -82 c49 -45 112 -94
143 -109 50 -24 65 -27 177 -27 106 -1 126 -4 144 -20 17 -16 25 -17 46 -8 21
10 26 9 35 -8 16 -30 12 -80 -15 -155 -30 -85 -30 -96 -5 -175 11 -34 20 -77
20 -94 0 -34 -41 -107 -80 -141 -32 -29 -62 -93 -63 -134 0 -20 3 -66 8 -103
8 -66 8 -67 -45 -178 -42 -89 -51 -118 -47 -145 6 -35 5 -35 -76 -83 -267
-156 -518 -229 -827 -239 -377 -12 -732 95 -1045 316 -103 72 -314 283 -386
386 -163 231 -266 484 -305 747 -12 87 -15 156 -11 303 6 214 23 318 84 499
41 119 140 327 160 334 10 3 11 -14 7 -71 l-7 -74 36 -40 c20 -22 55 -48 78
-58 39 -18 41 -21 36 -56 -4 -32 -1 -40 23 -58 21 -15 32 -35 41 -76 11 -49
18 -60 56 -88 24 -17 46 -42 50 -55 9 -37 -15 -100 -63 -168 -68 -95 -77 -125
-69 -219 8 -105 30 -148 121 -241 58 -59 75 -83 74 -103 -4 -55 1 -78 19 -98
18 -19 18 -24 4 -114 -14 -85 -18 -146 -13 -204 1 -11 -1 -64 -6 -118 -5 -66
-3 -105 4 -120 6 -12 16 -55 21 -95 11 -83 45 -147 112 -207 41 -37 85 -62 94
-53 3 3 -2 49 -12 104 l-17 99 29 63 c30 68 67 106 161 166 44 29 71 56 99
100 66 104 118 164 144 171 14 4 47 16 72 26 56 24 118 107 155 207 14 38 40
82 59 102 39 41 65 96 65 141 0 52 -94 122 -201 149 -47 12 -58 26 -136 173
-42 80 -95 132 -173 170 -36 18 -79 46 -97 63 -17 18 -49 37 -70 44 -21 7 -66
27 -101 46 -80 43 -100 43 -135 -1 -37 -47 -86 -48 -145 -5 -46 33 -59 71 -48
143 5 35 3 45 -14 59 -28 24 -25 33 16 64 27 21 34 33 32 53 -3 24 -6 26 -56
26 -45 0 -57 4 -74 25 -38 47 -6 139 71 197 61 47 136 67 195 52 54 -13 81
-42 90 -96 3 -21 13 -46 21 -57 26 -35 41 -12 54 81 l12 88 47 19 c26 11 70
34 97 51 28 19 64 33 82 33 17 0 46 8 63 17 54 28 122 45 183 45 53 0 62 3 85
30 29 33 47 37 76 15 52 -39 102 -5 113 75 5 36 3 40 -16 40 -26 0 -26 2 1 50
l23 39 -40 41 c-46 47 -63 49 -105 14 -23 -20 -38 -25 -59 -21 -24 5 -32 1
-46 -19 -20 -31 -73 -64 -102 -64 -29 0 -46 34 -39 75 5 25 19 43 59 72 83 61
89 64 109 46 15 -13 25 -14 62 -4 62 15 71 14 104 -14 17 -14 34 -25 38 -25 5
1 30 20 57 44 l47 42 -15 37 c-8 20 -15 39 -15 42 0 11 69 4 73 -7z"/>
<path d="M4841 6531 c-7 -5 -10 -18 -6 -33 5 -20 1 -29 -15 -41 -16 -11 -20
-21 -15 -36 7 -23 17 -26 45 -11 17 9 20 6 25 -17 16 -77 47 -97 103 -67 28
15 32 22 27 43 -9 39 -57 104 -88 119 -15 7 -27 17 -27 22 0 15 -35 29 -49 21z"/>
<path d="M4584 2909 c-10 -11 -13 -26 -9 -42 7 -26 35 -58 35 -41 0 5 4 4 8
-2 12 -18 224 -124 218 -109 -2 7 -8 30 -12 49 -3 20 -10 36 -15 36 -5 0 -9 6
-9 14 0 24 -52 78 -90 94 -49 20 -108 21 -126 1z"/>
<path d="M5342 2913 c-7 -2 -17 -13 -22 -24 -9 -15 -5 -24 22 -49 18 -16 42
-33 53 -36 11 -4 31 -15 44 -25 13 -11 31 -19 39 -19 8 0 30 -11 48 -25 18
-14 37 -25 43 -25 14 0 14 47 1 55 -5 3 -10 15 -10 26 0 23 -63 95 -101 115
-27 14 -91 18 -117 7z"/>
<path d="M3698 2672 c-9 -20 -28 -62 -42 -93 -14 -31 -26 -61 -26 -66 0 -6 -7
-16 -15 -23 -8 -7 -15 -19 -15 -26 0 -11 24 -14 115 -14 63 0 115 1 115 3 0
13 -37 113 -60 162 -15 33 -30 68 -34 78 -8 26 -19 20 -38 -21z"/>
<path d="M2874 2957 c-2 -7 -3 -89 -2 -182 l3 -170 42 -3 c42 -3 55 3 95 43
39 39 65 173 38 190 -5 3 -10 15 -10 25 0 58 -147 144 -166 97z"/>
<path d="M2770 1535 l0 -185 40 0 c89 0 140 66 140 182 0 94 -25 142 -86 169
-25 10 -57 19 -70 19 l-24 0 0 -185z"/>
<path d="M3683 1657 c-28 -15 -73 -75 -73 -97 0 -9 -5 -21 -11 -27 -26 -26
-27 -351 0 -408 5 -11 15 -35 21 -53 20 -51 67 -82 126 -82 44 0 54 4 80 33
50 53 61 78 73 166 14 105 14 188 0 286 -12 91 -40 150 -83 176 -35 21 -100
24 -133 6z"/>
<path d="M4637 1713 c-4 -3 -7 -87 -7 -185 l0 -178 70 0 c59 0 77 4 110 26 53
36 75 92 67 180 -6 76 -24 108 -83 141 -38 22 -141 33 -157 16z"/>
<path d="M6730 8223 c187 -160 291 -332 352 -583 11 -45 13 -633 13 -3315 0
-3140 -1 -3263 -19 -3340 -37 -160 -109 -311 -202 -421 -52 -62 -143 -150
-181 -176 l-28 -19 50 6 c242 30 415 125 541 296 82 112 151 293 173 454 15
104 15 6289 1 6389 -51 349 -236 606 -506 705 -63 23 -196 51 -242 51 -4 0 18
-21 48 -47z"/>
</g>
</svg>
