<?xml version="1.0" standalone="no"?>
<!DOCTYPE svg PUBLIC "-//W3C//DTD SVG 20010904//EN"
 "http://www.w3.org/TR/2001/REC-SVG-20010904/DTD/svg10.dtd">
<svg version="1.0" xmlns="http://www.w3.org/2000/svg"
 width="400.000000pt" height="400.000000pt" viewBox="0 0 400.000000 400.000000"
 preserveAspectRatio="xMidYMid meet">
<metadata>
Created by potrace 1.13, written by Peter Selinger 2001-2015
</metadata>
<g transform="translate(0.000000,400.000000) scale(0.100000,-0.100000)"
fill="#000000" stroke="none">
<path d="M720 3930 c0 -5 -7 -10 -16 -10 -8 0 -37 -22 -64 -50 -40 -42 -55
-50 -84 -50 -20 0 -36 -4 -36 -10 0 -5 -18 -10 -40 -10 -22 0 -40 -4 -40 -10
0 -6 -30 -10 -70 -10 -40 0 -70 -4 -70 -10 0 -5 -11 -10 -25 -10 -29 0 -115
-79 -115 -105 0 -8 -4 -15 -10 -15 -6 0 -10 -27 -10 -60 0 -33 4 -60 10 -60 6
0 10 -22 10 -50 0 -27 5 -50 10 -50 6 0 10 -22 10 -50 0 -27 5 -50 10 -50 6 0
10 -18 10 -40 0 -22 5 -40 10 -40 6 0 10 -27 10 -60 0 -33 4 -60 10 -60 6 0
10 -22 10 -50 0 -27 5 -50 10 -50 6 0 10 -27 10 -60 0 -33 4 -60 10 -60 6 0
10 -27 10 -60 0 -33 4 -60 10 -60 6 0 10 -22 10 -50 0 -27 5 -50 10 -50 6 0
10 -18 10 -40 0 -22 5 -40 10 -40 6 0 10 -30 10 -70 0 -40 4 -70 10 -70 6 0
10 -33 10 -80 0 -47 4 -80 10 -80 6 0 10 -30 10 -70 0 -40 4 -70 10 -70 6 0
10 -18 10 -40 0 -22 5 -40 10 -40 6 0 10 -33 10 -80 0 -47 4 -80 10 -80 6 0
10 -33 10 -80 0 -47 4 -80 10 -80 6 0 10 -13 10 -30 0 -16 5 -30 10 -30 6 0
10 -7 10 -15 0 -20 65 -85 85 -85 8 0 15 -4 15 -10 0 -5 14 -10 30 -10 17 0
30 -4 30 -10 0 -6 27 -10 60 -10 33 0 60 4 60 10 0 6 23 10 50 10 28 0 50 5
50 10 0 6 14 10 30 10 17 0 30 5 30 10 0 6 9 10 20 10 11 0 20 5 20 10 0 6 50
10 130 10 80 0 130 -4 130 -10 0 -6 27 -10 60 -10 l60 0 0 -140 c0 -87 -4
-140 -10 -140 -5 0 -10 -18 -10 -40 0 -22 -4 -40 -10 -40 -5 0 -10 -13 -10
-30 0 -16 5 -30 10 -30 6 0 10 -30 10 -70 0 -40 -4 -70 -10 -70 -5 0 -10 -13
-10 -30 0 -16 5 -30 10 -30 6 0 10 -27 10 -60 0 -33 4 -60 10 -60 6 0 10 -7
10 -16 0 -9 14 -29 30 -44 17 -15 30 -35 30 -44 0 -9 5 -16 10 -16 6 0 10 -22
10 -50 0 -27 5 -50 10 -50 6 0 10 -33 10 -78 0 -66 3 -80 20 -92 14 -10 20
-26 20 -52 0 -21 5 -38 10 -38 6 0 10 -13 10 -30 0 -16 5 -30 10 -30 6 0 10
-18 10 -40 0 -22 5 -40 10 -40 6 0 10 -9 10 -20 0 -11 5 -20 10 -20 6 0 10 -7
10 -15 0 -8 34 -49 75 -90 53 -54 82 -75 100 -75 14 0 25 -4 25 -10 0 -5 14
-10 30 -10 17 0 30 -4 30 -10 0 -6 57 -10 150 -10 93 0 150 4 150 10 0 6 7 10
15 10 19 0 185 164 185 183 0 7 9 19 20 27 11 8 20 21 20 30 0 9 9 22 20 30
14 10 20 26 20 52 0 21 5 38 10 38 6 0 10 23 10 50 0 28 5 50 10 50 6 0 10 23
10 50 0 28 5 50 10 50 6 0 10 14 10 30 0 29 1 30 50 30 28 0 50 -4 50 -10 0
-6 37 -10 90 -10 53 0 90 4 90 10 0 6 12 10 26 10 16 0 37 12 54 30 27 29 60
40 60 20 0 -5 9 -10 20 -10 11 0 20 -4 20 -10 0 -5 14 -10 30 -10 17 0 30 -4
30 -10 0 -5 9 -10 20 -10 11 0 20 -4 20 -10 0 -5 18 -10 40 -10 22 0 40 5 40
10 0 6 8 10 18 10 10 0 24 9 32 20 15 21 50 28 50 10 0 -5 9 -10 20 -10 11 0
20 -4 20 -10 0 -5 9 -10 20 -10 11 0 20 -4 20 -10 0 -6 43 -10 110 -10 67 0
110 4 110 10 0 6 7 10 15 10 25 0 65 46 65 75 0 14 5 25 10 25 6 0 10 53 10
140 0 87 -4 140 -10 140 -6 0 -10 107 -10 300 0 193 -4 300 -10 300 -6 0 -10
80 -10 220 l0 220 40 0 c22 0 40 -4 40 -10 0 -5 18 -10 40 -10 22 0 40 5 40
10 0 6 11 10 25 10 14 0 37 11 50 25 14 13 25 36 25 50 0 14 5 25 10 25 6 0
10 14 10 30 0 17 5 30 10 30 6 0 10 57 10 150 0 93 -4 150 -10 150 -6 0 -10
27 -10 60 0 33 -4 60 -10 60 -5 0 -10 9 -10 20 0 11 -4 20 -10 20 -6 0 -10 33
-10 80 0 47 -4 80 -10 80 -18 0 -11 55 10 70 11 8 20 22 20 32 0 10 5 18 10
18 6 0 10 33 10 80 0 47 4 80 10 80 6 0 10 50 10 130 0 80 -4 130 -10 130 -5
0 -10 18 -10 40 0 22 -4 40 -10 40 -5 0 -10 9 -10 20 0 11 -4 20 -10 20 -5 0
-10 7 -10 15 0 18 -84 105 -101 105 -6 0 -24 14 -39 30 -27 29 -32 30 -112 30
-72 0 -86 -3 -98 -20 -11 -15 -26 -20 -62 -20 -26 0 -48 -4 -48 -10 0 -5 -4
-10 -10 -10 -5 0 -10 14 -10 30 0 17 -4 30 -10 30 -5 0 -10 7 -10 15 0 20 -65
85 -85 85 -8 0 -15 5 -15 10 0 6 -33 10 -80 10 -47 0 -80 -4 -80 -10 0 -6 -47
-10 -120 -10 -73 0 -120 4 -120 10 0 6 -13 10 -30 10 -16 0 -30 -4 -30 -10 0
-5 -7 -10 -16 -10 -9 0 -29 -14 -45 -31 -26 -27 -30 -29 -44 -16 -8 9 -15 21
-15 27 0 6 -11 22 -25 35 -24 24 -28 25 -180 25 -97 0 -155 -4 -155 -10 0 -20
-33 -9 -60 20 -15 17 -35 30 -44 30 -9 0 -16 5 -16 10 0 6 -58 10 -155 10
l-156 0 -34 -35 c-30 -29 -35 -41 -35 -80 0 -25 -4 -45 -10 -45 -6 0 -10 -33
-10 -80 0 -44 -2 -80 -6 -80 -3 0 -32 27 -64 60 -42 42 -66 60 -84 60 -15 0
-26 5 -26 10 0 6 -37 10 -90 10 -53 0 -90 -4 -90 -10 0 -5 -9 -10 -20 -10 -11
0 -20 -4 -20 -10 0 -5 -9 -10 -20 -10 -11 0 -20 -4 -20 -10 0 -5 -13 -10 -30
-10 -16 0 -30 -4 -30 -10 0 -5 -4 -10 -10 -10 -5 0 -10 9 -10 20 0 11 -4 20
-10 20 -5 0 -10 8 -10 18 0 10 -9 24 -20 32 -11 8 -20 20 -20 27 0 25 -108
123 -135 123 -14 0 -25 5 -25 10 0 6 -13 10 -28 10 -16 0 -34 8 -42 20 -10 14
-26 20 -52 20 -21 0 -38 5 -38 10 0 6 -27 10 -60 10 -33 0 -60 -4 -60 -10z
m65 -140 c3 -5 17 -10 31 -10 13 0 24 -4 24 -10 0 -5 9 -10 20 -10 11 0 20 -4
20 -10 0 -5 9 -10 20 -10 11 0 20 -4 20 -10 0 -5 11 -10 25 -10 29 0 115 -79
115 -105 0 -8 5 -15 10 -15 6 0 10 -9 10 -20 0 -11 5 -20 10 -20 6 0 10 -18
10 -40 0 -22 5 -40 10 -40 6 0 10 -27 10 -60 0 -33 4 -60 10 -60 6 0 10 -63
10 -170 0 -107 -4 -170 -10 -170 -5 0 -10 -7 -10 -15 0 -9 -9 -25 -20 -37 -11
-12 -20 -28 -20 -35 0 -7 -4 -13 -10 -13 -5 0 -10 -9 -10 -19 0 -11 -6 -22
-12 -25 -10 -5 -10 -7 0 -12 6 -3 12 -16 12 -29 0 -13 5 -27 10 -30 6 -3 10
-15 10 -26 0 -10 5 -19 10 -19 6 0 10 -13 10 -30 0 -16 5 -30 10 -30 6 0 10
-13 10 -30 0 -16 5 -30 10 -30 6 0 10 -18 10 -40 0 -22 5 -40 10 -40 6 0 10
-13 10 -30 0 -16 5 -30 10 -30 6 0 10 -15 10 -34 0 -19 5 -38 10 -41 6 -3 10
-15 10 -26 0 -10 5 -19 10 -19 6 0 10 -13 10 -30 0 -16 5 -30 10 -30 6 0 10
-9 10 -20 0 -11 5 -20 10 -20 6 0 10 -6 10 -14 0 -7 14 -27 30 -44 28 -30 30
-37 30 -107 0 -43 4 -75 10 -75 6 0 10 -27 10 -60 0 -53 -2 -60 -20 -60 -18 0
-20 -7 -20 -70 l0 -70 -38 0 c-21 0 -43 5 -50 12 -9 9 -15 9 -24 0 -14 -14
-68 -16 -68 -2 0 6 -8 10 -18 10 -30 0 -42 22 -42 76 0 29 -4 56 -10 59 -5 3
-10 28 -10 56 0 27 -4 49 -10 49 -6 0 -10 27 -10 60 0 33 -4 60 -10 60 -5 0
-10 18 -10 40 0 22 -4 40 -10 40 -5 0 -10 18 -10 40 0 22 -4 40 -10 40 -5 0
-10 18 -10 40 0 22 -4 40 -10 40 -5 0 -10 14 -10 30 0 17 -4 30 -10 30 -5 0
-10 15 -10 34 0 19 -4 38 -10 41 -5 3 -10 19 -10 36 0 16 -4 29 -10 29 -6 0
-10 27 -10 60 0 33 -4 60 -10 60 -5 0 -10 20 -10 45 0 50 -19 68 -45 42 -18
-19 -20 -107 -2 -126 10 -11 10 -14 0 -18 -16 -6 -18 -143 -3 -143 6 0 10 -9
10 -20 0 -11 5 -20 10 -20 6 0 10 -27 10 -60 0 -33 4 -60 10 -60 6 0 10 -27
10 -60 0 -33 4 -60 10 -60 6 0 10 -22 10 -50 0 -27 5 -50 10 -50 6 0 10 -30
10 -70 0 -40 4 -70 10 -70 6 0 10 -47 10 -120 l0 -120 -40 0 c-22 0 -40 -4
-40 -10 0 -5 -13 -10 -30 -10 -16 0 -30 -4 -30 -10 0 -14 -121 -12 -153 3 -24
11 -27 17 -27 64 0 28 -4 55 -10 58 -5 3 -10 30 -10 60 0 30 -4 57 -10 60 -5
3 -10 35 -10 70 0 35 -4 67 -10 70 -5 3 -10 33 -10 66 0 33 -4 59 -10 59 -6 0
-10 27 -10 60 0 33 -4 60 -10 60 -6 0 -10 30 -10 70 0 40 -4 70 -10 70 -6 0
-10 30 -10 70 0 40 -4 70 -10 70 -6 0 -10 30 -10 70 0 40 -4 70 -10 70 -5 0
-10 23 -10 50 0 28 -4 50 -10 50 -5 0 -10 15 -10 34 0 19 -4 38 -10 41 -5 3
-10 24 -10 46 0 21 -4 39 -10 39 -5 0 -10 24 -10 54 0 30 -4 58 -10 61 -5 3
-10 33 -10 66 0 33 -4 59 -10 59 -5 0 -10 23 -10 50 0 28 -4 50 -10 50 -5 0
-10 20 -10 44 0 25 -5 48 -10 51 -6 3 -10 17 -10 30 0 13 -5 27 -10 30 -28 17
-1 85 34 85 9 0 16 5 16 10 0 6 30 10 70 10 40 0 70 4 70 10 0 6 18 10 40 10
22 0 40 5 40 10 0 6 23 10 50 10 28 0 50 5 50 10 0 6 7 10 15 10 18 0 65 44
65 60 0 12 21 39 32 40 4 0 10 -4 13 -10z m1301 -64 c17 -17 21 -206 4 -206
-6 0 -10 -33 -10 -80 0 -73 -2 -80 -20 -80 -11 0 -20 -4 -20 -10 0 -5 -12 -10
-26 -10 -23 0 -54 -20 -54 -34 0 -3 12 -6 26 -6 52 0 54 -11 54 -244 0 -132
-4 -217 -10 -221 -5 -3 -10 -33 -10 -65 0 -32 5 -62 10 -65 6 -3 10 -19 10
-36 0 -16 -4 -29 -10 -29 -5 0 -10 -9 -10 -20 0 -13 -7 -20 -20 -20 -13 0 -20
-7 -20 -19 0 -11 -6 -21 -12 -24 -8 -2 -9 -8 -4 -13 5 -5 11 -4 13 4 3 6 13
12 24 12 10 0 19 5 19 10 0 6 40 10 99 10 70 0 101 4 103 12 3 9 9 8 21 -4 14
-13 17 -36 17 -110 l0 -93 -31 -14 c-25 -11 -36 -11 -50 -2 -23 14 -165 15
-174 1 -15 -25 -65 2 -65 34 0 9 -4 16 -10 16 -5 0 -10 9 -10 20 0 11 -4 20
-10 20 -5 0 -10 9 -10 20 0 11 -4 20 -10 20 -6 0 -10 40 -10 99 0 56 4 103 10
106 22 13 10 67 -20 95 l-30 28 0 202 0 202 30 28 c29 27 30 32 30 108 0 45
-4 84 -10 87 -6 4 -10 53 -10 116 0 66 4 109 10 109 6 0 10 14 10 30 l0 30 86
0 c61 0 90 -4 100 -14z m414 -236 l0 -190 -36 0 c-27 0 -37 -5 -41 -19 -3 -11
-13 -21 -24 -24 -19 -5 -27 -37 -9 -37 6 0 10 5 10 10 0 6 14 10 30 10 l30 0
0 -60 c0 -33 4 -60 10 -60 6 0 10 -73 10 -200 0 -127 4 -200 10 -200 6 0 10
-32 10 -76 0 -72 -2 -78 -30 -104 -16 -15 -30 -35 -30 -44 0 -22 13 -20 30 4
8 11 22 20 32 20 10 0 18 5 18 10 0 14 37 12 44 -2 5 -10 7 -10 12 0 3 6 23
12 45 12 21 0 39 5 39 10 0 6 14 10 30 10 23 0 30 -4 30 -20 0 -11 5 -20 10
-20 6 0 10 -37 10 -90 l0 -90 -100 0 c-60 0 -100 -4 -100 -10 0 -5 -13 -10
-30 -10 -16 0 -30 -4 -30 -10 0 -5 -9 -10 -20 -10 -11 0 -20 6 -20 14 0 7 -13
27 -30 44 -16 18 -30 39 -30 47 0 8 -4 15 -10 15 -6 0 -10 55 -10 146 0 151
-6 174 -44 174 -13 0 -16 14 -16 80 0 47 -4 80 -10 80 -6 0 -10 43 -10 110 0
67 -4 110 -10 110 -31 0 12 67 53 83 19 7 22 22 7 32 -5 3 -10 35 -10 70 0 35
-4 67 -10 70 -6 4 -10 67 -10 156 l0 149 100 0 100 0 0 -190z m666 156 c16
-17 20 -121 4 -131 -5 -3 -10 -16 -10 -29 0 -12 -5 -27 -12 -34 -15 -15 -64
-16 -73 -2 -3 6 -31 10 -61 10 -47 0 -54 -2 -54 -20 0 -11 -4 -20 -10 -20 -6
0 -10 -30 -10 -70 0 -40 4 -70 10 -70 6 0 10 -22 10 -50 0 -27 5 -50 10 -50
16 0 12 -90 -5 -106 -13 -14 -19 -11 -54 25 -22 23 -44 41 -51 41 -20 0 -60
49 -60 75 0 14 -4 25 -10 25 -6 0 -10 28 -10 64 0 36 -4 68 -10 71 -15 9 -13
238 2 253 8 8 55 12 144 12 78 0 135 4 139 10 9 15 94 12 111 -4z m-1646 -116
c0 -5 14 -10 30 -10 19 0 30 -5 30 -14 0 -7 14 -27 30 -44 17 -18 30 -39 30
-47 0 -8 5 -15 10 -15 6 0 10 -11 10 -24 0 -14 5 -28 10 -31 6 -3 10 -19 10
-36 0 -16 5 -29 10 -29 6 0 10 -28 10 -64 0 -36 5 -68 10 -71 6 -4 10 -62 10
-140 0 -78 4 -136 10 -140 6 -4 10 -77 10 -185 0 -108 -4 -181 -10 -185 -5 -3
-10 -22 -10 -41 0 -27 -4 -34 -20 -34 -13 0 -20 7 -20 20 0 16 -7 20 -35 20
-25 0 -44 8 -60 25 -22 22 -25 32 -25 104 0 44 -4 83 -10 86 -6 4 -10 72 -10
170 0 98 -4 166 -10 170 -6 4 -10 53 -10 116 0 66 -4 109 -10 109 -5 0 -10 23
-10 50 0 28 -4 50 -10 50 -5 0 -10 11 -10 25 0 51 -59 33 -60 -18 0 -10 -9
-27 -20 -39 -21 -23 -27 -72 -10 -83 6 -4 10 -62 10 -140 0 -78 4 -136 10
-140 6 -4 10 -70 10 -166 0 -138 -2 -159 -16 -159 -18 0 -44 -23 -44 -40 0
-20 -49 -60 -75 -60 -24 0 -25 3 -25 54 0 30 -4 58 -10 61 -5 3 -10 35 -10 70
0 35 -4 67 -10 70 -5 3 -10 46 -10 96 0 53 -4 89 -10 89 -6 0 -10 47 -10 120
0 73 4 120 10 120 6 0 10 22 10 49 0 28 5 53 10 56 6 3 10 22 10 41 0 19 5 34
10 34 6 0 10 9 10 20 0 11 5 20 10 20 6 0 10 7 10 15 0 20 45 65 65 65 8 0 15
5 15 10 0 6 9 10 20 10 11 0 20 5 20 10 0 6 27 10 60 10 33 0 60 -4 60 -10z
m2052 -10 c12 -11 28 -20 35 -20 7 0 13 -4 13 -10 0 -5 9 -10 20 -10 13 0 20
-7 20 -20 0 -11 5 -20 10 -20 6 0 10 -9 10 -20 0 -11 5 -20 10 -20 6 0 10 -70
10 -190 0 -120 -4 -190 -10 -190 -5 0 -10 -8 -10 -18 0 -10 -9 -24 -20 -32
-11 -8 -20 -22 -20 -31 0 -10 -6 -19 -12 -22 -10 -3 -10 -9 0 -26 6 -11 12
-39 12 -60 0 -22 5 -43 10 -46 6 -3 10 -42 10 -86 0 -46 4 -79 10 -79 6 0 10
-18 10 -40 0 -22 5 -40 10 -40 6 0 10 -13 10 -30 0 -16 5 -30 10 -30 6 0 10
-39 10 -98 0 -86 -2 -99 -20 -112 -14 -10 -20 -26 -20 -52 0 -21 -4 -38 -10
-38 -5 0 -10 5 -10 10 0 6 -13 10 -30 10 -16 0 -30 5 -30 10 0 6 -9 10 -20 10
-19 0 -20 7 -20 94 0 53 -4 98 -10 101 -6 4 -10 57 -10 126 0 73 -4 119 -10
119 -6 0 -10 37 -10 90 0 53 -4 90 -10 90 -5 0 -10 9 -10 20 0 11 5 20 10 20
6 0 10 5 10 10 0 6 -9 10 -20 10 -17 0 -20 -7 -20 -50 0 -27 -4 -50 -10 -50
-5 0 -10 -22 -10 -50 0 -27 5 -50 10 -50 6 0 10 -87 10 -240 l0 -240 -90 0
-90 0 0 50 c0 28 -4 50 -10 50 -6 0 -10 135 -10 384 0 246 -4 387 -10 391 -6
4 -10 80 -10 196 l0 189 110 0 c67 0 110 4 110 10 0 6 9 10 20 10 13 0 20 7
20 20 0 11 7 20 15 20 9 0 25 -9 37 -20z m-1372 -100 c0 -33 4 -60 10 -60 6 0
10 -27 10 -60 0 -53 -2 -60 -20 -60 -13 0 -20 -7 -20 -20 0 -11 -4 -20 -10
-20 -6 0 -10 -30 -10 -70 0 -40 4 -70 10 -70 6 0 10 -33 10 -80 0 -47 4 -80
10 -80 6 0 10 -43 10 -110 0 -67 -4 -110 -10 -110 -5 0 -10 5 -10 10 0 6 -9
10 -20 10 -20 0 -20 7 -20 290 0 187 4 290 10 290 6 0 10 9 10 20 0 11 5 20
10 20 6 0 10 33 10 80 0 47 4 80 10 80 6 0 10 -27 10 -60z m960 -200 c0 -66
-2 -120 -5 -120 -13 0 -75 71 -75 85 0 8 -4 15 -10 15 -5 0 -10 23 -10 50 0
28 -4 50 -10 50 -5 0 -10 9 -10 20 0 18 7 20 60 20 l60 0 0 -120z m-85 -185
c14 -13 25 -36 25 -50 0 -14 5 -25 10 -25 6 0 10 -9 10 -20 0 -17 -7 -20 -53
-20 -29 0 -59 -6 -66 -12 -11 -10 -14 -10 -18 0 -3 6 -9 12 -14 12 -5 0 -9
-85 -9 -200 l0 -200 108 0 c71 0 112 -4 120 -12 8 -8 12 -45 12 -100 l0 -88
-80 0 c-47 0 -80 -4 -80 -10 0 -5 -9 -10 -20 -10 -11 0 -20 5 -20 10 0 6 -13
10 -30 10 -16 0 -30 -4 -30 -10 0 -15 -77 -12 -84 3 -5 10 -7 10 -12 0 -3 -7
-19 -13 -35 -13 -28 0 -29 1 -29 50 0 28 -4 50 -10 50 -5 0 -10 9 -10 19 0 11
5 23 10 26 6 4 10 90 10 225 0 135 -4 221 -10 225 -15 9 -12 54 4 71 23 22 56
16 86 -16 36 -38 60 -39 60 -3 0 33 75 111 108 112 13 1 34 -10 47 -24z m105
-305 l0 -110 -60 0 -60 0 0 86 c0 98 9 114 64 114 20 0 36 5 36 10 0 6 5 10
10 10 6 0 10 -43 10 -110z m-1740 -170 c0 -11 5 -20 10 -20 6 0 10 -24 10 -54
0 -30 5 -58 10 -61 6 -3 10 -15 10 -26 0 -14 7 -19 30 -19 27 0 30 3 30 30 0
18 5 30 13 30 18 0 67 -24 67 -32 0 -5 8 -8 18 -8 26 0 42 -20 42 -52 0 -15 5
-28 10 -28 6 0 10 -4 10 -10 0 -5 -21 -10 -46 -10 -47 0 -74 -16 -74 -44 0
-13 -14 -16 -79 -16 -54 0 -81 4 -85 13 -5 10 -7 10 -12 0 -10 -23 -24 -14
-24 15 0 16 8 34 20 42 12 8 20 26 20 42 0 28 0 28 -70 28 -63 0 -70 2 -70 20
0 11 -4 20 -10 20 -5 0 -10 9 -10 20 0 13 7 20 20 20 11 0 20 5 20 10 0 6 8
10 18 10 10 0 25 12 33 28 19 37 35 52 53 52 9 0 16 5 16 10 0 6 5 10 10 10 6
0 10 -9 10 -20z m720 -290 c0 -5 18 -10 40 -10 22 0 40 5 40 10 0 6 21 10 46
10 47 0 74 -16 74 -44 0 -9 8 -16 20 -16 11 0 20 -4 20 -10 0 -6 29 -10 68
-10 56 0 70 3 82 20 12 17 26 20 92 20 45 0 78 -4 78 -10 0 -5 9 -10 20 -10
11 0 20 -4 20 -10 0 -6 67 -10 180 -10 113 0 180 4 180 10 0 15 49 12 66 -4 8
-8 14 -22 14 -30 0 -9 5 -16 10 -16 6 0 10 -4 10 -10 0 -18 -35 -11 -50 10
-13 18 -26 20 -132 20 -72 0 -118 -4 -118 -10 0 -5 -7 -10 -16 -10 -23 0 -44
-25 -44 -54 0 -14 -4 -26 -10 -26 -5 0 -10 -9 -10 -20 0 -11 -4 -20 -10 -20
-5 0 -10 11 -10 25 0 29 -40 75 -65 75 -8 0 -15 5 -15 10 0 6 -13 10 -30 10
-16 0 -30 5 -30 10 0 6 -37 10 -90 10 -53 0 -90 -4 -90 -10 0 -5 -8 -10 -18
-10 -10 0 -24 -9 -32 -20 -8 -11 -22 -20 -32 -20 -10 0 -18 -4 -18 -10 0 -5
-9 -10 -20 -10 -13 0 -20 -7 -20 -18 0 -10 -9 -24 -20 -32 -11 -8 -20 -20 -20
-28 0 -7 -7 -20 -15 -28 -13 -14 -17 -14 -30 0 -8 8 -15 24 -15 36 0 12 -13
35 -30 50 -16 15 -30 33 -30 39 0 16 -66 81 -82 81 -8 0 -20 9 -28 20 -8 11
-22 20 -32 20 -21 0 -23 11 -6 28 14 14 108 16 108 2z m-220 -100 c0 -5 16
-10 35 -10 30 0 45 -9 90 -55 30 -30 55 -60 55 -68 0 -7 9 -19 20 -27 11 -8
20 -22 20 -32 0 -10 5 -18 10 -18 6 0 10 -9 10 -20 0 -11 5 -20 10 -20 6 0 10
-18 10 -40 0 -22 5 -40 10 -40 6 0 10 -18 10 -40 0 -22 5 -40 10 -40 6 0 10
-45 10 -116 0 -119 -8 -144 -44 -144 -9 0 -16 -8 -16 -20 0 -11 -4 -20 -10
-20 -5 0 -10 -12 -10 -26 0 -36 -22 -54 -69 -54 -22 0 -43 -4 -46 -10 -3 -5
-19 -10 -36 -10 -22 0 -29 5 -29 20 0 11 -4 20 -10 20 -6 0 -10 75 -10 204 0
126 -4 207 -10 211 -5 3 -10 19 -10 36 0 22 -5 29 -20 29 -11 0 -20 -4 -20
-10 0 -5 -9 -10 -20 -10 -17 0 -19 8 -22 77 -3 65 -6 78 -20 81 -15 3 -18 -4
-18 -47 0 -28 -4 -51 -10 -51 -7 0 -10 -143 -10 -410 0 -366 2 -410 16 -410
40 0 44 -19 44 -244 0 -137 4 -216 10 -216 6 0 10 -20 10 -44 0 -25 5 -48 10
-51 6 -3 10 -13 10 -21 0 -22 32 -53 38 -36 13 40 102 -14 102 -63 0 -14 5
-25 10 -25 6 0 10 -27 10 -60 0 -63 3 -69 26 -46 10 10 14 39 14 100 0 51 4
86 10 86 6 0 10 18 10 40 0 22 -4 40 -10 40 -5 0 -10 18 -10 40 0 22 -4 40
-10 40 -5 0 -10 14 -10 30 0 17 -4 30 -10 30 -15 0 -13 137 3 143 10 3 10 9 0
26 -7 11 -13 37 -13 56 0 33 2 35 34 35 19 0 38 5 41 10 8 13 105 13 105 0 0
-5 18 -10 40 -10 l40 0 0 -160 c0 -100 -4 -160 -10 -160 -6 0 -10 -33 -10 -80
0 -47 -4 -80 -10 -80 -5 0 -10 -11 -10 -25 0 -28 -17 -62 -42 -86 -10 -9 -18
-21 -18 -27 0 -35 -76 -142 -101 -142 -6 0 -24 -13 -39 -30 -15 -16 -35 -30
-44 -30 -9 0 -16 -4 -16 -10 0 -13 -77 -13 -85 0 -3 6 -22 10 -41 10 -19 0
-34 5 -34 10 0 6 -12 10 -27 10 -19 0 -43 17 -90 64 -35 35 -63 71 -63 80 0 9
-4 16 -10 16 -5 0 -10 15 -10 34 0 19 -4 38 -10 41 -5 3 -10 15 -10 26 0 10
-4 19 -10 19 -5 0 -10 15 -10 34 0 19 -4 38 -10 41 -5 3 -10 21 -10 40 0 19
-4 37 -10 40 -5 3 -10 37 -10 76 0 39 -4 69 -10 69 -6 0 -10 27 -10 60 0 33
-4 60 -10 60 -5 0 -10 14 -10 30 0 26 -4 30 -28 30 -15 0 -33 5 -40 12 -17 17
-16 164 1 172 10 5 10 7 0 12 -16 7 -18 184 -3 184 6 0 10 60 10 160 0 100 4
160 10 160 6 0 10 9 10 20 0 11 5 20 10 20 6 0 10 37 10 90 0 53 4 90 10 90 6
0 10 9 10 20 0 11 5 20 10 20 6 0 10 14 10 30 0 17 5 30 10 30 6 0 10 9 10 20
0 11 5 20 10 20 6 0 10 7 10 15 0 8 14 29 30 47 17 17 30 35 30 40 0 14 47 58
62 58 8 0 20 9 28 20 13 17 26 20 102 20 52 0 88 -4 88 -10z m644 -102 c5 -10
7 -10 12 0 7 14 64 17 64 2 0 -5 7 -10 15 -10 20 0 65 -45 65 -65 0 -8 3 -15
8 -15 8 0 32 -49 32 -67 0 -7 5 -13 10 -13 6 0 10 -13 10 -30 0 -16 5 -30 10
-30 6 0 10 -18 10 -40 0 -22 5 -40 10 -40 6 0 10 -35 10 -84 0 -47 5 -88 10
-91 6 -4 10 -60 10 -136 0 -79 4 -129 10 -129 6 0 10 -30 10 -69 0 -39 -4 -73
-10 -76 -6 -3 -10 -50 -10 -106 0 -76 -4 -104 -15 -115 -13 -14 -17 -14 -30 0
-8 8 -15 22 -15 30 0 12 -10 16 -35 16 -25 0 -44 8 -60 25 -28 27 -30 37 -13
65 10 16 10 24 0 40 -7 12 -12 59 -12 125 0 63 -4 105 -10 105 -6 0 -10 60
-10 160 0 100 -4 160 -10 160 -6 0 -10 28 -10 64 0 36 -4 68 -10 71 -5 3 -10
22 -10 41 0 24 -8 43 -25 59 -13 14 -27 25 -30 25 -3 0 -5 -17 -5 -38 0 -26
-6 -42 -20 -52 -18 -13 -20 -26 -20 -132 0 -72 4 -118 10 -118 6 0 10 -48 10
-124 0 -73 4 -127 10 -131 6 -3 10 -46 10 -96 0 -80 -2 -89 -18 -89 -10 0 -25
-12 -33 -27 -19 -38 -55 -73 -74 -73 -8 0 -15 -4 -15 -10 0 -5 -4 -10 -10 -10
-5 0 -10 14 -10 30 0 17 -4 30 -10 30 -6 0 -10 30 -10 70 0 40 -4 70 -10 70
-6 0 -10 31 -10 74 0 41 -4 78 -10 81 -6 4 -10 80 -10 196 0 119 4 189 10 189
6 0 10 23 10 50 0 28 5 50 10 50 6 0 10 9 10 20 0 11 5 20 10 20 6 0 10 7 10
15 0 34 58 105 85 105 8 0 15 5 15 10 0 6 9 10 20 10 11 0 20 5 20 10 0 14 37
12 44 -2z m544 -15 c6 -15 12 -33 12 -40 0 -7 5 -13 10 -13 6 0 10 -9 10 -20
0 -11 5 -20 10 -20 6 0 10 -20 10 -44 0 -25 5 -48 10 -51 6 -3 10 -19 10 -36
0 -16 5 -29 10 -29 6 0 10 -11 10 -24 0 -14 5 -28 10 -31 6 -3 10 -24 10 -46
0 -29 -4 -39 -16 -39 -16 0 -44 23 -44 37 0 14 -47 63 -59 63 -7 0 -19 -7 -27
-15 -13 -13 -11 -19 20 -50 19 -19 40 -35 46 -35 25 0 100 -94 100 -125 0 -8
5 -15 10 -15 15 0 13 263 -2 278 -9 9 -9 15 0 24 14 14 16 78 2 78 -16 0 -12
129 4 146 10 9 37 14 80 14 l66 0 0 -254 c0 -159 4 -257 10 -261 6 -4 10 -107
10 -276 0 -173 4 -269 10 -269 17 0 13 -209 -4 -226 -18 -17 -30 -18 -57 -1
-17 9 -23 10 -26 0 -7 -21 -32 -15 -61 14 -17 17 -22 28 -14 31 7 2 12 17 12
33 0 16 5 29 10 29 6 0 10 50 10 130 0 80 -4 130 -10 130 -5 0 -10 9 -10 20 0
12 -7 20 -16 20 -21 0 -44 25 -44 48 0 21 -46 72 -64 72 -6 0 -18 9 -26 20 -8
11 -18 20 -22 20 -12 0 -10 -148 2 -155 14 -9 12 -131 -2 -157 -23 -41 -36
-48 -82 -48 l-46 0 0 54 c0 30 -4 58 -10 61 -6 4 -10 62 -10 140 0 78 -4 136
-10 140 -6 4 -10 85 -10 210 0 125 -4 206 -10 210 -6 4 -10 59 -10 133 0 149
0 149 110 151 61 1 66 -1 78 -26z m-882 -727 c8 -8 14 -31 14 -50 0 -20 5 -36
10 -36 6 0 10 -33 10 -80 l0 -80 -110 0 c-67 0 -110 -4 -110 -10 0 -5 -9 -10
-20 -10 -11 0 -20 -4 -20 -10 0 -5 -9 -10 -19 -10 -11 0 -21 -6 -24 -12 -2 -8
-8 -9 -13 -4 -5 5 -4 11 4 13 14 5 17 63 2 63 -5 0 -10 7 -10 16 0 9 -13 29
-30 44 -26 25 -30 35 -30 84 0 60 7 68 30 36 13 -18 26 -20 112 -20 59 0 98 4
98 10 0 6 12 10 26 10 29 0 54 21 54 44 0 20 7 20 26 2z m334 -266 c0 -22 5
-40 10 -40 6 0 10 -16 10 -35 0 -25 8 -44 25 -60 30 -31 35 -31 35 1 0 39 22
56 54 41 14 -7 26 -15 26 -19 0 -5 14 -8 30 -8 27 0 30 -3 30 -30 0 -16 5 -30
10 -30 6 0 10 -9 10 -20 0 -16 -7 -20 -36 -20 -36 0 -64 -18 -64 -42 0 -17
-53 -43 -58 -28 -2 6 -38 10 -83 10 -91 0 -101 12 -49 60 35 32 39 60 10 60
-11 0 -20 5 -20 10 0 6 -13 10 -30 10 -16 0 -30 -4 -30 -10 0 -15 -29 -12 -46
4 -8 8 -14 31 -14 50 0 33 3 36 28 36 21 0 32 7 43 27 23 46 52 72 82 72 25 1
27 -2 27 -39z m546 -134 c16 -17 19 -46 4 -46 -5 0 -10 -18 -10 -40 0 -33 -3
-40 -20 -40 -11 0 -20 -4 -20 -10 0 -5 -13 -10 -30 -10 -16 0 -30 5 -30 10 0
6 -7 10 -16 10 -26 0 -44 26 -44 64 0 29 4 36 20 36 11 0 20 5 20 10 0 6 9 10
20 10 11 0 20 5 20 10 0 15 70 12 86 -4z"/>
<path d="M840 3532 c0 -137 -5 -152 -49 -152 -25 0 -51 34 -51 67 0 7 -4 13
-10 13 -5 0 -10 15 -10 33 0 21 -8 41 -20 52 -19 18 -20 17 -20 -3 0 -12 -4
-22 -10 -22 -5 0 -10 -9 -10 -19 0 -11 -4 -23 -10 -26 -5 -3 -10 -26 -10 -51
0 -37 3 -44 20 -44 18 0 20 -7 20 -64 0 -36 5 -68 10 -71 6 -3 10 -26 10 -50
0 -24 5 -47 10 -50 6 -3 10 -24 10 -46 0 -21 5 -39 10 -39 6 0 10 -24 10 -52
1 -64 17 -88 59 -88 34 0 81 37 81 65 0 8 5 15 10 15 6 0 10 73 10 200 0 127
4 200 10 200 6 0 10 27 10 60 0 33 -4 60 -10 60 -5 0 -10 23 -10 50 0 28 -4
50 -10 50 -5 0 -10 9 -10 20 0 13 -7 20 -20 20 -19 0 -20 -7 -20 -128z"/>
<path d="M3573 3425 c-7 -8 -13 -37 -13 -65 0 -28 -6 -60 -12 -73 -7 -12 -14
-24 -15 -26 -5 -10 -33 30 -33 48 0 11 -4 23 -10 26 -5 3 -10 15 -10 26 0 10
-4 19 -10 19 -5 0 -10 -9 -10 -20 0 -11 -4 -20 -10 -20 -5 0 -10 -13 -10 -30
0 -16 5 -30 10 -30 6 0 10 -57 10 -150 l0 -150 26 0 c17 0 36 10 50 28 22 24
24 37 24 120 0 54 4 92 10 92 6 0 10 14 10 30 0 17 5 30 10 30 6 0 10 33 10
80 0 80 -5 91 -27 65z"/>
</g>
</svg>
