<?xml version="1.0" standalone="no"?>
<!DOCTYPE svg PUBLIC "-//W3C//DTD SVG 20010904//EN"
 "http://www.w3.org/TR/2001/REC-SVG-20010904/DTD/svg10.dtd">
<svg version="1.0" xmlns="http://www.w3.org/2000/svg"
 width="350.000000pt" height="350.000000pt" viewBox="0 0 350.000000 350.000000"
 preserveAspectRatio="xMidYMid meet">
<metadata>
Created by potrace 1.13, written by Peter Selinger 2001-2015
</metadata>
<g transform="translate(0.000000,350.000000) scale(0.100000,-0.100000)"
fill="#000000" stroke="none">
<path d="M1764 3064 c-32 -19 -63 -43 -68 -51 -5 -9 -24 -33 -42 -53 -39 -44
-42 -60 -13 -86 12 -10 30 -36 40 -56 34 -67 60 -49 70 51 6 54 11 68 33 84
15 10 33 32 42 48 8 17 26 35 39 41 43 20 27 58 -24 58 -9 0 -44 -16 -77 -36z"/>
<path d="M1260 2943 c-8 -3 -32 -21 -53 -39 -20 -19 -42 -34 -47 -34 -6 0 -28
-18 -50 -40 -36 -36 -44 -40 -90 -40 -45 0 -55 -4 -80 -31 -31 -35 -35 -35
-130 0 -86 32 -192 24 -234 -19 -19 -18 -22 -37 -29 -193 -11 -220 -11 -233
-2 -410 6 -117 11 -153 25 -169 l17 -21 52 34 c29 18 59 46 67 62 8 15 25 33
38 38 12 6 31 26 41 45 22 42 108 124 129 124 9 0 30 -13 48 -29 29 -26 31
-32 20 -48 -7 -10 -19 -32 -27 -49 -19 -41 -34 -52 -83 -60 -29 -5 -49 -15
-62 -33 -11 -14 -24 -30 -29 -34 -80 -73 -149 -149 -160 -175 -20 -47 1 -115
45 -148 18 -14 42 -41 53 -60 11 -19 26 -34 33 -34 7 0 30 -5 50 -10 31 -9 39
-17 47 -47 18 -64 -13 -91 -65 -56 -25 16 -28 15 -67 -5 -23 -12 -68 -24 -99
-27 -89 -10 -103 -47 -30 -84 21 -11 43 -31 50 -45 6 -14 19 -26 27 -26 24 0
116 -90 137 -135 11 -22 29 -56 41 -75 19 -30 22 -50 22 -140 1 -58 4 -111 8
-117 15 -24 55 -14 77 17 12 17 37 37 57 45 42 18 68 46 94 103 13 26 34 52
55 64 41 24 42 38 5 80 -37 43 -51 71 -51 102 0 39 30 49 120 42 145 -13 218
52 96 85 -22 6 -62 20 -88 30 -26 11 -56 19 -67 19 -47 0 -137 124 -112 154
19 23 164 15 216 -12 23 -12 77 -26 125 -31 69 -9 89 -15 105 -34 11 -13 32
-31 47 -40 16 -10 34 -32 42 -51 12 -29 21 -35 79 -49 96 -24 115 -23 122 11
12 53 60 133 90 150 17 9 55 16 88 16 77 1 87 -12 87 -115 0 -110 9 -125 91
-149 62 -19 129 -64 129 -87 0 -24 -41 -44 -105 -52 -58 -7 -73 -12 -94 -37
-14 -17 -39 -38 -54 -48 -34 -21 -33 -55 2 -72 13 -7 35 -25 50 -41 19 -21 41
-32 71 -37 46 -7 80 -29 80 -52 0 -7 10 -19 22 -25 13 -7 49 -38 80 -69 54
-54 58 -62 68 -125 6 -37 15 -76 20 -86 7 -11 6 -27 0 -44 -6 -15 -6 -33 -2
-42 8 -13 12 -13 28 5 10 11 34 23 52 27 22 4 40 17 52 37 10 16 32 38 49 49
17 10 31 25 31 32 0 8 11 31 25 52 18 26 25 48 23 76 -2 40 22 79 49 79 8 0
33 19 57 43 24 23 51 48 60 55 10 8 16 28 16 58 0 60 12 80 53 88 33 6 34 8
40 61 7 66 12 75 41 75 26 0 36 -22 36 -78 0 -27 -6 -36 -35 -53 -38 -23 -45
-52 -25 -104 7 -20 6 -34 -6 -57 -18 -34 -12 -73 12 -82 19 -7 50 17 59 45 4
11 22 23 43 29 55 14 99 66 122 141 25 80 25 123 0 177 -23 52 -44 61 -73 34
-58 -53 -97 -36 -97 43 0 59 19 85 63 85 38 0 69 14 106 48 18 16 42 37 52 46
27 23 26 99 -1 126 -11 11 -25 20 -31 20 -19 0 -41 74 -41 138 -1 79 -12 92
-83 92 -46 0 -56 -3 -66 -22 -15 -29 -25 -36 -74 -49 -23 -6 -52 -24 -70 -44
-36 -40 -64 -50 -89 -32 -29 21 -11 55 40 77 25 11 44 26 44 35 0 9 23 26 55
41 30 15 55 32 55 40 0 26 -50 47 -125 52 -56 3 -78 9 -91 23 -28 31 -50 22
-98 -40 -27 -35 -58 -63 -76 -70 -21 -7 -34 -20 -41 -41 -9 -26 -35 -50 -53
-50 -13 0 -36 34 -36 53 0 12 18 41 39 65 48 52 59 93 37 127 -21 32 -34 31
-90 -2 -36 -22 -50 -38 -65 -78 -22 -57 -42 -75 -68 -59 -61 38 18 204 105
220 45 8 62 21 62 46 0 21 -41 42 -106 53 -45 7 -74 -10 -74 -44 0 -19 -30
-51 -48 -51 -6 0 -23 -16 -38 -35 -14 -19 -33 -35 -41 -35 -7 0 -29 -16 -49
-35 -37 -38 -42 -39 -63 -26 -13 8 -12 15 3 49 17 36 17 42 2 70 -36 70 -18
92 73 92 41 0 49 4 93 52 70 76 67 82 -55 98 -80 10 -93 7 -101 -24 -3 -12
-19 -41 -36 -65 l-31 -42 -39 33 c-54 46 -54 79 0 103 65 29 66 36 19 99 -24
33 -49 56 -57 54 -10 -2 -20 -24 -28 -57 -9 -41 -20 -62 -47 -85 -19 -17 -38
-43 -41 -58 -5 -20 -13 -28 -29 -28 -33 0 -43 -11 -50 -53 -7 -46 -22 -67 -48
-67 -23 0 -35 43 -23 79 5 14 22 32 38 39 25 13 27 18 24 55 -3 23 -6 49 -9
57 -3 10 10 22 38 35 27 12 47 30 54 47 13 32 37 48 69 48 49 0 33 54 -26 85
-21 11 -44 31 -50 43 -21 43 -29 45 -78 24 -25 -12 -46 -25 -46 -29 0 -4 17
-22 37 -40 52 -43 39 -66 -43 -74 -80 -9 -90 -14 -108 -60 -12 -28 -22 -39
-33 -37 -18 3 -24 18 -43 95 -6 25 -18 44 -28 47 -9 3 -47 -3 -84 -13 -79 -21
-106 -13 -65 20 23 17 28 28 25 58 -3 32 -7 37 -40 45 -20 5 -40 16 -43 24 -7
19 19 48 50 56 13 3 33 19 44 35 15 21 33 31 62 36 58 10 79 34 79 93 0 26 -5
53 -12 60 -12 12 -198 16 -228 5z"/>
<path d="M2070 2615 c0 -27 31 -65 53 -65 8 0 18 -17 23 -37 7 -31 15 -40 43
-49 20 -6 40 -22 48 -38 10 -19 21 -26 36 -24 32 4 28 40 -5 56 -17 8 -28 21
-28 33 0 25 -43 69 -68 69 -13 0 -22 9 -27 27 -9 39 -23 53 -51 53 -19 0 -24
-5 -24 -25z"/>
<path d="M1480 1301 c-22 -6 -25 -13 -28 -65 -4 -72 8 -90 46 -72 15 7 41 20
57 27 36 17 45 58 20 95 -16 25 -44 29 -95 15z"/>
<path d="M393 1264 c-20 -10 -40 -33 -53 -59 -19 -40 -20 -54 -14 -174 6 -114
10 -133 26 -142 10 -5 26 -26 36 -47 9 -20 29 -43 44 -50 15 -7 37 -26 48 -42
21 -29 24 -30 106 -30 l84 0 60 59 60 59 -7 82 c-5 70 -10 86 -30 103 -13 12
-31 45 -40 75 -14 43 -25 59 -55 78 -20 13 -42 33 -48 45 -25 45 -160 72 -217
43z"/>
<path d="M1873 860 c-12 -5 -28 -22 -36 -37 -8 -15 -25 -37 -37 -48 -34 -31
-50 -69 -50 -119 0 -38 6 -53 34 -83 18 -21 39 -56 46 -78 12 -36 46 -85 105
-149 31 -33 209 -64 273 -47 26 6 56 21 66 31 29 28 7 46 -72 60 -37 6 -72 16
-79 22 -42 35 23 73 106 63 47 -5 61 -3 80 12 l24 19 -23 69 c-19 57 -33 79
-90 136 -45 45 -80 71 -105 78 -21 6 -50 21 -64 35 -41 39 -128 56 -178 36z"/>
</g>
</svg>
