<?xml version="1.0" standalone="no"?>
<!DOCTYPE svg PUBLIC "-//W3C//DTD SVG 20010904//EN"
 "http://www.w3.org/TR/2001/REC-SVG-20010904/DTD/svg10.dtd">
<svg version="1.0" xmlns="http://www.w3.org/2000/svg"
 width="600.000000pt" height="362.000000pt" viewBox="0 0 600.000000 362.000000"
 preserveAspectRatio="xMidYMid meet">
<metadata>
Created by potrace 1.13, written by Peter Selinger 2001-2015
</metadata>
<g transform="translate(0.000000,362.000000) scale(0.100000,-0.100000)"
fill="#000000" stroke="none">
<path d="M4264 3509 c-334 -210 -555 -372 -731 -535 -97 -89 -127 -110 -220
-155 -95 -46 -115 -52 -165 -50 -53 2 -60 -1 -97 -35 -25 -22 -41 -45 -41 -59
0 -17 -16 -33 -65 -63 -35 -23 -67 -37 -70 -31 -4 5 -23 9 -44 9 -30 0 -44 -7
-73 -37 -20 -21 -38 -46 -40 -57 -2 -11 -21 -26 -51 -37 -44 -17 -50 -18 -70
-4 -12 8 -39 15 -60 15 -31 0 -46 -7 -73 -34 -19 -19 -34 -43 -34 -54 0 -15
-18 -27 -81 -52 l-81 -33 -17 21 c-9 13 -33 24 -58 28 -37 6 -46 3 -82 -26
-46 -37 -56 -57 -40 -77 15 -17 15 -17 -55 -48 l-59 -26 -26 25 c-39 38 -95
36 -144 -5 -38 -31 -46 -56 -25 -77 15 -15 18 -13 -79 -51 -72 -29 -87 -32
-114 -22 -55 19 -81 13 -120 -25 -21 -20 -35 -42 -33 -49 3 -7 -26 -24 -79
-44 -74 -29 -90 -32 -144 -26 -55 7 -64 5 -99 -19 -21 -14 -43 -26 -49 -26 -5
0 -100 -29 -210 -65 -110 -35 -243 -76 -295 -90 -132 -36 -211 -78 -290 -155
-113 -111 -218 -305 -206 -379 25 -156 224 -367 442 -467 90 -42 670 -238 900
-304 362 -105 636 -151 895 -151 328 0 692 73 1004 201 342 141 615 238 968
345 213 65 323 88 550 115 232 28 350 51 557 110 288 83 448 175 497 286 29
68 91 301 104 393 13 89 6 186 -26 401 -13 85 -29 201 -36 258 -7 56 -14 102
-15 102 -2 0 -35 -19 -73 -41 -89 -54 -179 -142 -328 -321 -66 -79 -126 -148
-134 -155 -12 -9 -30 2 -99 59 -47 38 -91 75 -98 82 -9 9 9 23 85 66 218 123
335 307 399 630 35 180 1 405 -72 478 -33 33 -38 34 -85 29 -79 -10 -108 -33
-156 -121 -53 -98 -84 -139 -125 -164 -53 -33 -166 -70 -257 -83 -72 -11 -84
-11 -92 2 -4 9 -41 58 -80 110 -185 240 -243 328 -327 496 -18 34 -36 64 -41
67 -5 3 -67 -31 -137 -75z m-520 -1597 c32 -37 122 -139 200 -227 77 -88 225
-244 328 -346 103 -103 188 -189 188 -192 0 -9 -155 -90 -233 -122 l-67 -28
-73 70 c-144 140 -299 302 -501 523 l-205 225 22 23 c35 38 214 135 237 129
11 -3 23 -1 26 4 9 15 17 9 78 -59z m-482 -324 c62 -67 227 -243 366 -391 139
-148 251 -274 250 -279 -2 -6 -76 -34 -165 -63 l-161 -52 -85 86 c-46 47 -160
169 -253 272 -184 202 -255 278 -276 296 -7 6 -35 36 -61 67 -42 49 -46 57
-30 63 10 3 79 33 153 64 74 32 138 58 142 59 3 0 57 -55 120 -122z m-607
-174 c30 -31 55 -60 55 -64 0 -5 8 -11 18 -14 9 -3 24 -17 32 -30 8 -14 60
-73 116 -133 55 -59 161 -173 234 -253 74 -80 146 -159 162 -176 l28 -30 -97
-38 c-54 -20 -123 -52 -153 -71 l-55 -35 -120 123 c-170 173 -318 334 -329
357 -5 11 -16 22 -26 25 -9 3 -27 19 -39 36 -13 17 -61 73 -108 125 -78 86
-84 95 -69 110 16 15 258 121 283 123 7 1 37 -24 68 -55z"/>
</g>
</svg>
