<?xml version="1.0" standalone="no"?>
<!DOCTYPE svg PUBLIC "-//W3C//DTD SVG 20010904//EN"
 "http://www.w3.org/TR/2001/REC-SVG-20010904/DTD/svg10.dtd">
<svg version="1.0" xmlns="http://www.w3.org/2000/svg"
 width="305.000000pt" height="305.000000pt" viewBox="0 0 305.000000 305.000000"
 preserveAspectRatio="xMidYMid meet">
<metadata>
Created by potrace 1.13, written by Peter Selinger 2001-2015
</metadata>
<g transform="translate(0.000000,305.000000) scale(0.100000,-0.100000)"
fill="#000000" stroke="none">
<path d="M1230 2996 c-162 -30 -250 -59 -385 -129 -83 -42 -99 -51 -105 -57
-3 -3 -29 -23 -59 -44 -127 -90 -294 -260 -373 -381 -49 -76 -94 -150 -107
-180 -109 -240 -145 -413 -145 -685 0 -246 21 -366 100 -575 107 -284 361
-582 629 -737 61 -35 216 -108 230 -108 8 0 38 -9 67 -19 200 -72 568 -70 813
6 175 53 379 175 535 320 86 79 215 240 272 338 34 59 108 216 108 229 0 7 9
35 19 62 74 189 91 594 36 834 -66 286 -185 504 -394 724 -85 88 -192 176
-286 233 -40 24 -226 113 -237 113 -6 0 -36 8 -67 19 -180 60 -445 76 -651 37z
m178 -263 c-18 -21 -57 -126 -144 -390 l-119 -363 -50 0 c-50 0 -50 0 -110 73
-78 93 -103 99 -170 35 -26 -24 -52 -60 -59 -83 l-14 -40 -175 -6 c-97 -4
-181 -10 -187 -14 -45 -28 80 217 174 343 191 253 449 410 751 456 135 21 134
21 103 -11z m277 2 c198 -36 348 -108 518 -247 102 -84 178 -169 254 -285 72
-109 150 -282 112 -245 -9 8 -57 12 -159 13 -80 1 -188 4 -241 8 l-95 6 -63
73 c-45 52 -68 72 -86 72 -27 0 -89 -50 -115 -93 l-17 -28 -11 38 c-5 21 -40
124 -77 228 -37 105 -84 244 -106 309 -22 66 -46 130 -54 143 -15 23 -15 23
22 23 21 0 74 -7 118 -15z m-162 -325 c120 -354 179 -515 194 -532 15 -17 15
-21 3 -29 -17 -11 -40 -8 -120 16 -79 23 -299 17 -353 -10 -29 -15 -40 -16
-49 -7 -9 9 -7 12 9 12 11 0 25 6 31 13 6 6 58 158 117 337 106 319 114 345
120 338 1 -2 23 -64 48 -138z m957 -546 c3 -3 -8 -17 -25 -31 -16 -13 -48 -40
-70 -58 -22 -19 -59 -49 -83 -66 -24 -18 -48 -43 -53 -55 -4 -13 -15 -24 -23
-24 -10 0 -13 16 -13 63 0 69 -31 147 -58 147 -21 0 -19 28 3 33 23 6 315 -3
322 -9z m-1431 -124 l81 -111 0 -129 c0 -140 7 -172 42 -192 30 -16 199 -16
305 1 70 11 86 18 112 45 18 18 40 54 50 80 l18 47 12 -54 c16 -75 40 -94 131
-107 41 -6 78 -14 82 -18 4 -4 16 -41 27 -82 12 -41 30 -106 41 -145 11 -38
26 -92 34 -120 8 -27 28 -99 46 -158 17 -60 30 -110 28 -112 -2 -2 -84 55
-183 126 -347 250 -361 259 -398 259 -36 0 -40 -3 -422 -287 -82 -61 -151
-110 -153 -108 -5 5 103 393 150 540 10 33 21 87 25 121 l6 60 -280 220 -279
219 85 6 c47 3 147 6 222 7 l137 2 81 -110z m1595 -205 c0 -207 -2 -226 -27
-321 -62 -233 -159 -407 -330 -589 -56 -59 -66 -66 -67 -47 0 12 -16 78 -36
145 -20 67 -40 136 -44 152 -4 17 -35 124 -69 240 -33 116 -61 213 -61 218 0
4 13 7 29 7 38 0 89 43 99 83 7 26 51 66 228 209 120 97 226 187 234 199 14
21 15 20 29 -27 10 -36 14 -107 15 -269z m-1946 1 c138 -108 252 -200 252
-203 0 -3 -24 -91 -54 -197 -118 -413 -139 -492 -145 -540 l-6 -48 -77 78
c-183 186 -291 385 -344 634 -29 141 -33 346 -8 482 l16 88 57 -49 c31 -26
170 -137 309 -245z m1382 214 c22 -12 22 -16 17 -89 -7 -82 -31 -187 -49 -208
-11 -14 -160 -18 -230 -7 -34 6 -37 9 -42 49 -11 71 -8 205 4 220 11 13 78 36
140 48 40 8 135 0 160 -13z m-550 -13 c36 -10 46 -17 49 -37 4 -32 -14 -113
-43 -187 -21 -56 -24 -58 -71 -70 -28 -7 -89 -16 -137 -19 l-88 -7 0 101 c0
56 5 123 11 151 9 44 15 51 47 65 44 18 167 20 232 3z m258 -1022 c191 -137
304 -212 325 -215 l32 -5 -50 -32 c-73 -46 -200 -107 -275 -132 -84 -27 -244
-51 -346 -51 -92 0 -271 30 -357 59 -69 24 -199 88 -253 125 -37 25 -37 26
-13 26 16 0 52 19 90 49 35 27 154 115 264 196 110 81 214 158 230 171 17 13
37 22 45 21 9 -1 147 -96 308 -212z"/>
</g>
</svg>
