<?xml version="1.0" standalone="no"?>
<!DOCTYPE svg PUBLIC "-//W3C//DTD SVG 20010904//EN"
 "http://www.w3.org/TR/2001/REC-SVG-20010904/DTD/svg10.dtd">
<svg version="1.0" xmlns="http://www.w3.org/2000/svg"
 width="300.000000pt" height="300.000000pt" viewBox="0 0 300.000000 300.000000"
 preserveAspectRatio="xMidYMid meet">
<metadata>
Created by potrace 1.13, written by Peter Selinger 2001-2015
</metadata>
<g transform="translate(0.000000,300.000000) scale(0.100000,-0.100000)"
fill="#000000" stroke="none">
<path d="M2063 2345 c-26 -32 -45 -45 -63 -45 -17 0 -38 -13 -60 -35 -22 -23
-43 -35 -60 -35 -44 0 -90 -63 -90 -122 0 -27 -11 -45 -55 -92 -30 -31 -55
-64 -55 -72 0 -24 -31 -64 -49 -64 -31 0 -81 -62 -81 -100 0 -40 -42 -90 -75
-90 -25 0 -75 -49 -75 -73 0 -18 -11 -24 -89 -48 -24 -8 -49 -23 -55 -34 -6
-11 -12 -22 -14 -24 -1 -3 -22 -4 -46 -2 -57 2 -113 -21 -125 -52 -11 -28 -36
-37 -104 -37 -37 0 -53 -5 -72 -24 -32 -32 -76 -46 -144 -46 -32 0 -65 -6 -77
-14 -39 -28 -108 -37 -293 -39 l-189 -2 -56 -39 c-104 -71 -140 -158 -134
-320 l3 -89 50 -28 c104 -58 451 -139 730 -169 109 -12 647 -26 1470 -36 562
-7 627 -4 708 37 l40 21 -5 170 c-4 145 -7 172 -21 183 -14 10 -17 32 -17 137
0 93 -5 145 -20 204 -56 214 -90 510 -90 777 0 134 -3 169 -14 173 -8 3 -47 0
-87 -6 -113 -17 -489 -26 -489 -12 0 7 -16 30 -36 52 -32 35 -42 40 -80 40
-39 0 -47 -4 -81 -45z m485 -431 c194 -97 184 -375 -17 -462 -48 -21 -165 -20
-213 2 -204 90 -207 375 -5 467 65 29 169 26 235 -7z m-2240 -839 c73 -19 208
-46 299 -60 92 -14 168 -27 170 -28 1 -2 -6 -44 -17 -93 -11 -49 -20 -102 -20
-118 0 -28 0 -28 -47 -21 -243 35 -585 127 -608 165 -8 13 13 125 31 169 12
28 18 32 36 27 13 -4 83 -22 156 -41z m737 -115 c321 -34 1045 -46 1598 -26
l207 8 0 -61 0 -60 -37 -7 c-44 -8 -1090 4 -1428 16 -132 5 -305 15 -383 21
l-144 12 7 45 c10 69 13 72 54 67 20 -3 77 -9 126 -15z m1574 -251 c182 -2
184 -2 91 -11 -83 -9 -948 5 -1085 17 -22 2 151 1 384 -1 233 -2 508 -5 610
-5z"/>
</g>
</svg>
